G04 #@! TF.GenerationSoftware,KiCad,Pcbnew,5.1.7-a382d34a8~87~ubuntu20.04.1*
G04 #@! TF.CreationDate,2020-11-27T04:13:02-03:00*
G04 #@! TF.ProjectId,robot uve,726f626f-7420-4757-9665-2e6b69636164,rev?*
G04 #@! TF.SameCoordinates,Original*
G04 #@! TF.FileFunction,Legend,Bot*
G04 #@! TF.FilePolarity,Positive*
%FSLAX46Y46*%
G04 Gerber Fmt 4.6, Leading zero omitted, Abs format (unit mm)*
G04 Created by KiCad (PCBNEW 5.1.7-a382d34a8~87~ubuntu20.04.1) date 2020-11-27 04:13:02*
%MOMM*%
%LPD*%
G01*
G04 APERTURE LIST*
%ADD10C,0.150000*%
%ADD11C,0.254000*%
%ADD12C,0.127000*%
%ADD13C,0.304800*%
%ADD14C,0.300000*%
%ADD15C,0.152400*%
G04 APERTURE END LIST*
D10*
X185808000Y-79804000D02*
X187358000Y-79804000D01*
X188628000Y-82624000D02*
X186088000Y-82624000D01*
X188628000Y-80084000D02*
X188628000Y-82624000D01*
X185808000Y-81354000D02*
X185808000Y-79804000D01*
X191168000Y-80084000D02*
X188628000Y-80084000D01*
X191168000Y-125804000D02*
X186088000Y-125804000D01*
X186088000Y-125804000D02*
X186088000Y-82624000D01*
X191168000Y-80084000D02*
X191168000Y-125804000D01*
X119768000Y-77824000D02*
X119768000Y-74724000D01*
X121318000Y-77824000D02*
X119768000Y-77824000D01*
X122588000Y-75004000D02*
X122588000Y-77544000D01*
X119768000Y-74724000D02*
X121318000Y-74724000D01*
X140368000Y-77544000D02*
X122588000Y-77544000D01*
X140368000Y-75004000D02*
X140368000Y-77544000D01*
X122588000Y-75004000D02*
X140368000Y-75004000D01*
X142628000Y-77824000D02*
X142628000Y-74724000D01*
X144178000Y-77824000D02*
X142628000Y-77824000D01*
X145448000Y-75004000D02*
X145448000Y-77544000D01*
X142628000Y-74724000D02*
X144178000Y-74724000D01*
X163228000Y-77544000D02*
X145448000Y-77544000D01*
X163228000Y-75004000D02*
X163228000Y-77544000D01*
X145448000Y-75004000D02*
X163228000Y-75004000D01*
X165488000Y-77824000D02*
X165488000Y-74724000D01*
X167038000Y-77824000D02*
X165488000Y-77824000D01*
X168308000Y-75004000D02*
X168308000Y-77544000D01*
X165488000Y-74724000D02*
X167038000Y-74724000D01*
X186088000Y-77544000D02*
X168308000Y-77544000D01*
X186088000Y-75004000D02*
X186088000Y-77544000D01*
X168308000Y-75004000D02*
X186088000Y-75004000D01*
X110624000Y-126084000D02*
X110624000Y-122984000D01*
X112174000Y-126084000D02*
X110624000Y-126084000D01*
X113444000Y-123264000D02*
X113444000Y-125804000D01*
X110624000Y-122984000D02*
X112174000Y-122984000D01*
X136304000Y-125804000D02*
X113444000Y-125804000D01*
X136304000Y-123264000D02*
X136304000Y-125804000D01*
X113444000Y-123264000D02*
X136304000Y-123264000D01*
X137548000Y-126084000D02*
X137548000Y-122984000D01*
X139098000Y-126084000D02*
X137548000Y-126084000D01*
X140368000Y-123264000D02*
X140368000Y-125804000D01*
X137548000Y-122984000D02*
X139098000Y-122984000D01*
X158148000Y-125804000D02*
X140368000Y-125804000D01*
X158148000Y-123264000D02*
X158148000Y-125804000D01*
X140368000Y-123264000D02*
X158148000Y-123264000D01*
X160408000Y-126084000D02*
X160408000Y-122984000D01*
X161958000Y-126084000D02*
X160408000Y-126084000D01*
X163228000Y-123264000D02*
X163228000Y-125804000D01*
X160408000Y-122984000D02*
X161958000Y-122984000D01*
X181008000Y-125804000D02*
X163228000Y-125804000D01*
X181008000Y-123264000D02*
X181008000Y-125804000D01*
X163228000Y-123264000D02*
X181008000Y-123264000D01*
X161704000Y-81354000D02*
G75*
G03*
X161704000Y-81354000I-2286000J0D01*
G01*
X192184000Y-76274000D02*
G75*
G03*
X192184000Y-76274000I-2286000J0D01*
G01*
X161704000Y-109294000D02*
G75*
G03*
X161704000Y-109294000I-2286000J0D01*
G01*
X185834000Y-124534000D02*
G75*
G03*
X185834000Y-124534000I-2286000J0D01*
G01*
D11*
X113000000Y-55000000D02*
G75*
G03*
X113000000Y-55000000I-3000000J0D01*
G01*
X107000000Y-55000000D02*
X113000000Y-55000000D01*
X110000000Y-52000000D02*
X110000000Y-58000000D01*
X200000000Y-52000000D02*
X200000000Y-58000000D01*
X197000000Y-55000000D02*
X203000000Y-55000000D01*
X203000000Y-55000000D02*
G75*
G03*
X203000000Y-55000000I-3000000J0D01*
G01*
X203000000Y-145000000D02*
G75*
G03*
X203000000Y-145000000I-3000000J0D01*
G01*
X197000000Y-145000000D02*
X203000000Y-145000000D01*
X200000000Y-142000000D02*
X200000000Y-148000000D01*
X110000000Y-142000000D02*
X110000000Y-148000000D01*
X107000000Y-145000000D02*
X113000000Y-145000000D01*
X113000000Y-145000000D02*
G75*
G03*
X113000000Y-145000000I-3000000J0D01*
G01*
D12*
X185300000Y-72400000D02*
X185300000Y-71600000D01*
X182300000Y-72400000D02*
X185297200Y-72400000D01*
X182300000Y-71600000D02*
X182300000Y-72400000D01*
X185297200Y-71600000D02*
X182300000Y-71600000D01*
X166050000Y-73800000D02*
X166050000Y-73000000D01*
X163050000Y-73800000D02*
X166047200Y-73800000D01*
X163050000Y-73000000D02*
X163050000Y-73800000D01*
X166047200Y-73000000D02*
X163050000Y-73000000D01*
X120447200Y-78450000D02*
X117450000Y-78450000D01*
X117450000Y-78450000D02*
X117450000Y-79250000D01*
X117450000Y-79250000D02*
X120447200Y-79250000D01*
X120450000Y-79250000D02*
X120450000Y-78450000D01*
X186700000Y-64600000D02*
X186700000Y-66200200D01*
X188900000Y-64600000D02*
X186700000Y-64600000D01*
X188899540Y-66200100D02*
X188899540Y-64599900D01*
X186700000Y-66200000D02*
X188900000Y-66200000D01*
X188500760Y-66200100D02*
X188500760Y-64599900D01*
X188399160Y-64599900D02*
X188399160Y-66200100D01*
D13*
X180330000Y-120610000D02*
X182870000Y-120610000D01*
X182870000Y-110450000D02*
X180330000Y-110450000D01*
X180330000Y-110450000D02*
X180330000Y-120610000D01*
X182870000Y-120610000D02*
X182870000Y-110450000D01*
X180330000Y-112990000D02*
X182870000Y-112990000D01*
D10*
X185016380Y-102205904D02*
X184016380Y-102205904D01*
X184016380Y-102586857D01*
X184064000Y-102682095D01*
X184111619Y-102729714D01*
X184206857Y-102777333D01*
X184349714Y-102777333D01*
X184444952Y-102729714D01*
X184492571Y-102682095D01*
X184540190Y-102586857D01*
X184540190Y-102205904D01*
X185016380Y-103729714D02*
X185016380Y-103158285D01*
X185016380Y-103444000D02*
X184016380Y-103444000D01*
X184159238Y-103348761D01*
X184254476Y-103253523D01*
X184302095Y-103158285D01*
X130946095Y-79520380D02*
X130946095Y-78520380D01*
X130565142Y-78520380D01*
X130469904Y-78568000D01*
X130422285Y-78615619D01*
X130374666Y-78710857D01*
X130374666Y-78853714D01*
X130422285Y-78948952D01*
X130469904Y-78996571D01*
X130565142Y-79044190D01*
X130946095Y-79044190D01*
X129993714Y-78615619D02*
X129946095Y-78568000D01*
X129850857Y-78520380D01*
X129612761Y-78520380D01*
X129517523Y-78568000D01*
X129469904Y-78615619D01*
X129422285Y-78710857D01*
X129422285Y-78806095D01*
X129469904Y-78948952D01*
X130041333Y-79520380D01*
X129422285Y-79520380D01*
X153806095Y-79266380D02*
X153806095Y-78266380D01*
X153425142Y-78266380D01*
X153329904Y-78314000D01*
X153282285Y-78361619D01*
X153234666Y-78456857D01*
X153234666Y-78599714D01*
X153282285Y-78694952D01*
X153329904Y-78742571D01*
X153425142Y-78790190D01*
X153806095Y-78790190D01*
X152901333Y-78266380D02*
X152282285Y-78266380D01*
X152615619Y-78647333D01*
X152472761Y-78647333D01*
X152377523Y-78694952D01*
X152329904Y-78742571D01*
X152282285Y-78837809D01*
X152282285Y-79075904D01*
X152329904Y-79171142D01*
X152377523Y-79218761D01*
X152472761Y-79266380D01*
X152758476Y-79266380D01*
X152853714Y-79218761D01*
X152901333Y-79171142D01*
X176666095Y-79520380D02*
X176666095Y-78520380D01*
X176285142Y-78520380D01*
X176189904Y-78568000D01*
X176142285Y-78615619D01*
X176094666Y-78710857D01*
X176094666Y-78853714D01*
X176142285Y-78948952D01*
X176189904Y-78996571D01*
X176285142Y-79044190D01*
X176666095Y-79044190D01*
X175237523Y-78853714D02*
X175237523Y-79520380D01*
X175475619Y-78472761D02*
X175713714Y-79187047D01*
X175094666Y-79187047D01*
X124342095Y-122192380D02*
X124342095Y-121192380D01*
X123961142Y-121192380D01*
X123865904Y-121240000D01*
X123818285Y-121287619D01*
X123770666Y-121382857D01*
X123770666Y-121525714D01*
X123818285Y-121620952D01*
X123865904Y-121668571D01*
X123961142Y-121716190D01*
X124342095Y-121716190D01*
X122865904Y-121192380D02*
X123342095Y-121192380D01*
X123389714Y-121668571D01*
X123342095Y-121620952D01*
X123246857Y-121573333D01*
X123008761Y-121573333D01*
X122913523Y-121620952D01*
X122865904Y-121668571D01*
X122818285Y-121763809D01*
X122818285Y-122001904D01*
X122865904Y-122097142D01*
X122913523Y-122144761D01*
X123008761Y-122192380D01*
X123246857Y-122192380D01*
X123342095Y-122144761D01*
X123389714Y-122097142D01*
X148726095Y-122192380D02*
X148726095Y-121192380D01*
X148345142Y-121192380D01*
X148249904Y-121240000D01*
X148202285Y-121287619D01*
X148154666Y-121382857D01*
X148154666Y-121525714D01*
X148202285Y-121620952D01*
X148249904Y-121668571D01*
X148345142Y-121716190D01*
X148726095Y-121716190D01*
X147297523Y-121192380D02*
X147488000Y-121192380D01*
X147583238Y-121240000D01*
X147630857Y-121287619D01*
X147726095Y-121430476D01*
X147773714Y-121620952D01*
X147773714Y-122001904D01*
X147726095Y-122097142D01*
X147678476Y-122144761D01*
X147583238Y-122192380D01*
X147392761Y-122192380D01*
X147297523Y-122144761D01*
X147249904Y-122097142D01*
X147202285Y-122001904D01*
X147202285Y-121763809D01*
X147249904Y-121668571D01*
X147297523Y-121620952D01*
X147392761Y-121573333D01*
X147583238Y-121573333D01*
X147678476Y-121620952D01*
X147726095Y-121668571D01*
X147773714Y-121763809D01*
X171586095Y-122192380D02*
X171586095Y-121192380D01*
X171205142Y-121192380D01*
X171109904Y-121240000D01*
X171062285Y-121287619D01*
X171014666Y-121382857D01*
X171014666Y-121525714D01*
X171062285Y-121620952D01*
X171109904Y-121668571D01*
X171205142Y-121716190D01*
X171586095Y-121716190D01*
X170681333Y-121192380D02*
X170014666Y-121192380D01*
X170443238Y-122192380D01*
D14*
X183842857Y-69921428D02*
X183985714Y-69850000D01*
X184128571Y-69707142D01*
X184342857Y-69492857D01*
X184485714Y-69421428D01*
X184628571Y-69421428D01*
X184557142Y-69778571D02*
X184700000Y-69707142D01*
X184842857Y-69564285D01*
X184914285Y-69278571D01*
X184914285Y-68778571D01*
X184842857Y-68492857D01*
X184700000Y-68350000D01*
X184557142Y-68278571D01*
X184271428Y-68278571D01*
X184128571Y-68350000D01*
X183985714Y-68492857D01*
X183914285Y-68778571D01*
X183914285Y-69278571D01*
X183985714Y-69564285D01*
X184128571Y-69707142D01*
X184271428Y-69778571D01*
X184557142Y-69778571D01*
X182485714Y-69778571D02*
X183342857Y-69778571D01*
X182914285Y-69778571D02*
X182914285Y-68278571D01*
X183057142Y-68492857D01*
X183200000Y-68635714D01*
X183342857Y-68707142D01*
X164592857Y-77546428D02*
X164735714Y-77475000D01*
X164878571Y-77332142D01*
X165092857Y-77117857D01*
X165235714Y-77046428D01*
X165378571Y-77046428D01*
X165307142Y-77403571D02*
X165450000Y-77332142D01*
X165592857Y-77189285D01*
X165664285Y-76903571D01*
X165664285Y-76403571D01*
X165592857Y-76117857D01*
X165450000Y-75975000D01*
X165307142Y-75903571D01*
X165021428Y-75903571D01*
X164878571Y-75975000D01*
X164735714Y-76117857D01*
X164664285Y-76403571D01*
X164664285Y-76903571D01*
X164735714Y-77189285D01*
X164878571Y-77332142D01*
X165021428Y-77403571D01*
X165307142Y-77403571D01*
X164164285Y-75903571D02*
X163235714Y-75903571D01*
X163735714Y-76475000D01*
X163521428Y-76475000D01*
X163378571Y-76546428D01*
X163307142Y-76617857D01*
X163235714Y-76760714D01*
X163235714Y-77117857D01*
X163307142Y-77260714D01*
X163378571Y-77332142D01*
X163521428Y-77403571D01*
X163950000Y-77403571D01*
X164092857Y-77332142D01*
X164164285Y-77260714D01*
X116942857Y-77221428D02*
X117085714Y-77150000D01*
X117228571Y-77007142D01*
X117442857Y-76792857D01*
X117585714Y-76721428D01*
X117728571Y-76721428D01*
X117657142Y-77078571D02*
X117800000Y-77007142D01*
X117942857Y-76864285D01*
X118014285Y-76578571D01*
X118014285Y-76078571D01*
X117942857Y-75792857D01*
X117800000Y-75650000D01*
X117657142Y-75578571D01*
X117371428Y-75578571D01*
X117228571Y-75650000D01*
X117085714Y-75792857D01*
X117014285Y-76078571D01*
X117014285Y-76578571D01*
X117085714Y-76864285D01*
X117228571Y-77007142D01*
X117371428Y-77078571D01*
X117657142Y-77078571D01*
X115728571Y-76078571D02*
X115728571Y-77078571D01*
X116085714Y-75507142D02*
X116442857Y-76578571D01*
X115514285Y-76578571D01*
D15*
X188474914Y-67313657D02*
X188474914Y-66399257D01*
X188257200Y-66399257D01*
X188126571Y-66442800D01*
X188039485Y-66529885D01*
X187995942Y-66616971D01*
X187952400Y-66791142D01*
X187952400Y-66921771D01*
X187995942Y-67095942D01*
X188039485Y-67183028D01*
X188126571Y-67270114D01*
X188257200Y-67313657D01*
X188474914Y-67313657D01*
X187604057Y-66486342D02*
X187560514Y-66442800D01*
X187473428Y-66399257D01*
X187255714Y-66399257D01*
X187168628Y-66442800D01*
X187125085Y-66486342D01*
X187081542Y-66573428D01*
X187081542Y-66660514D01*
X187125085Y-66791142D01*
X187647600Y-67313657D01*
X187081542Y-67313657D01*
D14*
X178178571Y-114185714D02*
X179250000Y-114185714D01*
X179464285Y-114114285D01*
X179607142Y-113971428D01*
X179678571Y-113757142D01*
X179678571Y-113614285D01*
X178321428Y-114828571D02*
X178250000Y-114900000D01*
X178178571Y-115042857D01*
X178178571Y-115400000D01*
X178250000Y-115542857D01*
X178321428Y-115614285D01*
X178464285Y-115685714D01*
X178607142Y-115685714D01*
X178821428Y-115614285D01*
X179678571Y-114757142D01*
X179678571Y-115685714D01*
X179678571Y-117114285D02*
X179678571Y-116257142D01*
X179678571Y-116685714D02*
X178178571Y-116685714D01*
X178392857Y-116542857D01*
X178535714Y-116400000D01*
X178607142Y-116257142D01*
M02*
