G04 #@! TF.GenerationSoftware,KiCad,Pcbnew,5.1.7-a382d34a8~87~ubuntu20.04.1*
G04 #@! TF.CreationDate,2020-11-27T04:13:02-03:00*
G04 #@! TF.ProjectId,robot uve,726f626f-7420-4757-9665-2e6b69636164,rev?*
G04 #@! TF.SameCoordinates,Original*
G04 #@! TF.FileFunction,Legend,Top*
G04 #@! TF.FilePolarity,Positive*
%FSLAX46Y46*%
G04 Gerber Fmt 4.6, Leading zero omitted, Abs format (unit mm)*
G04 Created by KiCad (PCBNEW 5.1.7-a382d34a8~87~ubuntu20.04.1) date 2020-11-27 04:13:02*
%MOMM*%
%LPD*%
G01*
G04 APERTURE LIST*
%ADD10C,0.254000*%
%ADD11C,0.304800*%
%ADD12C,0.010000*%
%ADD13C,0.150000*%
%ADD14C,0.300000*%
%ADD15C,0.381000*%
%ADD16C,0.378460*%
%ADD17C,0.508000*%
%ADD18C,0.203200*%
G04 APERTURE END LIST*
D10*
X174174000Y-73620000D02*
X174174000Y-71080000D01*
X173920000Y-71080000D02*
X173920000Y-73620000D01*
X170110000Y-71080000D02*
X170110000Y-73620000D01*
X175190000Y-71080000D02*
X175190000Y-73620000D01*
X170110000Y-71080000D02*
X175190000Y-71080000D01*
X175190000Y-73620000D02*
X170110000Y-73620000D01*
X176150000Y-72350000D02*
X175190000Y-72350000D01*
X170110000Y-72350000D02*
X169150000Y-72350000D01*
D11*
X196120000Y-132300000D02*
X193580000Y-132300000D01*
X193580000Y-122140000D02*
X196120000Y-122140000D01*
X196120000Y-122140000D02*
X196120000Y-132300000D01*
X193580000Y-132300000D02*
X193580000Y-122140000D01*
X196120000Y-124680000D02*
X193580000Y-124680000D01*
D12*
G36*
X131460865Y-84580123D02*
G01*
X132075329Y-84647973D01*
X132449001Y-84768915D01*
X132623815Y-84949501D01*
X132650724Y-85094543D01*
X132569622Y-85393920D01*
X132349912Y-85943642D01*
X132026987Y-86669658D01*
X131636243Y-87497920D01*
X131213074Y-88354376D01*
X130792875Y-89164976D01*
X130411039Y-89855670D01*
X130232245Y-90154348D01*
X129971272Y-90598381D01*
X129589785Y-91280133D01*
X129136836Y-92110586D01*
X128661475Y-93000723D01*
X128609494Y-93099275D01*
X128099188Y-94058231D01*
X127571581Y-95033079D01*
X127089144Y-95909327D01*
X126716662Y-96568476D01*
X126352416Y-97254637D01*
X126158238Y-97748719D01*
X126155208Y-97996889D01*
X126156727Y-97998466D01*
X126386008Y-98047088D01*
X126934471Y-98085233D01*
X127753298Y-98111567D01*
X128793667Y-98124756D01*
X130006760Y-98123467D01*
X130546801Y-98118396D01*
X131895813Y-98100245D01*
X132912366Y-98079775D01*
X133632120Y-98054171D01*
X134090731Y-98020616D01*
X134323859Y-97976295D01*
X134367160Y-97918392D01*
X134256294Y-97844090D01*
X134221460Y-97828202D01*
X133822911Y-97644992D01*
X133195205Y-97348041D01*
X132439760Y-96985559D01*
X131966749Y-96756371D01*
X130257971Y-95925179D01*
X130257971Y-94963169D01*
X130275238Y-94708325D01*
X130659580Y-94708325D01*
X130688868Y-95292238D01*
X130877449Y-95673400D01*
X131128318Y-95869082D01*
X131628797Y-96163763D01*
X132289253Y-96513529D01*
X133020052Y-96874464D01*
X133731562Y-97202654D01*
X134334151Y-97454184D01*
X134738186Y-97585139D01*
X134797227Y-97593862D01*
X134957827Y-97441031D01*
X135101113Y-97040750D01*
X135136110Y-96868896D01*
X135186054Y-96249253D01*
X135162535Y-95546469D01*
X135079455Y-94873398D01*
X134950716Y-94342894D01*
X134791129Y-94068398D01*
X134524209Y-94008337D01*
X133984422Y-93961303D01*
X133266966Y-93934222D01*
X132893944Y-93930354D01*
X132012143Y-93945633D01*
X131426714Y-94001783D01*
X131067192Y-94109004D01*
X130915321Y-94216770D01*
X130659580Y-94708325D01*
X130275238Y-94708325D01*
X130297985Y-94372609D01*
X130400220Y-93922248D01*
X130478840Y-93780290D01*
X130745843Y-93692500D01*
X131290881Y-93626020D01*
X132024443Y-93581747D01*
X132857015Y-93560576D01*
X133699083Y-93563405D01*
X134461135Y-93591128D01*
X135053657Y-93644643D01*
X135387137Y-93724846D01*
X135397774Y-93731042D01*
X135539526Y-93995887D01*
X135651934Y-94528567D01*
X135729078Y-95229546D01*
X135765039Y-95999290D01*
X135753897Y-96738263D01*
X135689733Y-97346931D01*
X135627644Y-97596041D01*
X135516124Y-97975693D01*
X135600708Y-98130121D01*
X135959956Y-98160696D01*
X136065372Y-98160869D01*
X136487387Y-98116418D01*
X136695415Y-98007324D01*
X136700000Y-97986367D01*
X136810425Y-97769698D01*
X137102195Y-97357261D01*
X137516054Y-96831893D01*
X137588738Y-96743976D01*
X138699220Y-95688274D01*
X140014190Y-94912294D01*
X141477263Y-94436033D01*
X143032057Y-94279490D01*
X144236826Y-94386043D01*
X144955610Y-94541520D01*
X145588161Y-94734119D01*
X145975273Y-94910051D01*
X146335451Y-95126914D01*
X146540625Y-95215942D01*
X146576883Y-95043152D01*
X146607130Y-94569826D01*
X146628649Y-93863529D01*
X146638719Y-92991825D01*
X146639130Y-92767971D01*
X146655647Y-91572486D01*
X146705807Y-90732603D01*
X146790525Y-90237262D01*
X146860000Y-90099130D01*
X147174149Y-89980937D01*
X147812540Y-89905711D01*
X148733280Y-89878295D01*
X148771142Y-89878261D01*
X149569208Y-89883924D01*
X150073970Y-89912375D01*
X150360194Y-89980803D01*
X150502648Y-90106399D01*
X150572396Y-90292391D01*
X150606450Y-90598250D01*
X150636530Y-91209051D01*
X150660904Y-92061626D01*
X150677842Y-93092808D01*
X150685613Y-94239430D01*
X150685892Y-94433695D01*
X150688406Y-98160869D01*
X151223090Y-98160869D01*
X151590647Y-98098957D01*
X151891680Y-97859257D01*
X152226608Y-97360830D01*
X152236442Y-97344084D01*
X153089391Y-96250502D01*
X154241351Y-95363135D01*
X155682114Y-94688467D01*
X157010916Y-94311631D01*
X158298199Y-94198161D01*
X159694233Y-94369745D01*
X161095450Y-94810719D01*
X161493896Y-94989604D01*
X162251412Y-95445123D01*
X163024275Y-96058388D01*
X163712202Y-96736368D01*
X164214908Y-97386030D01*
X164352874Y-97641849D01*
X164677765Y-98067410D01*
X164988437Y-98160869D01*
X165240933Y-98139591D01*
X165301959Y-98010343D01*
X165190516Y-97675004D01*
X165116948Y-97497169D01*
X164922902Y-97041761D01*
X164737560Y-96637164D01*
X164491188Y-96134413D01*
X164308695Y-95770613D01*
X164160914Y-95289373D01*
X164133749Y-95029509D01*
X164666325Y-95029509D01*
X164793830Y-95479388D01*
X164987614Y-95922233D01*
X165333081Y-96712855D01*
X165696368Y-97595766D01*
X165880699Y-98068840D01*
X166152727Y-98742441D01*
X166499387Y-99534630D01*
X166882482Y-100365755D01*
X167263819Y-101156163D01*
X167605203Y-101826204D01*
X167868439Y-102296226D01*
X167990354Y-102468325D01*
X168150882Y-102799977D01*
X168173913Y-102983188D01*
X168318758Y-103260446D01*
X168565036Y-103314493D01*
X168829688Y-103262719D01*
X168888361Y-103035766D01*
X168845724Y-102762319D01*
X168815487Y-102394203D01*
X169462319Y-102394203D01*
X169529663Y-102545703D01*
X169585024Y-102516908D01*
X169607052Y-102298474D01*
X169585024Y-102271497D01*
X169475602Y-102296763D01*
X169462319Y-102394203D01*
X168815487Y-102394203D01*
X168812512Y-102357992D01*
X168951472Y-102214282D01*
X169006775Y-102210145D01*
X169223944Y-102049872D01*
X169278261Y-101750000D01*
X169362923Y-101386099D01*
X169552793Y-101302537D01*
X169751697Y-101535767D01*
X169763874Y-101565942D01*
X169944540Y-101809503D01*
X170034185Y-101842029D01*
X170177814Y-101696399D01*
X170168728Y-101346419D01*
X170030811Y-100965256D01*
X169873399Y-100609691D01*
X169660225Y-100061855D01*
X169542989Y-99738766D01*
X169259817Y-99057642D01*
X168921566Y-98404624D01*
X168790439Y-98194603D01*
X168512498Y-97682182D01*
X168365111Y-97209942D01*
X168357971Y-97120368D01*
X168280514Y-96630090D01*
X168173992Y-96363807D01*
X167973386Y-95948228D01*
X167809177Y-95534743D01*
X167471119Y-95051392D01*
X166856930Y-94764651D01*
X165943501Y-94664107D01*
X165876260Y-94663768D01*
X165163738Y-94683729D01*
X164775027Y-94784966D01*
X164666325Y-95029509D01*
X164133749Y-95029509D01*
X164124637Y-94942352D01*
X164124637Y-94479710D01*
X166034709Y-94479710D01*
X166938880Y-94490496D01*
X167545557Y-94529437D01*
X167924907Y-94606409D01*
X168147100Y-94731288D01*
X168197390Y-94784086D01*
X168373206Y-95054577D01*
X168386189Y-95159375D01*
X168421399Y-95349922D01*
X168570102Y-95797905D01*
X168804050Y-96421024D01*
X168915696Y-96702177D01*
X169509015Y-98174065D01*
X171187994Y-98121453D01*
X172143658Y-98091506D01*
X173734724Y-98091506D01*
X173945935Y-98268564D01*
X174397103Y-98335267D01*
X174973195Y-98344927D01*
X175621010Y-98326277D01*
X176108922Y-98277286D01*
X176334845Y-98208393D01*
X176336920Y-98205482D01*
X176418317Y-97948068D01*
X176514143Y-97480308D01*
X176538932Y-97331207D01*
X176603737Y-96876431D01*
X176582265Y-96740250D01*
X176448110Y-96878043D01*
X176349134Y-97010507D01*
X176004778Y-97340754D01*
X175710762Y-97399795D01*
X175547635Y-97183071D01*
X175536232Y-97056522D01*
X175608168Y-96757354D01*
X175707886Y-96688406D01*
X175917903Y-96533868D01*
X176003829Y-96157876D01*
X175946361Y-95691862D01*
X175880494Y-95513179D01*
X175685474Y-95215942D01*
X176364493Y-95215942D01*
X176379086Y-95385548D01*
X176445659Y-95400000D01*
X176633089Y-95266390D01*
X176640580Y-95215942D01*
X176577782Y-95036669D01*
X176559413Y-95031884D01*
X176402270Y-95160860D01*
X176364493Y-95215942D01*
X175685474Y-95215942D01*
X175630297Y-95131845D01*
X175352128Y-95062834D01*
X175025294Y-95317924D01*
X174629098Y-95908899D01*
X174381869Y-96366304D01*
X173968587Y-97193565D01*
X173747573Y-97750903D01*
X173734724Y-98091506D01*
X172143658Y-98091506D01*
X172866973Y-98068840D01*
X173352121Y-97169598D01*
X173686009Y-96491286D01*
X173980237Y-95795184D01*
X174080843Y-95513076D01*
X174273563Y-95013977D01*
X174463213Y-94674982D01*
X174516194Y-94620572D01*
X174773293Y-94562330D01*
X175308108Y-94516051D01*
X176030280Y-94487997D01*
X176508313Y-94482528D01*
X177408148Y-94495792D01*
X177991645Y-94543317D01*
X178309534Y-94631653D01*
X178403656Y-94727281D01*
X178370786Y-94993694D01*
X178203369Y-95500985D01*
X177932529Y-96161303D01*
X177767839Y-96521846D01*
X177037021Y-98068840D01*
X177897133Y-98164148D01*
X178576670Y-98265731D01*
X178999700Y-98426510D01*
X179181181Y-98700719D01*
X179136074Y-99142592D01*
X178879336Y-99806365D01*
X178543859Y-100508853D01*
X178083255Y-101359979D01*
X177650554Y-101926664D01*
X177163886Y-102275833D01*
X176541381Y-102474413D01*
X176044387Y-102552107D01*
X175076087Y-102670290D01*
X174339855Y-104169106D01*
X173912786Y-105028891D01*
X173583690Y-105613225D01*
X173284652Y-105975277D01*
X172947762Y-106168218D01*
X172505106Y-106245217D01*
X171888772Y-106259444D01*
X171669944Y-106259420D01*
X170849391Y-106232538D01*
X170349925Y-106120934D01*
X170126517Y-105878171D01*
X170128155Y-105787736D01*
X170708720Y-105787736D01*
X170710499Y-105789726D01*
X170939137Y-105848930D01*
X171406816Y-105885541D01*
X171710057Y-105891304D01*
X172356232Y-105841888D01*
X172801094Y-105658443D01*
X173059815Y-105439525D01*
X173367776Y-105057398D01*
X173510401Y-104734214D01*
X173511594Y-104713033D01*
X173593900Y-104401925D01*
X173804462Y-103906406D01*
X173971739Y-103572905D01*
X174230848Y-103058228D01*
X174397743Y-102674181D01*
X174431884Y-102550958D01*
X174270986Y-102446524D01*
X173879073Y-102402095D01*
X173833695Y-102402238D01*
X173212379Y-102373130D01*
X172580472Y-102294069D01*
X172154432Y-102245686D01*
X171907234Y-102352459D01*
X171708067Y-102695303D01*
X171626224Y-102884332D01*
X171317518Y-103656298D01*
X171045937Y-104413455D01*
X170836959Y-105074969D01*
X170716061Y-105560008D01*
X170708720Y-105787736D01*
X170128155Y-105787736D01*
X170134134Y-105457812D01*
X170311823Y-104858909D01*
X170498738Y-104280011D01*
X170521583Y-104015260D01*
X170351881Y-104036569D01*
X169961155Y-104315851D01*
X169849962Y-104403374D01*
X169237073Y-104822291D01*
X168788406Y-104941534D01*
X168444176Y-104753543D01*
X168144597Y-104250759D01*
X168115286Y-104184020D01*
X168067270Y-104070417D01*
X168726087Y-104070417D01*
X168875455Y-104216328D01*
X169002174Y-104234782D01*
X169246260Y-104090407D01*
X169278261Y-103964472D01*
X169156309Y-103778785D01*
X169002174Y-103800106D01*
X168758613Y-103980772D01*
X168726087Y-104070417D01*
X168067270Y-104070417D01*
X167864458Y-103590580D01*
X169462319Y-103590580D01*
X169554348Y-103682608D01*
X169646377Y-103590580D01*
X169554348Y-103498551D01*
X169462319Y-103590580D01*
X167864458Y-103590580D01*
X167847041Y-103549373D01*
X167632669Y-103098136D01*
X167406759Y-102800429D01*
X167103903Y-102626372D01*
X166658692Y-102546086D01*
X166005717Y-102529690D01*
X165079569Y-102547306D01*
X164556582Y-102558363D01*
X163595547Y-102579928D01*
X162774904Y-102604808D01*
X162160322Y-102630504D01*
X161817470Y-102654516D01*
X161768931Y-102664453D01*
X161893981Y-102750382D01*
X162274213Y-102914066D01*
X162643207Y-103053056D01*
X163249530Y-103323680D01*
X163537374Y-103621372D01*
X163553684Y-104017622D01*
X163464077Y-104303067D01*
X163216965Y-104601330D01*
X162716450Y-104984216D01*
X162049988Y-105397331D01*
X161305034Y-105786281D01*
X160596134Y-106086840D01*
X159399206Y-106366710D01*
X158036194Y-106428496D01*
X156630201Y-106281885D01*
X155304331Y-105936564D01*
X154544879Y-105610696D01*
X154094115Y-105306648D01*
X153543120Y-104836793D01*
X152978134Y-104287607D01*
X152485398Y-103745566D01*
X152151155Y-103297149D01*
X152067655Y-103126698D01*
X151796137Y-102816401D01*
X151285131Y-102619659D01*
X150918478Y-102580774D01*
X150792762Y-102705324D01*
X150718459Y-103108561D01*
X150689358Y-103829835D01*
X150688406Y-104038742D01*
X150664880Y-104805516D01*
X150602749Y-105487096D01*
X150514680Y-105951851D01*
X150500210Y-105994215D01*
X150395712Y-106234197D01*
X150252251Y-106375994D01*
X149987712Y-106439190D01*
X149519982Y-106443368D01*
X148766946Y-106408111D01*
X148765112Y-106408014D01*
X148001312Y-106342509D01*
X147373201Y-106241553D01*
X146983931Y-106122949D01*
X146935590Y-106092270D01*
X146777880Y-105835897D01*
X146673217Y-105340858D01*
X146611297Y-104551021D01*
X146600037Y-104264004D01*
X146547101Y-102670290D01*
X144062319Y-102627612D01*
X143073856Y-102613820D01*
X142408679Y-102615753D01*
X142022113Y-102638343D01*
X141869486Y-102686522D01*
X141906125Y-102765224D01*
X142037681Y-102851162D01*
X142524053Y-103010368D01*
X143269306Y-103104954D01*
X143803719Y-103123912D01*
X144535548Y-103145276D01*
X145032975Y-103243424D01*
X145398140Y-103482674D01*
X145733181Y-103927344D01*
X146101263Y-104570689D01*
X146538375Y-105366740D01*
X146082593Y-105716958D01*
X145659669Y-105969907D01*
X145315572Y-106071269D01*
X144982333Y-106171418D01*
X144890580Y-106259420D01*
X144655935Y-106351790D01*
X144151630Y-106410829D01*
X143474547Y-106437181D01*
X142721572Y-106431488D01*
X141989588Y-106394391D01*
X141375480Y-106326533D01*
X140988008Y-106233554D01*
X140117581Y-105866463D01*
X139484191Y-105560807D01*
X138977790Y-105255376D01*
X138488333Y-104888960D01*
X138314557Y-104746541D01*
X137757093Y-104216708D01*
X137261272Y-103633917D01*
X137038273Y-103300744D01*
X136673605Y-102788720D01*
X136308419Y-102586607D01*
X136205962Y-102578261D01*
X135999430Y-102596883D01*
X135873365Y-102701258D01*
X135807942Y-102964144D01*
X135783338Y-103458301D01*
X135779710Y-104142753D01*
X135764744Y-105007093D01*
X135684277Y-105622511D01*
X135484953Y-106031222D01*
X135113417Y-106275435D01*
X134516313Y-106397363D01*
X133640286Y-106439216D01*
X132871594Y-106443478D01*
X131729792Y-106422844D01*
X130948609Y-106361082D01*
X130530349Y-106258405D01*
X130478840Y-106222608D01*
X130359981Y-105909770D01*
X130284265Y-105282455D01*
X130257971Y-104401721D01*
X130257763Y-104388591D01*
X130683791Y-104388591D01*
X130712141Y-104998571D01*
X130787752Y-105385145D01*
X130985092Y-105891304D01*
X135056356Y-105891304D01*
X135003902Y-104004710D01*
X134957330Y-102329625D01*
X137146418Y-102329625D01*
X137174854Y-102654959D01*
X137446198Y-103148151D01*
X137591461Y-103364621D01*
X138550990Y-104444498D01*
X139740642Y-105261134D01*
X141112431Y-105792460D01*
X142618371Y-106016408D01*
X143343839Y-106010078D01*
X144132019Y-105928762D01*
X144839801Y-105792665D01*
X145322462Y-105629832D01*
X145706591Y-105405865D01*
X145898059Y-105244603D01*
X145902898Y-105229135D01*
X145817358Y-105025931D01*
X145598547Y-104616144D01*
X145425264Y-104313572D01*
X145128196Y-103839046D01*
X144867207Y-103597413D01*
X144502574Y-103510108D01*
X143975807Y-103498551D01*
X142999502Y-103459284D01*
X142268377Y-103318133D01*
X141665620Y-103040072D01*
X141142304Y-102648914D01*
X140771045Y-102347025D01*
X140450836Y-102162820D01*
X140073832Y-102067278D01*
X139532187Y-102031382D01*
X138827646Y-102026087D01*
X137941905Y-102048657D01*
X137391799Y-102138681D01*
X137146418Y-102329625D01*
X134957330Y-102329625D01*
X134951449Y-102118116D01*
X133034814Y-102065331D01*
X132225528Y-102056930D01*
X131554677Y-102075954D01*
X131106600Y-102118481D01*
X130969350Y-102161374D01*
X130851121Y-102455419D01*
X130759783Y-103001588D01*
X130701839Y-103684455D01*
X130683791Y-104388591D01*
X130257763Y-104388591D01*
X130245142Y-103595314D01*
X130198785Y-103086971D01*
X130107094Y-102807279D01*
X129966830Y-102689982D01*
X129710162Y-102659937D01*
X129137453Y-102632948D01*
X128300776Y-102610152D01*
X127252202Y-102592687D01*
X126043802Y-102581690D01*
X124850019Y-102578261D01*
X123243765Y-102572855D01*
X121978734Y-102555859D01*
X121028181Y-102526100D01*
X120365360Y-102482410D01*
X119963526Y-102423616D01*
X119803478Y-102357391D01*
X119687667Y-102040941D01*
X119613739Y-101374851D01*
X119585956Y-100461594D01*
X120502898Y-100461594D01*
X120594927Y-100553623D01*
X120686956Y-100461594D01*
X120594927Y-100369565D01*
X120502898Y-100461594D01*
X119585956Y-100461594D01*
X119583333Y-100375393D01*
X119582609Y-100162828D01*
X119582609Y-99449275D01*
X120531960Y-99449275D01*
X120560885Y-99710569D01*
X120624796Y-99679348D01*
X120629743Y-99602657D01*
X121239130Y-99602657D01*
X121264758Y-100380736D01*
X121335798Y-100854677D01*
X121443487Y-101007247D01*
X121579060Y-100821212D01*
X121685722Y-100480821D01*
X121835320Y-100050623D01*
X121989455Y-99826536D01*
X122018686Y-99817391D01*
X122098218Y-99702705D01*
X122067391Y-99633333D01*
X122111099Y-99477400D01*
X122251449Y-99449275D01*
X122450744Y-99545236D01*
X122419367Y-99679348D01*
X122364635Y-99817105D01*
X122529352Y-99686890D01*
X122535482Y-99681211D01*
X122775677Y-99320497D01*
X122825816Y-99150995D01*
X122803620Y-98962192D01*
X122676410Y-99042720D01*
X122369687Y-99173619D01*
X122137735Y-99023585D01*
X122109198Y-98701156D01*
X122105955Y-98436715D01*
X121845730Y-98348193D01*
X121720742Y-98344927D01*
X121466868Y-98362106D01*
X121322836Y-98467811D01*
X121257533Y-98743295D01*
X121239845Y-99269811D01*
X121239130Y-99602657D01*
X120629743Y-99602657D01*
X120649106Y-99302517D01*
X120624796Y-99219203D01*
X120557617Y-99196081D01*
X120531960Y-99449275D01*
X119582609Y-99449275D01*
X119582609Y-98189135D01*
X119915785Y-97593357D01*
X120871014Y-97593357D01*
X120987938Y-97909765D01*
X121160597Y-97976811D01*
X121381741Y-97838814D01*
X121389043Y-97700724D01*
X122343478Y-97700724D01*
X122490810Y-97944743D01*
X122619565Y-97976811D01*
X122864504Y-98076197D01*
X122895652Y-98160869D01*
X122957338Y-98340147D01*
X122975371Y-98344927D01*
X122981154Y-98326787D01*
X137155594Y-98326787D01*
X137173962Y-98367284D01*
X137391671Y-98440796D01*
X137885613Y-98496833D01*
X138564004Y-98526485D01*
X138839810Y-98528985D01*
X139633439Y-98517562D01*
X140167796Y-98467242D01*
X140551425Y-98353949D01*
X140892869Y-98153608D01*
X141047808Y-98039242D01*
X141054110Y-98035705D01*
X141788954Y-98035705D01*
X141959289Y-98104525D01*
X142384015Y-98143676D01*
X143110128Y-98159578D01*
X143510145Y-98160869D01*
X144374827Y-98152715D01*
X144918661Y-98123970D01*
X145188643Y-98068216D01*
X145231768Y-97979031D01*
X145194275Y-97930797D01*
X144864054Y-97799267D01*
X144217797Y-97720793D01*
X143510145Y-97700724D01*
X142647438Y-97732163D01*
X142061640Y-97822002D01*
X141826014Y-97930797D01*
X141788954Y-98035705D01*
X141054110Y-98035705D01*
X141969756Y-97521827D01*
X143000877Y-97246610D01*
X144041580Y-97220380D01*
X144992277Y-97449929D01*
X145508676Y-97735066D01*
X145866879Y-98099115D01*
X146261186Y-98652642D01*
X146483043Y-99041041D01*
X146670435Y-99434458D01*
X146808181Y-99819165D01*
X146907893Y-100268050D01*
X146981186Y-100853996D01*
X147039674Y-101649890D01*
X147094970Y-102728617D01*
X147104775Y-102942872D01*
X147238392Y-105891304D01*
X150320290Y-105891304D01*
X150353653Y-103636594D01*
X150361770Y-102776929D01*
X150362311Y-102572370D01*
X152344927Y-102572370D01*
X152489789Y-102979590D01*
X152876541Y-103509350D01*
X153433437Y-104091471D01*
X154088730Y-104655774D01*
X154770672Y-105132080D01*
X155197826Y-105362912D01*
X155764917Y-105605340D01*
X156274604Y-105757969D01*
X156845199Y-105841470D01*
X157595013Y-105876517D01*
X158173509Y-105882858D01*
X159181816Y-105867382D01*
X159925144Y-105801774D01*
X160504738Y-105673170D01*
X160861294Y-105541333D01*
X161430687Y-105245745D01*
X161998751Y-104867909D01*
X162488689Y-104471063D01*
X162823705Y-104118448D01*
X162927003Y-103873304D01*
X162917022Y-103848482D01*
X162706451Y-103686457D01*
X162264763Y-103435102D01*
X161811764Y-103208742D01*
X160808578Y-102734159D01*
X160190173Y-103116355D01*
X159668324Y-103356302D01*
X159018812Y-103474072D01*
X158341960Y-103498551D01*
X157329654Y-103428941D01*
X156559114Y-103195097D01*
X155926487Y-102759494D01*
X155715922Y-102549734D01*
X155695361Y-102530775D01*
X156762608Y-102530775D01*
X156818304Y-102681359D01*
X157027859Y-102869396D01*
X157482897Y-103043014D01*
X158137871Y-103119162D01*
X158837222Y-103095934D01*
X159425390Y-102971426D01*
X159581303Y-102900674D01*
X159735077Y-102787204D01*
X159691328Y-102707266D01*
X159401076Y-102646592D01*
X158815339Y-102590915D01*
X158418840Y-102562053D01*
X157698593Y-102521145D01*
X157129956Y-102506134D01*
X156803733Y-102518736D01*
X156762608Y-102530775D01*
X155695361Y-102530775D01*
X155482510Y-102334510D01*
X155216206Y-102211383D01*
X154819663Y-102161179D01*
X154195533Y-102164725D01*
X153829328Y-102178146D01*
X153085573Y-102218293D01*
X152638304Y-102277341D01*
X152415890Y-102374314D01*
X152346700Y-102528233D01*
X152344927Y-102572370D01*
X150362311Y-102572370D01*
X150364595Y-101710061D01*
X150362670Y-100485352D01*
X150356539Y-99152164D01*
X150350055Y-98230570D01*
X152382581Y-98230570D01*
X152435489Y-98312784D01*
X152666670Y-98371442D01*
X153167620Y-98415159D01*
X153840064Y-98436157D01*
X154004702Y-98436956D01*
X154760151Y-98424240D01*
X155255882Y-98368798D01*
X155599909Y-98244695D01*
X155900246Y-98025993D01*
X155905137Y-98021626D01*
X156578261Y-98021626D01*
X156743453Y-98095717D01*
X157166096Y-98139973D01*
X157736785Y-98155024D01*
X158346117Y-98141503D01*
X158884690Y-98100041D01*
X159243100Y-98031270D01*
X159298339Y-98005917D01*
X159378403Y-97853207D01*
X159125968Y-97671859D01*
X159059606Y-97640619D01*
X158613026Y-97478895D01*
X158315252Y-97424637D01*
X157934752Y-97478989D01*
X157444952Y-97612703D01*
X156973902Y-97781769D01*
X156649653Y-97942179D01*
X156578261Y-98021626D01*
X155905137Y-98021626D01*
X155967987Y-97965519D01*
X156892048Y-97348267D01*
X157902539Y-97070566D01*
X158943436Y-97140600D01*
X159699078Y-97420471D01*
X160216446Y-97757082D01*
X160661800Y-98172718D01*
X160989772Y-98599864D01*
X161154998Y-98971009D01*
X161112110Y-99218641D01*
X160949637Y-99281497D01*
X160676701Y-99285536D01*
X160126284Y-99283336D01*
X159388961Y-99275492D01*
X158852390Y-99267652D01*
X158059825Y-99270632D01*
X157412410Y-99302709D01*
X156993283Y-99358049D01*
X156881147Y-99405912D01*
X156896805Y-99657340D01*
X157058559Y-100092558D01*
X157157902Y-100294032D01*
X157408560Y-100765319D01*
X157628612Y-101113392D01*
X157875914Y-101356888D01*
X158208327Y-101514444D01*
X158683707Y-101604697D01*
X159359915Y-101646284D01*
X160294808Y-101657841D01*
X161392295Y-101657971D01*
X164676811Y-101657971D01*
X164676811Y-100426286D01*
X164655866Y-99741639D01*
X164563435Y-99214656D01*
X164355129Y-98695131D01*
X163986559Y-98032859D01*
X163952510Y-97975420D01*
X162990333Y-96688819D01*
X161806718Y-95696159D01*
X160464036Y-95019906D01*
X159196865Y-94714260D01*
X157810335Y-94664822D01*
X156438993Y-94864309D01*
X155220946Y-95303637D01*
X154477069Y-95745891D01*
X153774606Y-96278659D01*
X153163741Y-96847725D01*
X152694659Y-97398875D01*
X152417544Y-97877895D01*
X152382581Y-98230570D01*
X150350055Y-98230570D01*
X150346743Y-97759857D01*
X150333826Y-96357793D01*
X150318329Y-94995334D01*
X150300796Y-93721841D01*
X150281769Y-92586675D01*
X150261791Y-91639197D01*
X150241404Y-90928769D01*
X150221151Y-90504753D01*
X150208214Y-90405932D01*
X149982836Y-90302294D01*
X149510018Y-90212390D01*
X148910427Y-90147741D01*
X148304733Y-90119869D01*
X147813605Y-90140294D01*
X147677352Y-90164293D01*
X147191304Y-90286283D01*
X147188486Y-92889156D01*
X147178696Y-94073460D01*
X147144276Y-94927222D01*
X147073226Y-95487797D01*
X146953545Y-95792543D01*
X146773231Y-95878815D01*
X146520286Y-95783970D01*
X146305280Y-95638495D01*
X145439190Y-95112540D01*
X144507163Y-94801845D01*
X143391775Y-94672483D01*
X142931452Y-94663768D01*
X142069081Y-94690161D01*
X141401611Y-94792498D01*
X140758141Y-95005517D01*
X140331103Y-95192306D01*
X139588953Y-95585074D01*
X138854534Y-96054546D01*
X138413576Y-96393576D01*
X137882413Y-96928013D01*
X137460769Y-97483969D01*
X137201033Y-97978032D01*
X137155594Y-98326787D01*
X122981154Y-98326787D01*
X123026464Y-98184660D01*
X123039506Y-97797702D01*
X123039138Y-97783906D01*
X122976684Y-97391749D01*
X122802109Y-97310507D01*
X122760308Y-97323761D01*
X122480454Y-97414488D01*
X122420453Y-97424637D01*
X122351990Y-97574906D01*
X122343478Y-97700724D01*
X121389043Y-97700724D01*
X121390670Y-97669962D01*
X121236966Y-97363156D01*
X121024296Y-97294605D01*
X120881175Y-97483255D01*
X120871014Y-97593357D01*
X119915785Y-97593357D01*
X120364855Y-96790341D01*
X120759591Y-96083572D01*
X121117440Y-95441255D01*
X121375954Y-94975523D01*
X121423364Y-94889614D01*
X121452682Y-94836963D01*
X123631884Y-94836963D01*
X123765494Y-95024393D01*
X123815942Y-95031884D01*
X123995214Y-94969086D01*
X124000000Y-94950717D01*
X123915552Y-94847826D01*
X124460145Y-94847826D01*
X124501871Y-95005398D01*
X124633340Y-95031884D01*
X124874510Y-94939855D01*
X125840580Y-94939855D01*
X125939966Y-95184794D01*
X126024637Y-95215942D01*
X126187930Y-95066863D01*
X126208695Y-94939855D01*
X126109309Y-94694916D01*
X126024637Y-94663768D01*
X125861345Y-94812847D01*
X125840580Y-94939855D01*
X124874510Y-94939855D01*
X124885171Y-94935787D01*
X124920290Y-94847826D01*
X124788186Y-94669036D01*
X124747094Y-94663768D01*
X124497818Y-94797559D01*
X124460145Y-94847826D01*
X123915552Y-94847826D01*
X123871024Y-94793574D01*
X123815942Y-94755797D01*
X123646335Y-94770390D01*
X123631884Y-94836963D01*
X121452682Y-94836963D01*
X121678650Y-94431164D01*
X122094719Y-93690650D01*
X122147942Y-93596294D01*
X123635977Y-93596294D01*
X123714098Y-93665233D01*
X123895034Y-93503815D01*
X124109715Y-93207208D01*
X124289075Y-92870582D01*
X124364023Y-92593116D01*
X124326126Y-92319517D01*
X124280813Y-92271014D01*
X124135310Y-92420698D01*
X123934363Y-92775466D01*
X123746787Y-93193890D01*
X123641395Y-93534543D01*
X123635977Y-93596294D01*
X122147942Y-93596294D01*
X122650195Y-92705891D01*
X123112886Y-91887560D01*
X124552174Y-91887560D01*
X124702366Y-92060870D01*
X124848398Y-92086956D01*
X125038511Y-92164564D01*
X125087595Y-92455799D01*
X125059564Y-92777174D01*
X125047347Y-93402601D01*
X125150097Y-93926777D01*
X125339811Y-94245566D01*
X125467908Y-94295652D01*
X125596201Y-94134747D01*
X125598067Y-94122457D01*
X126392753Y-94122457D01*
X126463608Y-94376957D01*
X126576811Y-94387681D01*
X126746168Y-94121372D01*
X126760869Y-94008702D01*
X126657959Y-93770817D01*
X126576811Y-93743478D01*
X126428713Y-93898099D01*
X126392753Y-94122457D01*
X125598067Y-94122457D01*
X125655716Y-93742819D01*
X125656236Y-93697464D01*
X125608432Y-93375362D01*
X126760869Y-93375362D01*
X126900933Y-93554072D01*
X126944927Y-93559420D01*
X127123637Y-93419357D01*
X127128985Y-93375362D01*
X126988922Y-93196653D01*
X126944927Y-93191304D01*
X126766218Y-93331368D01*
X126760869Y-93375362D01*
X125608432Y-93375362D01*
X125575036Y-93150343D01*
X125370432Y-92562510D01*
X125100222Y-92062060D01*
X124822204Y-91777087D01*
X124782246Y-91760477D01*
X124573680Y-91810387D01*
X124552174Y-91887560D01*
X123112886Y-91887560D01*
X123323700Y-91514709D01*
X123625071Y-90982608D01*
X124644203Y-90982608D01*
X124658796Y-91152215D01*
X124725369Y-91166666D01*
X124912799Y-91033057D01*
X124920290Y-90982608D01*
X124857492Y-90803336D01*
X124839123Y-90798551D01*
X124681980Y-90927527D01*
X124644203Y-90982608D01*
X123625071Y-90982608D01*
X124093856Y-90154924D01*
X124616160Y-89234058D01*
X129705797Y-89234058D01*
X129797826Y-89326087D01*
X129889855Y-89234058D01*
X129797826Y-89142029D01*
X129705797Y-89234058D01*
X124616160Y-89234058D01*
X124939288Y-88664357D01*
X125260285Y-88099034D01*
X127006280Y-88099034D01*
X127031546Y-88208456D01*
X127128985Y-88221739D01*
X127280486Y-88154395D01*
X127251691Y-88099034D01*
X127033257Y-88077005D01*
X127006280Y-88099034D01*
X125260285Y-88099034D01*
X125556398Y-87577536D01*
X127229301Y-84632608D01*
X129341824Y-84577485D01*
X130563675Y-84558811D01*
X131460865Y-84580123D01*
G37*
X131460865Y-84580123D02*
X132075329Y-84647973D01*
X132449001Y-84768915D01*
X132623815Y-84949501D01*
X132650724Y-85094543D01*
X132569622Y-85393920D01*
X132349912Y-85943642D01*
X132026987Y-86669658D01*
X131636243Y-87497920D01*
X131213074Y-88354376D01*
X130792875Y-89164976D01*
X130411039Y-89855670D01*
X130232245Y-90154348D01*
X129971272Y-90598381D01*
X129589785Y-91280133D01*
X129136836Y-92110586D01*
X128661475Y-93000723D01*
X128609494Y-93099275D01*
X128099188Y-94058231D01*
X127571581Y-95033079D01*
X127089144Y-95909327D01*
X126716662Y-96568476D01*
X126352416Y-97254637D01*
X126158238Y-97748719D01*
X126155208Y-97996889D01*
X126156727Y-97998466D01*
X126386008Y-98047088D01*
X126934471Y-98085233D01*
X127753298Y-98111567D01*
X128793667Y-98124756D01*
X130006760Y-98123467D01*
X130546801Y-98118396D01*
X131895813Y-98100245D01*
X132912366Y-98079775D01*
X133632120Y-98054171D01*
X134090731Y-98020616D01*
X134323859Y-97976295D01*
X134367160Y-97918392D01*
X134256294Y-97844090D01*
X134221460Y-97828202D01*
X133822911Y-97644992D01*
X133195205Y-97348041D01*
X132439760Y-96985559D01*
X131966749Y-96756371D01*
X130257971Y-95925179D01*
X130257971Y-94963169D01*
X130275238Y-94708325D01*
X130659580Y-94708325D01*
X130688868Y-95292238D01*
X130877449Y-95673400D01*
X131128318Y-95869082D01*
X131628797Y-96163763D01*
X132289253Y-96513529D01*
X133020052Y-96874464D01*
X133731562Y-97202654D01*
X134334151Y-97454184D01*
X134738186Y-97585139D01*
X134797227Y-97593862D01*
X134957827Y-97441031D01*
X135101113Y-97040750D01*
X135136110Y-96868896D01*
X135186054Y-96249253D01*
X135162535Y-95546469D01*
X135079455Y-94873398D01*
X134950716Y-94342894D01*
X134791129Y-94068398D01*
X134524209Y-94008337D01*
X133984422Y-93961303D01*
X133266966Y-93934222D01*
X132893944Y-93930354D01*
X132012143Y-93945633D01*
X131426714Y-94001783D01*
X131067192Y-94109004D01*
X130915321Y-94216770D01*
X130659580Y-94708325D01*
X130275238Y-94708325D01*
X130297985Y-94372609D01*
X130400220Y-93922248D01*
X130478840Y-93780290D01*
X130745843Y-93692500D01*
X131290881Y-93626020D01*
X132024443Y-93581747D01*
X132857015Y-93560576D01*
X133699083Y-93563405D01*
X134461135Y-93591128D01*
X135053657Y-93644643D01*
X135387137Y-93724846D01*
X135397774Y-93731042D01*
X135539526Y-93995887D01*
X135651934Y-94528567D01*
X135729078Y-95229546D01*
X135765039Y-95999290D01*
X135753897Y-96738263D01*
X135689733Y-97346931D01*
X135627644Y-97596041D01*
X135516124Y-97975693D01*
X135600708Y-98130121D01*
X135959956Y-98160696D01*
X136065372Y-98160869D01*
X136487387Y-98116418D01*
X136695415Y-98007324D01*
X136700000Y-97986367D01*
X136810425Y-97769698D01*
X137102195Y-97357261D01*
X137516054Y-96831893D01*
X137588738Y-96743976D01*
X138699220Y-95688274D01*
X140014190Y-94912294D01*
X141477263Y-94436033D01*
X143032057Y-94279490D01*
X144236826Y-94386043D01*
X144955610Y-94541520D01*
X145588161Y-94734119D01*
X145975273Y-94910051D01*
X146335451Y-95126914D01*
X146540625Y-95215942D01*
X146576883Y-95043152D01*
X146607130Y-94569826D01*
X146628649Y-93863529D01*
X146638719Y-92991825D01*
X146639130Y-92767971D01*
X146655647Y-91572486D01*
X146705807Y-90732603D01*
X146790525Y-90237262D01*
X146860000Y-90099130D01*
X147174149Y-89980937D01*
X147812540Y-89905711D01*
X148733280Y-89878295D01*
X148771142Y-89878261D01*
X149569208Y-89883924D01*
X150073970Y-89912375D01*
X150360194Y-89980803D01*
X150502648Y-90106399D01*
X150572396Y-90292391D01*
X150606450Y-90598250D01*
X150636530Y-91209051D01*
X150660904Y-92061626D01*
X150677842Y-93092808D01*
X150685613Y-94239430D01*
X150685892Y-94433695D01*
X150688406Y-98160869D01*
X151223090Y-98160869D01*
X151590647Y-98098957D01*
X151891680Y-97859257D01*
X152226608Y-97360830D01*
X152236442Y-97344084D01*
X153089391Y-96250502D01*
X154241351Y-95363135D01*
X155682114Y-94688467D01*
X157010916Y-94311631D01*
X158298199Y-94198161D01*
X159694233Y-94369745D01*
X161095450Y-94810719D01*
X161493896Y-94989604D01*
X162251412Y-95445123D01*
X163024275Y-96058388D01*
X163712202Y-96736368D01*
X164214908Y-97386030D01*
X164352874Y-97641849D01*
X164677765Y-98067410D01*
X164988437Y-98160869D01*
X165240933Y-98139591D01*
X165301959Y-98010343D01*
X165190516Y-97675004D01*
X165116948Y-97497169D01*
X164922902Y-97041761D01*
X164737560Y-96637164D01*
X164491188Y-96134413D01*
X164308695Y-95770613D01*
X164160914Y-95289373D01*
X164133749Y-95029509D01*
X164666325Y-95029509D01*
X164793830Y-95479388D01*
X164987614Y-95922233D01*
X165333081Y-96712855D01*
X165696368Y-97595766D01*
X165880699Y-98068840D01*
X166152727Y-98742441D01*
X166499387Y-99534630D01*
X166882482Y-100365755D01*
X167263819Y-101156163D01*
X167605203Y-101826204D01*
X167868439Y-102296226D01*
X167990354Y-102468325D01*
X168150882Y-102799977D01*
X168173913Y-102983188D01*
X168318758Y-103260446D01*
X168565036Y-103314493D01*
X168829688Y-103262719D01*
X168888361Y-103035766D01*
X168845724Y-102762319D01*
X168815487Y-102394203D01*
X169462319Y-102394203D01*
X169529663Y-102545703D01*
X169585024Y-102516908D01*
X169607052Y-102298474D01*
X169585024Y-102271497D01*
X169475602Y-102296763D01*
X169462319Y-102394203D01*
X168815487Y-102394203D01*
X168812512Y-102357992D01*
X168951472Y-102214282D01*
X169006775Y-102210145D01*
X169223944Y-102049872D01*
X169278261Y-101750000D01*
X169362923Y-101386099D01*
X169552793Y-101302537D01*
X169751697Y-101535767D01*
X169763874Y-101565942D01*
X169944540Y-101809503D01*
X170034185Y-101842029D01*
X170177814Y-101696399D01*
X170168728Y-101346419D01*
X170030811Y-100965256D01*
X169873399Y-100609691D01*
X169660225Y-100061855D01*
X169542989Y-99738766D01*
X169259817Y-99057642D01*
X168921566Y-98404624D01*
X168790439Y-98194603D01*
X168512498Y-97682182D01*
X168365111Y-97209942D01*
X168357971Y-97120368D01*
X168280514Y-96630090D01*
X168173992Y-96363807D01*
X167973386Y-95948228D01*
X167809177Y-95534743D01*
X167471119Y-95051392D01*
X166856930Y-94764651D01*
X165943501Y-94664107D01*
X165876260Y-94663768D01*
X165163738Y-94683729D01*
X164775027Y-94784966D01*
X164666325Y-95029509D01*
X164133749Y-95029509D01*
X164124637Y-94942352D01*
X164124637Y-94479710D01*
X166034709Y-94479710D01*
X166938880Y-94490496D01*
X167545557Y-94529437D01*
X167924907Y-94606409D01*
X168147100Y-94731288D01*
X168197390Y-94784086D01*
X168373206Y-95054577D01*
X168386189Y-95159375D01*
X168421399Y-95349922D01*
X168570102Y-95797905D01*
X168804050Y-96421024D01*
X168915696Y-96702177D01*
X169509015Y-98174065D01*
X171187994Y-98121453D01*
X172143658Y-98091506D01*
X173734724Y-98091506D01*
X173945935Y-98268564D01*
X174397103Y-98335267D01*
X174973195Y-98344927D01*
X175621010Y-98326277D01*
X176108922Y-98277286D01*
X176334845Y-98208393D01*
X176336920Y-98205482D01*
X176418317Y-97948068D01*
X176514143Y-97480308D01*
X176538932Y-97331207D01*
X176603737Y-96876431D01*
X176582265Y-96740250D01*
X176448110Y-96878043D01*
X176349134Y-97010507D01*
X176004778Y-97340754D01*
X175710762Y-97399795D01*
X175547635Y-97183071D01*
X175536232Y-97056522D01*
X175608168Y-96757354D01*
X175707886Y-96688406D01*
X175917903Y-96533868D01*
X176003829Y-96157876D01*
X175946361Y-95691862D01*
X175880494Y-95513179D01*
X175685474Y-95215942D01*
X176364493Y-95215942D01*
X176379086Y-95385548D01*
X176445659Y-95400000D01*
X176633089Y-95266390D01*
X176640580Y-95215942D01*
X176577782Y-95036669D01*
X176559413Y-95031884D01*
X176402270Y-95160860D01*
X176364493Y-95215942D01*
X175685474Y-95215942D01*
X175630297Y-95131845D01*
X175352128Y-95062834D01*
X175025294Y-95317924D01*
X174629098Y-95908899D01*
X174381869Y-96366304D01*
X173968587Y-97193565D01*
X173747573Y-97750903D01*
X173734724Y-98091506D01*
X172143658Y-98091506D01*
X172866973Y-98068840D01*
X173352121Y-97169598D01*
X173686009Y-96491286D01*
X173980237Y-95795184D01*
X174080843Y-95513076D01*
X174273563Y-95013977D01*
X174463213Y-94674982D01*
X174516194Y-94620572D01*
X174773293Y-94562330D01*
X175308108Y-94516051D01*
X176030280Y-94487997D01*
X176508313Y-94482528D01*
X177408148Y-94495792D01*
X177991645Y-94543317D01*
X178309534Y-94631653D01*
X178403656Y-94727281D01*
X178370786Y-94993694D01*
X178203369Y-95500985D01*
X177932529Y-96161303D01*
X177767839Y-96521846D01*
X177037021Y-98068840D01*
X177897133Y-98164148D01*
X178576670Y-98265731D01*
X178999700Y-98426510D01*
X179181181Y-98700719D01*
X179136074Y-99142592D01*
X178879336Y-99806365D01*
X178543859Y-100508853D01*
X178083255Y-101359979D01*
X177650554Y-101926664D01*
X177163886Y-102275833D01*
X176541381Y-102474413D01*
X176044387Y-102552107D01*
X175076087Y-102670290D01*
X174339855Y-104169106D01*
X173912786Y-105028891D01*
X173583690Y-105613225D01*
X173284652Y-105975277D01*
X172947762Y-106168218D01*
X172505106Y-106245217D01*
X171888772Y-106259444D01*
X171669944Y-106259420D01*
X170849391Y-106232538D01*
X170349925Y-106120934D01*
X170126517Y-105878171D01*
X170128155Y-105787736D01*
X170708720Y-105787736D01*
X170710499Y-105789726D01*
X170939137Y-105848930D01*
X171406816Y-105885541D01*
X171710057Y-105891304D01*
X172356232Y-105841888D01*
X172801094Y-105658443D01*
X173059815Y-105439525D01*
X173367776Y-105057398D01*
X173510401Y-104734214D01*
X173511594Y-104713033D01*
X173593900Y-104401925D01*
X173804462Y-103906406D01*
X173971739Y-103572905D01*
X174230848Y-103058228D01*
X174397743Y-102674181D01*
X174431884Y-102550958D01*
X174270986Y-102446524D01*
X173879073Y-102402095D01*
X173833695Y-102402238D01*
X173212379Y-102373130D01*
X172580472Y-102294069D01*
X172154432Y-102245686D01*
X171907234Y-102352459D01*
X171708067Y-102695303D01*
X171626224Y-102884332D01*
X171317518Y-103656298D01*
X171045937Y-104413455D01*
X170836959Y-105074969D01*
X170716061Y-105560008D01*
X170708720Y-105787736D01*
X170128155Y-105787736D01*
X170134134Y-105457812D01*
X170311823Y-104858909D01*
X170498738Y-104280011D01*
X170521583Y-104015260D01*
X170351881Y-104036569D01*
X169961155Y-104315851D01*
X169849962Y-104403374D01*
X169237073Y-104822291D01*
X168788406Y-104941534D01*
X168444176Y-104753543D01*
X168144597Y-104250759D01*
X168115286Y-104184020D01*
X168067270Y-104070417D01*
X168726087Y-104070417D01*
X168875455Y-104216328D01*
X169002174Y-104234782D01*
X169246260Y-104090407D01*
X169278261Y-103964472D01*
X169156309Y-103778785D01*
X169002174Y-103800106D01*
X168758613Y-103980772D01*
X168726087Y-104070417D01*
X168067270Y-104070417D01*
X167864458Y-103590580D01*
X169462319Y-103590580D01*
X169554348Y-103682608D01*
X169646377Y-103590580D01*
X169554348Y-103498551D01*
X169462319Y-103590580D01*
X167864458Y-103590580D01*
X167847041Y-103549373D01*
X167632669Y-103098136D01*
X167406759Y-102800429D01*
X167103903Y-102626372D01*
X166658692Y-102546086D01*
X166005717Y-102529690D01*
X165079569Y-102547306D01*
X164556582Y-102558363D01*
X163595547Y-102579928D01*
X162774904Y-102604808D01*
X162160322Y-102630504D01*
X161817470Y-102654516D01*
X161768931Y-102664453D01*
X161893981Y-102750382D01*
X162274213Y-102914066D01*
X162643207Y-103053056D01*
X163249530Y-103323680D01*
X163537374Y-103621372D01*
X163553684Y-104017622D01*
X163464077Y-104303067D01*
X163216965Y-104601330D01*
X162716450Y-104984216D01*
X162049988Y-105397331D01*
X161305034Y-105786281D01*
X160596134Y-106086840D01*
X159399206Y-106366710D01*
X158036194Y-106428496D01*
X156630201Y-106281885D01*
X155304331Y-105936564D01*
X154544879Y-105610696D01*
X154094115Y-105306648D01*
X153543120Y-104836793D01*
X152978134Y-104287607D01*
X152485398Y-103745566D01*
X152151155Y-103297149D01*
X152067655Y-103126698D01*
X151796137Y-102816401D01*
X151285131Y-102619659D01*
X150918478Y-102580774D01*
X150792762Y-102705324D01*
X150718459Y-103108561D01*
X150689358Y-103829835D01*
X150688406Y-104038742D01*
X150664880Y-104805516D01*
X150602749Y-105487096D01*
X150514680Y-105951851D01*
X150500210Y-105994215D01*
X150395712Y-106234197D01*
X150252251Y-106375994D01*
X149987712Y-106439190D01*
X149519982Y-106443368D01*
X148766946Y-106408111D01*
X148765112Y-106408014D01*
X148001312Y-106342509D01*
X147373201Y-106241553D01*
X146983931Y-106122949D01*
X146935590Y-106092270D01*
X146777880Y-105835897D01*
X146673217Y-105340858D01*
X146611297Y-104551021D01*
X146600037Y-104264004D01*
X146547101Y-102670290D01*
X144062319Y-102627612D01*
X143073856Y-102613820D01*
X142408679Y-102615753D01*
X142022113Y-102638343D01*
X141869486Y-102686522D01*
X141906125Y-102765224D01*
X142037681Y-102851162D01*
X142524053Y-103010368D01*
X143269306Y-103104954D01*
X143803719Y-103123912D01*
X144535548Y-103145276D01*
X145032975Y-103243424D01*
X145398140Y-103482674D01*
X145733181Y-103927344D01*
X146101263Y-104570689D01*
X146538375Y-105366740D01*
X146082593Y-105716958D01*
X145659669Y-105969907D01*
X145315572Y-106071269D01*
X144982333Y-106171418D01*
X144890580Y-106259420D01*
X144655935Y-106351790D01*
X144151630Y-106410829D01*
X143474547Y-106437181D01*
X142721572Y-106431488D01*
X141989588Y-106394391D01*
X141375480Y-106326533D01*
X140988008Y-106233554D01*
X140117581Y-105866463D01*
X139484191Y-105560807D01*
X138977790Y-105255376D01*
X138488333Y-104888960D01*
X138314557Y-104746541D01*
X137757093Y-104216708D01*
X137261272Y-103633917D01*
X137038273Y-103300744D01*
X136673605Y-102788720D01*
X136308419Y-102586607D01*
X136205962Y-102578261D01*
X135999430Y-102596883D01*
X135873365Y-102701258D01*
X135807942Y-102964144D01*
X135783338Y-103458301D01*
X135779710Y-104142753D01*
X135764744Y-105007093D01*
X135684277Y-105622511D01*
X135484953Y-106031222D01*
X135113417Y-106275435D01*
X134516313Y-106397363D01*
X133640286Y-106439216D01*
X132871594Y-106443478D01*
X131729792Y-106422844D01*
X130948609Y-106361082D01*
X130530349Y-106258405D01*
X130478840Y-106222608D01*
X130359981Y-105909770D01*
X130284265Y-105282455D01*
X130257971Y-104401721D01*
X130257763Y-104388591D01*
X130683791Y-104388591D01*
X130712141Y-104998571D01*
X130787752Y-105385145D01*
X130985092Y-105891304D01*
X135056356Y-105891304D01*
X135003902Y-104004710D01*
X134957330Y-102329625D01*
X137146418Y-102329625D01*
X137174854Y-102654959D01*
X137446198Y-103148151D01*
X137591461Y-103364621D01*
X138550990Y-104444498D01*
X139740642Y-105261134D01*
X141112431Y-105792460D01*
X142618371Y-106016408D01*
X143343839Y-106010078D01*
X144132019Y-105928762D01*
X144839801Y-105792665D01*
X145322462Y-105629832D01*
X145706591Y-105405865D01*
X145898059Y-105244603D01*
X145902898Y-105229135D01*
X145817358Y-105025931D01*
X145598547Y-104616144D01*
X145425264Y-104313572D01*
X145128196Y-103839046D01*
X144867207Y-103597413D01*
X144502574Y-103510108D01*
X143975807Y-103498551D01*
X142999502Y-103459284D01*
X142268377Y-103318133D01*
X141665620Y-103040072D01*
X141142304Y-102648914D01*
X140771045Y-102347025D01*
X140450836Y-102162820D01*
X140073832Y-102067278D01*
X139532187Y-102031382D01*
X138827646Y-102026087D01*
X137941905Y-102048657D01*
X137391799Y-102138681D01*
X137146418Y-102329625D01*
X134957330Y-102329625D01*
X134951449Y-102118116D01*
X133034814Y-102065331D01*
X132225528Y-102056930D01*
X131554677Y-102075954D01*
X131106600Y-102118481D01*
X130969350Y-102161374D01*
X130851121Y-102455419D01*
X130759783Y-103001588D01*
X130701839Y-103684455D01*
X130683791Y-104388591D01*
X130257763Y-104388591D01*
X130245142Y-103595314D01*
X130198785Y-103086971D01*
X130107094Y-102807279D01*
X129966830Y-102689982D01*
X129710162Y-102659937D01*
X129137453Y-102632948D01*
X128300776Y-102610152D01*
X127252202Y-102592687D01*
X126043802Y-102581690D01*
X124850019Y-102578261D01*
X123243765Y-102572855D01*
X121978734Y-102555859D01*
X121028181Y-102526100D01*
X120365360Y-102482410D01*
X119963526Y-102423616D01*
X119803478Y-102357391D01*
X119687667Y-102040941D01*
X119613739Y-101374851D01*
X119585956Y-100461594D01*
X120502898Y-100461594D01*
X120594927Y-100553623D01*
X120686956Y-100461594D01*
X120594927Y-100369565D01*
X120502898Y-100461594D01*
X119585956Y-100461594D01*
X119583333Y-100375393D01*
X119582609Y-100162828D01*
X119582609Y-99449275D01*
X120531960Y-99449275D01*
X120560885Y-99710569D01*
X120624796Y-99679348D01*
X120629743Y-99602657D01*
X121239130Y-99602657D01*
X121264758Y-100380736D01*
X121335798Y-100854677D01*
X121443487Y-101007247D01*
X121579060Y-100821212D01*
X121685722Y-100480821D01*
X121835320Y-100050623D01*
X121989455Y-99826536D01*
X122018686Y-99817391D01*
X122098218Y-99702705D01*
X122067391Y-99633333D01*
X122111099Y-99477400D01*
X122251449Y-99449275D01*
X122450744Y-99545236D01*
X122419367Y-99679348D01*
X122364635Y-99817105D01*
X122529352Y-99686890D01*
X122535482Y-99681211D01*
X122775677Y-99320497D01*
X122825816Y-99150995D01*
X122803620Y-98962192D01*
X122676410Y-99042720D01*
X122369687Y-99173619D01*
X122137735Y-99023585D01*
X122109198Y-98701156D01*
X122105955Y-98436715D01*
X121845730Y-98348193D01*
X121720742Y-98344927D01*
X121466868Y-98362106D01*
X121322836Y-98467811D01*
X121257533Y-98743295D01*
X121239845Y-99269811D01*
X121239130Y-99602657D01*
X120629743Y-99602657D01*
X120649106Y-99302517D01*
X120624796Y-99219203D01*
X120557617Y-99196081D01*
X120531960Y-99449275D01*
X119582609Y-99449275D01*
X119582609Y-98189135D01*
X119915785Y-97593357D01*
X120871014Y-97593357D01*
X120987938Y-97909765D01*
X121160597Y-97976811D01*
X121381741Y-97838814D01*
X121389043Y-97700724D01*
X122343478Y-97700724D01*
X122490810Y-97944743D01*
X122619565Y-97976811D01*
X122864504Y-98076197D01*
X122895652Y-98160869D01*
X122957338Y-98340147D01*
X122975371Y-98344927D01*
X122981154Y-98326787D01*
X137155594Y-98326787D01*
X137173962Y-98367284D01*
X137391671Y-98440796D01*
X137885613Y-98496833D01*
X138564004Y-98526485D01*
X138839810Y-98528985D01*
X139633439Y-98517562D01*
X140167796Y-98467242D01*
X140551425Y-98353949D01*
X140892869Y-98153608D01*
X141047808Y-98039242D01*
X141054110Y-98035705D01*
X141788954Y-98035705D01*
X141959289Y-98104525D01*
X142384015Y-98143676D01*
X143110128Y-98159578D01*
X143510145Y-98160869D01*
X144374827Y-98152715D01*
X144918661Y-98123970D01*
X145188643Y-98068216D01*
X145231768Y-97979031D01*
X145194275Y-97930797D01*
X144864054Y-97799267D01*
X144217797Y-97720793D01*
X143510145Y-97700724D01*
X142647438Y-97732163D01*
X142061640Y-97822002D01*
X141826014Y-97930797D01*
X141788954Y-98035705D01*
X141054110Y-98035705D01*
X141969756Y-97521827D01*
X143000877Y-97246610D01*
X144041580Y-97220380D01*
X144992277Y-97449929D01*
X145508676Y-97735066D01*
X145866879Y-98099115D01*
X146261186Y-98652642D01*
X146483043Y-99041041D01*
X146670435Y-99434458D01*
X146808181Y-99819165D01*
X146907893Y-100268050D01*
X146981186Y-100853996D01*
X147039674Y-101649890D01*
X147094970Y-102728617D01*
X147104775Y-102942872D01*
X147238392Y-105891304D01*
X150320290Y-105891304D01*
X150353653Y-103636594D01*
X150361770Y-102776929D01*
X150362311Y-102572370D01*
X152344927Y-102572370D01*
X152489789Y-102979590D01*
X152876541Y-103509350D01*
X153433437Y-104091471D01*
X154088730Y-104655774D01*
X154770672Y-105132080D01*
X155197826Y-105362912D01*
X155764917Y-105605340D01*
X156274604Y-105757969D01*
X156845199Y-105841470D01*
X157595013Y-105876517D01*
X158173509Y-105882858D01*
X159181816Y-105867382D01*
X159925144Y-105801774D01*
X160504738Y-105673170D01*
X160861294Y-105541333D01*
X161430687Y-105245745D01*
X161998751Y-104867909D01*
X162488689Y-104471063D01*
X162823705Y-104118448D01*
X162927003Y-103873304D01*
X162917022Y-103848482D01*
X162706451Y-103686457D01*
X162264763Y-103435102D01*
X161811764Y-103208742D01*
X160808578Y-102734159D01*
X160190173Y-103116355D01*
X159668324Y-103356302D01*
X159018812Y-103474072D01*
X158341960Y-103498551D01*
X157329654Y-103428941D01*
X156559114Y-103195097D01*
X155926487Y-102759494D01*
X155715922Y-102549734D01*
X155695361Y-102530775D01*
X156762608Y-102530775D01*
X156818304Y-102681359D01*
X157027859Y-102869396D01*
X157482897Y-103043014D01*
X158137871Y-103119162D01*
X158837222Y-103095934D01*
X159425390Y-102971426D01*
X159581303Y-102900674D01*
X159735077Y-102787204D01*
X159691328Y-102707266D01*
X159401076Y-102646592D01*
X158815339Y-102590915D01*
X158418840Y-102562053D01*
X157698593Y-102521145D01*
X157129956Y-102506134D01*
X156803733Y-102518736D01*
X156762608Y-102530775D01*
X155695361Y-102530775D01*
X155482510Y-102334510D01*
X155216206Y-102211383D01*
X154819663Y-102161179D01*
X154195533Y-102164725D01*
X153829328Y-102178146D01*
X153085573Y-102218293D01*
X152638304Y-102277341D01*
X152415890Y-102374314D01*
X152346700Y-102528233D01*
X152344927Y-102572370D01*
X150362311Y-102572370D01*
X150364595Y-101710061D01*
X150362670Y-100485352D01*
X150356539Y-99152164D01*
X150350055Y-98230570D01*
X152382581Y-98230570D01*
X152435489Y-98312784D01*
X152666670Y-98371442D01*
X153167620Y-98415159D01*
X153840064Y-98436157D01*
X154004702Y-98436956D01*
X154760151Y-98424240D01*
X155255882Y-98368798D01*
X155599909Y-98244695D01*
X155900246Y-98025993D01*
X155905137Y-98021626D01*
X156578261Y-98021626D01*
X156743453Y-98095717D01*
X157166096Y-98139973D01*
X157736785Y-98155024D01*
X158346117Y-98141503D01*
X158884690Y-98100041D01*
X159243100Y-98031270D01*
X159298339Y-98005917D01*
X159378403Y-97853207D01*
X159125968Y-97671859D01*
X159059606Y-97640619D01*
X158613026Y-97478895D01*
X158315252Y-97424637D01*
X157934752Y-97478989D01*
X157444952Y-97612703D01*
X156973902Y-97781769D01*
X156649653Y-97942179D01*
X156578261Y-98021626D01*
X155905137Y-98021626D01*
X155967987Y-97965519D01*
X156892048Y-97348267D01*
X157902539Y-97070566D01*
X158943436Y-97140600D01*
X159699078Y-97420471D01*
X160216446Y-97757082D01*
X160661800Y-98172718D01*
X160989772Y-98599864D01*
X161154998Y-98971009D01*
X161112110Y-99218641D01*
X160949637Y-99281497D01*
X160676701Y-99285536D01*
X160126284Y-99283336D01*
X159388961Y-99275492D01*
X158852390Y-99267652D01*
X158059825Y-99270632D01*
X157412410Y-99302709D01*
X156993283Y-99358049D01*
X156881147Y-99405912D01*
X156896805Y-99657340D01*
X157058559Y-100092558D01*
X157157902Y-100294032D01*
X157408560Y-100765319D01*
X157628612Y-101113392D01*
X157875914Y-101356888D01*
X158208327Y-101514444D01*
X158683707Y-101604697D01*
X159359915Y-101646284D01*
X160294808Y-101657841D01*
X161392295Y-101657971D01*
X164676811Y-101657971D01*
X164676811Y-100426286D01*
X164655866Y-99741639D01*
X164563435Y-99214656D01*
X164355129Y-98695131D01*
X163986559Y-98032859D01*
X163952510Y-97975420D01*
X162990333Y-96688819D01*
X161806718Y-95696159D01*
X160464036Y-95019906D01*
X159196865Y-94714260D01*
X157810335Y-94664822D01*
X156438993Y-94864309D01*
X155220946Y-95303637D01*
X154477069Y-95745891D01*
X153774606Y-96278659D01*
X153163741Y-96847725D01*
X152694659Y-97398875D01*
X152417544Y-97877895D01*
X152382581Y-98230570D01*
X150350055Y-98230570D01*
X150346743Y-97759857D01*
X150333826Y-96357793D01*
X150318329Y-94995334D01*
X150300796Y-93721841D01*
X150281769Y-92586675D01*
X150261791Y-91639197D01*
X150241404Y-90928769D01*
X150221151Y-90504753D01*
X150208214Y-90405932D01*
X149982836Y-90302294D01*
X149510018Y-90212390D01*
X148910427Y-90147741D01*
X148304733Y-90119869D01*
X147813605Y-90140294D01*
X147677352Y-90164293D01*
X147191304Y-90286283D01*
X147188486Y-92889156D01*
X147178696Y-94073460D01*
X147144276Y-94927222D01*
X147073226Y-95487797D01*
X146953545Y-95792543D01*
X146773231Y-95878815D01*
X146520286Y-95783970D01*
X146305280Y-95638495D01*
X145439190Y-95112540D01*
X144507163Y-94801845D01*
X143391775Y-94672483D01*
X142931452Y-94663768D01*
X142069081Y-94690161D01*
X141401611Y-94792498D01*
X140758141Y-95005517D01*
X140331103Y-95192306D01*
X139588953Y-95585074D01*
X138854534Y-96054546D01*
X138413576Y-96393576D01*
X137882413Y-96928013D01*
X137460769Y-97483969D01*
X137201033Y-97978032D01*
X137155594Y-98326787D01*
X122981154Y-98326787D01*
X123026464Y-98184660D01*
X123039506Y-97797702D01*
X123039138Y-97783906D01*
X122976684Y-97391749D01*
X122802109Y-97310507D01*
X122760308Y-97323761D01*
X122480454Y-97414488D01*
X122420453Y-97424637D01*
X122351990Y-97574906D01*
X122343478Y-97700724D01*
X121389043Y-97700724D01*
X121390670Y-97669962D01*
X121236966Y-97363156D01*
X121024296Y-97294605D01*
X120881175Y-97483255D01*
X120871014Y-97593357D01*
X119915785Y-97593357D01*
X120364855Y-96790341D01*
X120759591Y-96083572D01*
X121117440Y-95441255D01*
X121375954Y-94975523D01*
X121423364Y-94889614D01*
X121452682Y-94836963D01*
X123631884Y-94836963D01*
X123765494Y-95024393D01*
X123815942Y-95031884D01*
X123995214Y-94969086D01*
X124000000Y-94950717D01*
X123915552Y-94847826D01*
X124460145Y-94847826D01*
X124501871Y-95005398D01*
X124633340Y-95031884D01*
X124874510Y-94939855D01*
X125840580Y-94939855D01*
X125939966Y-95184794D01*
X126024637Y-95215942D01*
X126187930Y-95066863D01*
X126208695Y-94939855D01*
X126109309Y-94694916D01*
X126024637Y-94663768D01*
X125861345Y-94812847D01*
X125840580Y-94939855D01*
X124874510Y-94939855D01*
X124885171Y-94935787D01*
X124920290Y-94847826D01*
X124788186Y-94669036D01*
X124747094Y-94663768D01*
X124497818Y-94797559D01*
X124460145Y-94847826D01*
X123915552Y-94847826D01*
X123871024Y-94793574D01*
X123815942Y-94755797D01*
X123646335Y-94770390D01*
X123631884Y-94836963D01*
X121452682Y-94836963D01*
X121678650Y-94431164D01*
X122094719Y-93690650D01*
X122147942Y-93596294D01*
X123635977Y-93596294D01*
X123714098Y-93665233D01*
X123895034Y-93503815D01*
X124109715Y-93207208D01*
X124289075Y-92870582D01*
X124364023Y-92593116D01*
X124326126Y-92319517D01*
X124280813Y-92271014D01*
X124135310Y-92420698D01*
X123934363Y-92775466D01*
X123746787Y-93193890D01*
X123641395Y-93534543D01*
X123635977Y-93596294D01*
X122147942Y-93596294D01*
X122650195Y-92705891D01*
X123112886Y-91887560D01*
X124552174Y-91887560D01*
X124702366Y-92060870D01*
X124848398Y-92086956D01*
X125038511Y-92164564D01*
X125087595Y-92455799D01*
X125059564Y-92777174D01*
X125047347Y-93402601D01*
X125150097Y-93926777D01*
X125339811Y-94245566D01*
X125467908Y-94295652D01*
X125596201Y-94134747D01*
X125598067Y-94122457D01*
X126392753Y-94122457D01*
X126463608Y-94376957D01*
X126576811Y-94387681D01*
X126746168Y-94121372D01*
X126760869Y-94008702D01*
X126657959Y-93770817D01*
X126576811Y-93743478D01*
X126428713Y-93898099D01*
X126392753Y-94122457D01*
X125598067Y-94122457D01*
X125655716Y-93742819D01*
X125656236Y-93697464D01*
X125608432Y-93375362D01*
X126760869Y-93375362D01*
X126900933Y-93554072D01*
X126944927Y-93559420D01*
X127123637Y-93419357D01*
X127128985Y-93375362D01*
X126988922Y-93196653D01*
X126944927Y-93191304D01*
X126766218Y-93331368D01*
X126760869Y-93375362D01*
X125608432Y-93375362D01*
X125575036Y-93150343D01*
X125370432Y-92562510D01*
X125100222Y-92062060D01*
X124822204Y-91777087D01*
X124782246Y-91760477D01*
X124573680Y-91810387D01*
X124552174Y-91887560D01*
X123112886Y-91887560D01*
X123323700Y-91514709D01*
X123625071Y-90982608D01*
X124644203Y-90982608D01*
X124658796Y-91152215D01*
X124725369Y-91166666D01*
X124912799Y-91033057D01*
X124920290Y-90982608D01*
X124857492Y-90803336D01*
X124839123Y-90798551D01*
X124681980Y-90927527D01*
X124644203Y-90982608D01*
X123625071Y-90982608D01*
X124093856Y-90154924D01*
X124616160Y-89234058D01*
X129705797Y-89234058D01*
X129797826Y-89326087D01*
X129889855Y-89234058D01*
X129797826Y-89142029D01*
X129705797Y-89234058D01*
X124616160Y-89234058D01*
X124939288Y-88664357D01*
X125260285Y-88099034D01*
X127006280Y-88099034D01*
X127031546Y-88208456D01*
X127128985Y-88221739D01*
X127280486Y-88154395D01*
X127251691Y-88099034D01*
X127033257Y-88077005D01*
X127006280Y-88099034D01*
X125260285Y-88099034D01*
X125556398Y-87577536D01*
X127229301Y-84632608D01*
X129341824Y-84577485D01*
X130563675Y-84558811D01*
X131460865Y-84580123D01*
G36*
X122711594Y-99357246D02*
G01*
X122619565Y-99449275D01*
X122527536Y-99357246D01*
X122619565Y-99265217D01*
X122711594Y-99357246D01*
G37*
X122711594Y-99357246D02*
X122619565Y-99449275D01*
X122527536Y-99357246D01*
X122619565Y-99265217D01*
X122711594Y-99357246D01*
D11*
X196120000Y-114220000D02*
X193580000Y-114220000D01*
X193580000Y-121840000D02*
X193580000Y-111680000D01*
X196120000Y-111680000D02*
X196120000Y-121840000D01*
X193580000Y-111680000D02*
X196120000Y-111680000D01*
X196120000Y-121840000D02*
X193580000Y-121840000D01*
D13*
X149470000Y-144180000D02*
X150070000Y-144780000D01*
X148870000Y-144780000D02*
X149470000Y-144180000D01*
X150070000Y-144780000D02*
X148870000Y-144780000D01*
X143630000Y-145230000D02*
X143630000Y-144730000D01*
X143530000Y-144730000D02*
X143730000Y-144730000D01*
X143530000Y-145230000D02*
X143530000Y-144730000D01*
X143730000Y-145230000D02*
X143530000Y-145230000D01*
X143630000Y-130270000D02*
X143630000Y-129770000D01*
X143530000Y-129770000D02*
X143730000Y-129770000D01*
X143530000Y-130270000D02*
X143530000Y-129770000D01*
X143730000Y-130270000D02*
X143530000Y-130270000D01*
X143630000Y-137750000D02*
X143630000Y-137250000D01*
X143530000Y-137250000D02*
X143730000Y-137250000D01*
X143530000Y-137750000D02*
X143530000Y-137250000D01*
X143730000Y-137750000D02*
X143530000Y-137750000D01*
X151370000Y-135275000D02*
X152670000Y-135275000D01*
X151370000Y-128550000D02*
X151370000Y-135275000D01*
X145030000Y-128550000D02*
X151370000Y-128550000D01*
X145030000Y-146450000D02*
X145030000Y-128550000D01*
X151370000Y-146450000D02*
X145030000Y-146450000D01*
X151370000Y-139725000D02*
X151370000Y-146450000D01*
X152670000Y-139725000D02*
X151370000Y-139725000D01*
X152670000Y-127350000D02*
X152670000Y-147650000D01*
X143730000Y-127350000D02*
X152670000Y-127350000D01*
X143730000Y-147650000D02*
X143730000Y-127350000D01*
X152670000Y-147650000D02*
X143730000Y-147650000D01*
X139470000Y-144180000D02*
X140070000Y-144780000D01*
X138870000Y-144780000D02*
X139470000Y-144180000D01*
X140070000Y-144780000D02*
X138870000Y-144780000D01*
X133630000Y-145230000D02*
X133630000Y-144730000D01*
X133530000Y-144730000D02*
X133730000Y-144730000D01*
X133530000Y-145230000D02*
X133530000Y-144730000D01*
X133730000Y-145230000D02*
X133530000Y-145230000D01*
X133630000Y-130270000D02*
X133630000Y-129770000D01*
X133530000Y-129770000D02*
X133730000Y-129770000D01*
X133530000Y-130270000D02*
X133530000Y-129770000D01*
X133730000Y-130270000D02*
X133530000Y-130270000D01*
X133630000Y-137750000D02*
X133630000Y-137250000D01*
X133530000Y-137250000D02*
X133730000Y-137250000D01*
X133530000Y-137750000D02*
X133530000Y-137250000D01*
X133730000Y-137750000D02*
X133530000Y-137750000D01*
X141370000Y-135275000D02*
X142670000Y-135275000D01*
X141370000Y-128550000D02*
X141370000Y-135275000D01*
X135030000Y-128550000D02*
X141370000Y-128550000D01*
X135030000Y-146450000D02*
X135030000Y-128550000D01*
X141370000Y-146450000D02*
X135030000Y-146450000D01*
X141370000Y-139725000D02*
X141370000Y-146450000D01*
X142670000Y-139725000D02*
X141370000Y-139725000D01*
X142670000Y-127350000D02*
X142670000Y-147650000D01*
X133730000Y-127350000D02*
X142670000Y-127350000D01*
X133730000Y-147650000D02*
X133730000Y-127350000D01*
X142670000Y-147650000D02*
X133730000Y-147650000D01*
X129470000Y-144180000D02*
X130070000Y-144780000D01*
X128870000Y-144780000D02*
X129470000Y-144180000D01*
X130070000Y-144780000D02*
X128870000Y-144780000D01*
X123630000Y-145230000D02*
X123630000Y-144730000D01*
X123530000Y-144730000D02*
X123730000Y-144730000D01*
X123530000Y-145230000D02*
X123530000Y-144730000D01*
X123730000Y-145230000D02*
X123530000Y-145230000D01*
X123630000Y-130270000D02*
X123630000Y-129770000D01*
X123530000Y-129770000D02*
X123730000Y-129770000D01*
X123530000Y-130270000D02*
X123530000Y-129770000D01*
X123730000Y-130270000D02*
X123530000Y-130270000D01*
X123630000Y-137750000D02*
X123630000Y-137250000D01*
X123530000Y-137250000D02*
X123730000Y-137250000D01*
X123530000Y-137750000D02*
X123530000Y-137250000D01*
X123730000Y-137750000D02*
X123530000Y-137750000D01*
X131370000Y-135275000D02*
X132670000Y-135275000D01*
X131370000Y-128550000D02*
X131370000Y-135275000D01*
X125030000Y-128550000D02*
X131370000Y-128550000D01*
X125030000Y-146450000D02*
X125030000Y-128550000D01*
X131370000Y-146450000D02*
X125030000Y-146450000D01*
X131370000Y-139725000D02*
X131370000Y-146450000D01*
X132670000Y-139725000D02*
X131370000Y-139725000D01*
X132670000Y-127350000D02*
X132670000Y-147650000D01*
X123730000Y-127350000D02*
X132670000Y-127350000D01*
X123730000Y-147650000D02*
X123730000Y-127350000D01*
X132670000Y-147650000D02*
X123730000Y-147650000D01*
X119470000Y-144180000D02*
X120070000Y-144780000D01*
X118870000Y-144780000D02*
X119470000Y-144180000D01*
X120070000Y-144780000D02*
X118870000Y-144780000D01*
X113630000Y-145230000D02*
X113630000Y-144730000D01*
X113530000Y-144730000D02*
X113730000Y-144730000D01*
X113530000Y-145230000D02*
X113530000Y-144730000D01*
X113730000Y-145230000D02*
X113530000Y-145230000D01*
X113630000Y-130270000D02*
X113630000Y-129770000D01*
X113530000Y-129770000D02*
X113730000Y-129770000D01*
X113530000Y-130270000D02*
X113530000Y-129770000D01*
X113730000Y-130270000D02*
X113530000Y-130270000D01*
X113630000Y-137750000D02*
X113630000Y-137250000D01*
X113530000Y-137250000D02*
X113730000Y-137250000D01*
X113530000Y-137750000D02*
X113530000Y-137250000D01*
X113730000Y-137750000D02*
X113530000Y-137750000D01*
X121370000Y-135275000D02*
X122670000Y-135275000D01*
X121370000Y-128550000D02*
X121370000Y-135275000D01*
X115030000Y-128550000D02*
X121370000Y-128550000D01*
X115030000Y-146450000D02*
X115030000Y-128550000D01*
X121370000Y-146450000D02*
X115030000Y-146450000D01*
X121370000Y-139725000D02*
X121370000Y-146450000D01*
X122670000Y-139725000D02*
X121370000Y-139725000D01*
X122670000Y-127350000D02*
X122670000Y-147650000D01*
X113730000Y-127350000D02*
X122670000Y-127350000D01*
X113730000Y-147650000D02*
X113730000Y-127350000D01*
X122670000Y-147650000D02*
X113730000Y-147650000D01*
X156270000Y-66680000D02*
X156870000Y-67280000D01*
X155670000Y-67280000D02*
X156270000Y-66680000D01*
X156870000Y-67280000D02*
X155670000Y-67280000D01*
X150430000Y-67730000D02*
X150430000Y-67230000D01*
X150330000Y-67230000D02*
X150530000Y-67230000D01*
X150330000Y-67730000D02*
X150330000Y-67230000D01*
X150530000Y-67730000D02*
X150330000Y-67730000D01*
X150430000Y-52770000D02*
X150430000Y-52270000D01*
X150330000Y-52270000D02*
X150530000Y-52270000D01*
X150330000Y-52770000D02*
X150330000Y-52270000D01*
X150530000Y-52770000D02*
X150330000Y-52770000D01*
X150430000Y-60250000D02*
X150430000Y-59750000D01*
X150330000Y-59750000D02*
X150530000Y-59750000D01*
X150330000Y-60250000D02*
X150330000Y-59750000D01*
X150530000Y-60250000D02*
X150330000Y-60250000D01*
X158170000Y-57775000D02*
X159470000Y-57775000D01*
X158170000Y-51050000D02*
X158170000Y-57775000D01*
X151830000Y-51050000D02*
X158170000Y-51050000D01*
X151830000Y-68950000D02*
X151830000Y-51050000D01*
X158170000Y-68950000D02*
X151830000Y-68950000D01*
X158170000Y-62225000D02*
X158170000Y-68950000D01*
X159470000Y-62225000D02*
X158170000Y-62225000D01*
X159470000Y-49850000D02*
X159470000Y-70150000D01*
X150530000Y-49850000D02*
X159470000Y-49850000D01*
X150530000Y-70150000D02*
X150530000Y-49850000D01*
X159470000Y-70150000D02*
X150530000Y-70150000D01*
D11*
X164200000Y-131030000D02*
X164200000Y-133570000D01*
X154040000Y-133570000D02*
X154040000Y-131030000D01*
X154040000Y-131030000D02*
X164200000Y-131030000D01*
X164200000Y-133570000D02*
X154040000Y-133570000D01*
X156580000Y-131030000D02*
X156580000Y-133570000D01*
D13*
X166740000Y-147251000D02*
X161596500Y-147251000D01*
X166740000Y-147187500D02*
X161660000Y-147187500D01*
X161596500Y-144711000D02*
X161596500Y-144520500D01*
X166803500Y-144520500D02*
X166803500Y-144901500D01*
X166803500Y-144520500D02*
X161660000Y-144520500D01*
X161660000Y-144647500D02*
X166740000Y-144647500D01*
X166803500Y-147187500D02*
X166803500Y-144647500D01*
X166676500Y-144584000D02*
X166676500Y-147187500D01*
X166740000Y-147251000D02*
X166740000Y-144584000D01*
D11*
X164200000Y-144647500D02*
X164200000Y-147187500D01*
X161660000Y-147187500D02*
X161660000Y-144647500D01*
X172600000Y-140600000D02*
X172600000Y-142200000D01*
X172400000Y-140100000D02*
X172400000Y-142700000D01*
X172200000Y-139700000D02*
X172200000Y-143100000D01*
X172800000Y-141400000D02*
G75*
G03*
X172800000Y-141400000I-2800000J0D01*
G01*
D14*
X171100000Y-142400000D02*
X171100000Y-143400000D01*
X162900000Y-140200000D02*
X162900000Y-139200000D01*
D11*
X166800000Y-141200000D02*
G75*
G03*
X166800000Y-141200000I-2800000J0D01*
G01*
X161800000Y-142900000D02*
X161800000Y-139500000D01*
X161600000Y-142500000D02*
X161600000Y-139900000D01*
X161400000Y-142000000D02*
X161400000Y-140400000D01*
D10*
X125619000Y-73220000D02*
X125619000Y-70680000D01*
X125365000Y-70680000D02*
X125365000Y-73220000D01*
X121555000Y-70680000D02*
X121555000Y-73220000D01*
X126635000Y-70680000D02*
X126635000Y-73220000D01*
X121555000Y-70680000D02*
X126635000Y-70680000D01*
X126635000Y-73220000D02*
X121555000Y-73220000D01*
X127595000Y-71950000D02*
X126635000Y-71950000D01*
X121555000Y-71950000D02*
X120595000Y-71950000D01*
D15*
X185150000Y-53800000D02*
G75*
G03*
X185150000Y-53800000I-2130000J0D01*
G01*
X185623500Y-51323500D02*
X185623500Y-50307500D01*
X190640000Y-51323500D02*
X190650000Y-50260653D01*
X190150000Y-53800000D02*
G75*
G03*
X190150000Y-53800000I-2050000J0D01*
G01*
X195210000Y-53800000D02*
G75*
G03*
X195210000Y-53800000I-2030000J0D01*
G01*
X195650000Y-51300000D02*
X180650000Y-51300000D01*
X195650000Y-56200000D02*
X180650000Y-56200000D01*
X195656500Y-50244000D02*
X180670500Y-50244000D01*
X180670500Y-50244000D02*
X180670500Y-58308500D01*
X180650000Y-58308500D02*
X195650000Y-58308500D01*
X195656500Y-58308500D02*
X195656500Y-50244000D01*
D13*
X109634000Y-124126000D02*
G75*
G03*
X109634000Y-124126000I-2286000J0D01*
G01*
X110904000Y-75866000D02*
G75*
G03*
X110904000Y-75866000I-2286000J0D01*
G01*
D16*
X193850000Y-65425000D02*
G75*
G03*
X193850000Y-65425000I-6000000J0D01*
G01*
X195450000Y-66425000D02*
X195450000Y-64425000D01*
X194450000Y-65425000D02*
X196450000Y-65425000D01*
D10*
X110000000Y-52000000D02*
X110000000Y-58000000D01*
X107000000Y-55000000D02*
X113000000Y-55000000D01*
X113000000Y-55000000D02*
G75*
G03*
X113000000Y-55000000I-3000000J0D01*
G01*
X203000000Y-55000000D02*
G75*
G03*
X203000000Y-55000000I-3000000J0D01*
G01*
X197000000Y-55000000D02*
X203000000Y-55000000D01*
X200000000Y-52000000D02*
X200000000Y-58000000D01*
X200000000Y-142000000D02*
X200000000Y-148000000D01*
X197000000Y-145000000D02*
X203000000Y-145000000D01*
X203000000Y-145000000D02*
G75*
G03*
X203000000Y-145000000I-3000000J0D01*
G01*
X113000000Y-145000000D02*
G75*
G03*
X113000000Y-145000000I-3000000J0D01*
G01*
X107000000Y-145000000D02*
X113000000Y-145000000D01*
X110000000Y-142000000D02*
X110000000Y-148000000D01*
D11*
X183550000Y-141342000D02*
X183550000Y-143882000D01*
X173390000Y-143882000D02*
X173390000Y-141342000D01*
X173390000Y-141342000D02*
X183550000Y-141342000D01*
X183550000Y-143882000D02*
X173390000Y-143882000D01*
X175930000Y-141342000D02*
X175930000Y-143882000D01*
D15*
X203540000Y-63800000D02*
X204484500Y-63800000D01*
X203000000Y-61250000D02*
G75*
G03*
X203000000Y-61250000I-2000000J0D01*
G01*
X203000000Y-66350000D02*
G75*
G03*
X203000000Y-66350000I-2000000J0D01*
G01*
X203500000Y-68800000D02*
X203500000Y-58800000D01*
X198600000Y-68800000D02*
X198600000Y-58800000D01*
X204492500Y-68783500D02*
X204492500Y-58783500D01*
X204492500Y-58783500D02*
X196555000Y-58783500D01*
X196555000Y-58783500D02*
X196555000Y-68783500D01*
X196555000Y-68816500D02*
X204492500Y-68816500D01*
X196505000Y-79266500D02*
X204442500Y-79266500D01*
X196505000Y-69233500D02*
X196505000Y-79233500D01*
X204442500Y-69233500D02*
X196505000Y-69233500D01*
X204442500Y-79233500D02*
X204442500Y-69233500D01*
X198550000Y-79250000D02*
X198550000Y-69250000D01*
X203450000Y-79250000D02*
X203450000Y-69250000D01*
X202950000Y-76800000D02*
G75*
G03*
X202950000Y-76800000I-2000000J0D01*
G01*
X202950000Y-71700000D02*
G75*
G03*
X202950000Y-71700000I-2000000J0D01*
G01*
X203490000Y-74250000D02*
X204434500Y-74250000D01*
D11*
X196070000Y-93460000D02*
X193530000Y-93460000D01*
X193530000Y-101080000D02*
X193530000Y-90920000D01*
X196070000Y-90920000D02*
X196070000Y-101080000D01*
X193530000Y-90920000D02*
X196070000Y-90920000D01*
X196070000Y-101080000D02*
X193530000Y-101080000D01*
X196120000Y-111530000D02*
X193580000Y-111530000D01*
X193580000Y-101370000D02*
X196120000Y-101370000D01*
X196120000Y-101370000D02*
X196120000Y-111530000D01*
X193580000Y-111530000D02*
X193580000Y-101370000D01*
X196120000Y-103910000D02*
X193580000Y-103910000D01*
X196070000Y-90680000D02*
X193530000Y-90680000D01*
X193530000Y-80520000D02*
X196070000Y-80520000D01*
X196070000Y-80520000D02*
X196070000Y-90680000D01*
X193530000Y-90680000D02*
X193530000Y-80520000D01*
X196070000Y-83060000D02*
X193530000Y-83060000D01*
X196070000Y-80180000D02*
X193530000Y-80180000D01*
X193530000Y-70020000D02*
X196070000Y-70020000D01*
X196070000Y-70020000D02*
X196070000Y-80180000D01*
X193530000Y-80180000D02*
X193530000Y-70020000D01*
X196070000Y-72560000D02*
X193530000Y-72560000D01*
D15*
X148106500Y-58383500D02*
X148106500Y-50319000D01*
X133100000Y-58383500D02*
X148100000Y-58383500D01*
X133120500Y-50319000D02*
X133120500Y-58383500D01*
X148106500Y-50319000D02*
X133120500Y-50319000D01*
X148100000Y-56275000D02*
X133100000Y-56275000D01*
X148100000Y-51375000D02*
X133100000Y-51375000D01*
X147660000Y-53875000D02*
G75*
G03*
X147660000Y-53875000I-2030000J0D01*
G01*
X142600000Y-53875000D02*
G75*
G03*
X142600000Y-53875000I-2050000J0D01*
G01*
X143090000Y-51398500D02*
X143100000Y-50335653D01*
X138073500Y-51398500D02*
X138073500Y-50382500D01*
X137600000Y-53875000D02*
G75*
G03*
X137600000Y-53875000I-2130000J0D01*
G01*
D11*
X175960000Y-138380000D02*
X175960000Y-140920000D01*
X183580000Y-140920000D02*
X173420000Y-140920000D01*
X173420000Y-138380000D02*
X183580000Y-138380000D01*
X173420000Y-140920000D02*
X173420000Y-138380000D01*
X183580000Y-138380000D02*
X183580000Y-140920000D01*
X175935000Y-144305000D02*
X175935000Y-146845000D01*
X183555000Y-146845000D02*
X173395000Y-146845000D01*
X173395000Y-144305000D02*
X183555000Y-144305000D01*
X173395000Y-146845000D02*
X173395000Y-144305000D01*
X183555000Y-144305000D02*
X183555000Y-146845000D01*
X153930000Y-137730000D02*
X156470000Y-137730000D01*
X156470000Y-147890000D02*
X153930000Y-147890000D01*
X153930000Y-147890000D02*
X153930000Y-137730000D01*
X156470000Y-137730000D02*
X156470000Y-147890000D01*
X153930000Y-145350000D02*
X156470000Y-145350000D01*
X158130000Y-145410000D02*
X160670000Y-145410000D01*
X160670000Y-137790000D02*
X160670000Y-147950000D01*
X158130000Y-147950000D02*
X158130000Y-137790000D01*
X160670000Y-147950000D02*
X158130000Y-147950000D01*
X158130000Y-137790000D02*
X160670000Y-137790000D01*
D15*
X203940000Y-132200000D02*
X204884500Y-132200000D01*
X203400000Y-129650000D02*
G75*
G03*
X203400000Y-129650000I-2000000J0D01*
G01*
X203400000Y-134750000D02*
G75*
G03*
X203400000Y-134750000I-2000000J0D01*
G01*
X203900000Y-137200000D02*
X203900000Y-127200000D01*
X199000000Y-137200000D02*
X199000000Y-127200000D01*
X204892500Y-137183500D02*
X204892500Y-127183500D01*
X204892500Y-127183500D02*
X196955000Y-127183500D01*
X196955000Y-127183500D02*
X196955000Y-137183500D01*
X196955000Y-137216500D02*
X204892500Y-137216500D01*
X196955000Y-126766500D02*
X204892500Y-126766500D01*
X196955000Y-116733500D02*
X196955000Y-126733500D01*
X204892500Y-116733500D02*
X196955000Y-116733500D01*
X204892500Y-126733500D02*
X204892500Y-116733500D01*
X199000000Y-126750000D02*
X199000000Y-116750000D01*
X203900000Y-126750000D02*
X203900000Y-116750000D01*
X203400000Y-124300000D02*
G75*
G03*
X203400000Y-124300000I-2000000J0D01*
G01*
X203400000Y-119200000D02*
G75*
G03*
X203400000Y-119200000I-2000000J0D01*
G01*
X203940000Y-121750000D02*
X204884500Y-121750000D01*
D17*
X174050000Y-60050000D02*
X174050000Y-64050000D01*
X170450000Y-60050000D02*
X174050000Y-60050000D01*
X170450000Y-64050000D02*
X170450000Y-60050000D01*
X174050000Y-64050000D02*
X170450000Y-64050000D01*
X174050000Y-60050000D02*
X170450000Y-64050000D01*
X174050000Y-62050000D02*
X178250000Y-62050000D01*
X166250000Y-62050000D02*
X170450000Y-62050000D01*
X166250000Y-64050000D02*
X166250000Y-62050000D01*
X178250000Y-64050000D02*
X178250000Y-62050000D01*
X172250000Y-65450000D02*
X175850000Y-65450000D01*
X172250000Y-66050000D02*
X172250000Y-65450000D01*
X172250000Y-58650000D02*
X175850000Y-58650000D01*
X175850000Y-58650000D02*
X175850000Y-65450000D01*
X172250000Y-57150000D02*
X169750000Y-52550000D01*
X172250000Y-58650000D02*
X172250000Y-57150000D01*
X168250000Y-54050000D02*
X170500000Y-54050000D01*
X174000000Y-54050000D02*
X176250000Y-54050000D01*
X180000000Y-70050000D02*
X164600000Y-70050000D01*
X164500000Y-70050000D02*
X164500000Y-50550000D01*
X180000000Y-70050000D02*
X180000000Y-50550000D01*
X180000000Y-50550000D02*
X164500000Y-50550000D01*
X132175000Y-50650000D02*
X116675000Y-50650000D01*
X132175000Y-70150000D02*
X132175000Y-50650000D01*
X116675000Y-70150000D02*
X116675000Y-50650000D01*
X132175000Y-70150000D02*
X116775000Y-70150000D01*
X126175000Y-54150000D02*
X128425000Y-54150000D01*
X120425000Y-54150000D02*
X122675000Y-54150000D01*
X124425000Y-58750000D02*
X124425000Y-57250000D01*
X124425000Y-57250000D02*
X121925000Y-52650000D01*
X128025000Y-58750000D02*
X128025000Y-65550000D01*
X124425000Y-58750000D02*
X128025000Y-58750000D01*
X124425000Y-66150000D02*
X124425000Y-65550000D01*
X124425000Y-65550000D02*
X128025000Y-65550000D01*
X130425000Y-64150000D02*
X130425000Y-62150000D01*
X118425000Y-64150000D02*
X118425000Y-62150000D01*
X118425000Y-62150000D02*
X122625000Y-62150000D01*
X126225000Y-62150000D02*
X130425000Y-62150000D01*
X126225000Y-60150000D02*
X122625000Y-64150000D01*
X126225000Y-64150000D02*
X122625000Y-64150000D01*
X122625000Y-64150000D02*
X122625000Y-60150000D01*
X122625000Y-60150000D02*
X126225000Y-60150000D01*
X126225000Y-60150000D02*
X126225000Y-64150000D01*
D10*
X182070000Y-81400000D02*
X179530000Y-81400000D01*
D11*
X183721000Y-81400000D02*
G75*
G03*
X183721000Y-81400000I-381000J0D01*
G01*
D10*
X172000000Y-84070000D02*
X172000000Y-86610000D01*
D11*
X172381000Y-82800000D02*
G75*
G03*
X172381000Y-82800000I-381000J0D01*
G01*
X120281000Y-83625000D02*
G75*
G03*
X120281000Y-83625000I-381000J0D01*
G01*
D10*
X119900000Y-84895000D02*
X119900000Y-87435000D01*
D11*
X172140000Y-144612500D02*
X172140000Y-147152500D01*
X169600000Y-147152500D02*
X169600000Y-144612500D01*
D13*
X167060000Y-144549000D02*
X167060000Y-147216000D01*
X167123500Y-147216000D02*
X167123500Y-144612500D01*
X166996500Y-144612500D02*
X166996500Y-147152500D01*
X172140000Y-147152500D02*
X167060000Y-147152500D01*
X166996500Y-147279500D02*
X172140000Y-147279500D01*
X166996500Y-147279500D02*
X166996500Y-146898500D01*
X172203500Y-147089000D02*
X172203500Y-147279500D01*
X167060000Y-144612500D02*
X172140000Y-144612500D01*
X167060000Y-144549000D02*
X172203500Y-144549000D01*
D10*
X176041000Y-129200000D02*
X174390000Y-129200000D01*
X180359000Y-129200000D02*
X182010000Y-129200000D01*
X180359000Y-130089000D02*
X180359000Y-128311000D01*
X180359000Y-128311000D02*
X176041000Y-128311000D01*
X176041000Y-128311000D02*
X176041000Y-130089000D01*
X176041000Y-130089000D02*
X180359000Y-130089000D01*
X176041000Y-133289000D02*
X180359000Y-133289000D01*
X176041000Y-131511000D02*
X176041000Y-133289000D01*
X180359000Y-131511000D02*
X176041000Y-131511000D01*
X180359000Y-133289000D02*
X180359000Y-131511000D01*
X180359000Y-132400000D02*
X182010000Y-132400000D01*
X176041000Y-132400000D02*
X174390000Y-132400000D01*
D11*
X163275142Y-73089428D02*
X163275142Y-71565428D01*
X163638000Y-71565428D01*
X163855714Y-71638000D01*
X164000857Y-71783142D01*
X164073428Y-71928285D01*
X164146000Y-72218571D01*
X164146000Y-72436285D01*
X164073428Y-72726571D01*
X164000857Y-72871714D01*
X163855714Y-73016857D01*
X163638000Y-73089428D01*
X163275142Y-73089428D01*
X165452285Y-72073428D02*
X165452285Y-73089428D01*
X165089428Y-71492857D02*
X164726571Y-72581428D01*
X165670000Y-72581428D01*
D14*
X191378571Y-130300000D02*
X192450000Y-130300000D01*
X192664285Y-130371428D01*
X192807142Y-130514285D01*
X192878571Y-130728571D01*
X192878571Y-130871428D01*
X191378571Y-129728571D02*
X191378571Y-128728571D01*
X192878571Y-129371428D01*
X197378571Y-115214285D02*
X198450000Y-115214285D01*
X198664285Y-115285714D01*
X198807142Y-115428571D01*
X198878571Y-115642857D01*
X198878571Y-115785714D01*
X198878571Y-113714285D02*
X198878571Y-114571428D01*
X198878571Y-114142857D02*
X197378571Y-114142857D01*
X197592857Y-114285714D01*
X197735714Y-114428571D01*
X197807142Y-114571428D01*
X197378571Y-112785714D02*
X197378571Y-112642857D01*
X197450000Y-112500000D01*
X197521428Y-112428571D01*
X197664285Y-112357142D01*
X197950000Y-112285714D01*
X198307142Y-112285714D01*
X198592857Y-112357142D01*
X198735714Y-112428571D01*
X198807142Y-112500000D01*
X198878571Y-112642857D01*
X198878571Y-112785714D01*
X198807142Y-112928571D01*
X198735714Y-113000000D01*
X198592857Y-113071428D01*
X198307142Y-113142857D01*
X197950000Y-113142857D01*
X197664285Y-113071428D01*
X197521428Y-113000000D01*
X197450000Y-112928571D01*
X197378571Y-112785714D01*
D13*
X146785714Y-149452380D02*
X146785714Y-148452380D01*
X147166666Y-148452380D01*
X147261904Y-148500000D01*
X147309523Y-148547619D01*
X147357142Y-148642857D01*
X147357142Y-148785714D01*
X147309523Y-148880952D01*
X147261904Y-148928571D01*
X147166666Y-148976190D01*
X146785714Y-148976190D01*
X148309523Y-149452380D02*
X147738095Y-149452380D01*
X148023809Y-149452380D02*
X148023809Y-148452380D01*
X147928571Y-148595238D01*
X147833333Y-148690476D01*
X147738095Y-148738095D01*
X148642857Y-148452380D02*
X149309523Y-148452380D01*
X148880952Y-149452380D01*
X137185714Y-149452380D02*
X137185714Y-148452380D01*
X137566666Y-148452380D01*
X137661904Y-148500000D01*
X137709523Y-148547619D01*
X137757142Y-148642857D01*
X137757142Y-148785714D01*
X137709523Y-148880952D01*
X137661904Y-148928571D01*
X137566666Y-148976190D01*
X137185714Y-148976190D01*
X138709523Y-149452380D02*
X138138095Y-149452380D01*
X138423809Y-149452380D02*
X138423809Y-148452380D01*
X138328571Y-148595238D01*
X138233333Y-148690476D01*
X138138095Y-148738095D01*
X139614285Y-148452380D02*
X139138095Y-148452380D01*
X139090476Y-148928571D01*
X139138095Y-148880952D01*
X139233333Y-148833333D01*
X139471428Y-148833333D01*
X139566666Y-148880952D01*
X139614285Y-148928571D01*
X139661904Y-149023809D01*
X139661904Y-149261904D01*
X139614285Y-149357142D01*
X139566666Y-149404761D01*
X139471428Y-149452380D01*
X139233333Y-149452380D01*
X139138095Y-149404761D01*
X139090476Y-149357142D01*
X126785714Y-149252380D02*
X126785714Y-148252380D01*
X127166666Y-148252380D01*
X127261904Y-148300000D01*
X127309523Y-148347619D01*
X127357142Y-148442857D01*
X127357142Y-148585714D01*
X127309523Y-148680952D01*
X127261904Y-148728571D01*
X127166666Y-148776190D01*
X126785714Y-148776190D01*
X128309523Y-149252380D02*
X127738095Y-149252380D01*
X128023809Y-149252380D02*
X128023809Y-148252380D01*
X127928571Y-148395238D01*
X127833333Y-148490476D01*
X127738095Y-148538095D01*
X129166666Y-148585714D02*
X129166666Y-149252380D01*
X128928571Y-148204761D02*
X128690476Y-148919047D01*
X129309523Y-148919047D01*
X116585714Y-149052380D02*
X116585714Y-148052380D01*
X116966666Y-148052380D01*
X117061904Y-148100000D01*
X117109523Y-148147619D01*
X117157142Y-148242857D01*
X117157142Y-148385714D01*
X117109523Y-148480952D01*
X117061904Y-148528571D01*
X116966666Y-148576190D01*
X116585714Y-148576190D01*
X118109523Y-149052380D02*
X117538095Y-149052380D01*
X117823809Y-149052380D02*
X117823809Y-148052380D01*
X117728571Y-148195238D01*
X117633333Y-148290476D01*
X117538095Y-148338095D01*
X118680952Y-148480952D02*
X118585714Y-148433333D01*
X118538095Y-148385714D01*
X118490476Y-148290476D01*
X118490476Y-148242857D01*
X118538095Y-148147619D01*
X118585714Y-148100000D01*
X118680952Y-148052380D01*
X118871428Y-148052380D01*
X118966666Y-148100000D01*
X119014285Y-148147619D01*
X119061904Y-148242857D01*
X119061904Y-148290476D01*
X119014285Y-148385714D01*
X118966666Y-148433333D01*
X118871428Y-148480952D01*
X118680952Y-148480952D01*
X118585714Y-148528571D01*
X118538095Y-148576190D01*
X118490476Y-148671428D01*
X118490476Y-148861904D01*
X118538095Y-148957142D01*
X118585714Y-149004761D01*
X118680952Y-149052380D01*
X118871428Y-149052380D01*
X118966666Y-149004761D01*
X119014285Y-148957142D01*
X119061904Y-148861904D01*
X119061904Y-148671428D01*
X119014285Y-148576190D01*
X118966666Y-148528571D01*
X118871428Y-148480952D01*
X153185714Y-71852380D02*
X153185714Y-70852380D01*
X153566666Y-70852380D01*
X153661904Y-70900000D01*
X153709523Y-70947619D01*
X153757142Y-71042857D01*
X153757142Y-71185714D01*
X153709523Y-71280952D01*
X153661904Y-71328571D01*
X153566666Y-71376190D01*
X153185714Y-71376190D01*
X154709523Y-71852380D02*
X154138095Y-71852380D01*
X154423809Y-71852380D02*
X154423809Y-70852380D01*
X154328571Y-70995238D01*
X154233333Y-71090476D01*
X154138095Y-71138095D01*
X155566666Y-70852380D02*
X155376190Y-70852380D01*
X155280952Y-70900000D01*
X155233333Y-70947619D01*
X155138095Y-71090476D01*
X155090476Y-71280952D01*
X155090476Y-71661904D01*
X155138095Y-71757142D01*
X155185714Y-71804761D01*
X155280952Y-71852380D01*
X155471428Y-71852380D01*
X155566666Y-71804761D01*
X155614285Y-71757142D01*
X155661904Y-71661904D01*
X155661904Y-71423809D01*
X155614285Y-71328571D01*
X155566666Y-71280952D01*
X155471428Y-71233333D01*
X155280952Y-71233333D01*
X155185714Y-71280952D01*
X155138095Y-71328571D01*
X155090476Y-71423809D01*
D14*
X158300000Y-128778571D02*
X158300000Y-129850000D01*
X158228571Y-130064285D01*
X158085714Y-130207142D01*
X157871428Y-130278571D01*
X157728571Y-130278571D01*
X159657142Y-129278571D02*
X159657142Y-130278571D01*
X159300000Y-128707142D02*
X158942857Y-129778571D01*
X159871428Y-129778571D01*
D18*
X163461333Y-147443619D02*
X163461333Y-148169333D01*
X163412952Y-148314476D01*
X163316190Y-148411238D01*
X163171047Y-148459619D01*
X163074285Y-148459619D01*
X164477333Y-148459619D02*
X163896761Y-148459619D01*
X164187047Y-148459619D02*
X164187047Y-147443619D01*
X164090285Y-147588761D01*
X163993523Y-147685523D01*
X163896761Y-147733904D01*
D11*
X169746000Y-137344285D02*
X169673428Y-137416857D01*
X169455714Y-137489428D01*
X169310571Y-137489428D01*
X169092857Y-137416857D01*
X168947714Y-137271714D01*
X168875142Y-137126571D01*
X168802571Y-136836285D01*
X168802571Y-136618571D01*
X168875142Y-136328285D01*
X168947714Y-136183142D01*
X169092857Y-136038000D01*
X169310571Y-135965428D01*
X169455714Y-135965428D01*
X169673428Y-136038000D01*
X169746000Y-136110571D01*
X170326571Y-136110571D02*
X170399142Y-136038000D01*
X170544285Y-135965428D01*
X170907142Y-135965428D01*
X171052285Y-136038000D01*
X171124857Y-136110571D01*
X171197428Y-136255714D01*
X171197428Y-136400857D01*
X171124857Y-136618571D01*
X170254000Y-137489428D01*
X171197428Y-137489428D01*
X163546000Y-137544285D02*
X163473428Y-137616857D01*
X163255714Y-137689428D01*
X163110571Y-137689428D01*
X162892857Y-137616857D01*
X162747714Y-137471714D01*
X162675142Y-137326571D01*
X162602571Y-137036285D01*
X162602571Y-136818571D01*
X162675142Y-136528285D01*
X162747714Y-136383142D01*
X162892857Y-136238000D01*
X163110571Y-136165428D01*
X163255714Y-136165428D01*
X163473428Y-136238000D01*
X163546000Y-136310571D01*
X164997428Y-137689428D02*
X164126571Y-137689428D01*
X164562000Y-137689428D02*
X164562000Y-136165428D01*
X164416857Y-136383142D01*
X164271714Y-136528285D01*
X164126571Y-136600857D01*
X131875142Y-72889428D02*
X131875142Y-71365428D01*
X132238000Y-71365428D01*
X132455714Y-71438000D01*
X132600857Y-71583142D01*
X132673428Y-71728285D01*
X132746000Y-72018571D01*
X132746000Y-72236285D01*
X132673428Y-72526571D01*
X132600857Y-72671714D01*
X132455714Y-72816857D01*
X132238000Y-72889428D01*
X131875142Y-72889428D01*
X134124857Y-71365428D02*
X133399142Y-71365428D01*
X133326571Y-72091142D01*
X133399142Y-72018571D01*
X133544285Y-71946000D01*
X133907142Y-71946000D01*
X134052285Y-72018571D01*
X134124857Y-72091142D01*
X134197428Y-72236285D01*
X134197428Y-72599142D01*
X134124857Y-72744285D01*
X134052285Y-72816857D01*
X133907142Y-72889428D01*
X133544285Y-72889428D01*
X133399142Y-72816857D01*
X133326571Y-72744285D01*
D14*
X181500000Y-59178571D02*
X181500000Y-60250000D01*
X181428571Y-60464285D01*
X181285714Y-60607142D01*
X181071428Y-60678571D01*
X180928571Y-60678571D01*
X182071428Y-59178571D02*
X183000000Y-59178571D01*
X182500000Y-59750000D01*
X182714285Y-59750000D01*
X182857142Y-59821428D01*
X182928571Y-59892857D01*
X183000000Y-60035714D01*
X183000000Y-60392857D01*
X182928571Y-60535714D01*
X182857142Y-60607142D01*
X182714285Y-60678571D01*
X182285714Y-60678571D01*
X182142857Y-60607142D01*
X182071428Y-60535714D01*
X184257142Y-47178571D02*
X185114285Y-47178571D01*
X184685714Y-48678571D02*
X184685714Y-47178571D01*
X186114285Y-47892857D02*
X186328571Y-47964285D01*
X186400000Y-48035714D01*
X186471428Y-48178571D01*
X186471428Y-48392857D01*
X186400000Y-48535714D01*
X186328571Y-48607142D01*
X186185714Y-48678571D01*
X185614285Y-48678571D01*
X185614285Y-47178571D01*
X186114285Y-47178571D01*
X186257142Y-47250000D01*
X186328571Y-47321428D01*
X186400000Y-47464285D01*
X186400000Y-47607142D01*
X186328571Y-47750000D01*
X186257142Y-47821428D01*
X186114285Y-47892857D01*
X185614285Y-47892857D01*
X186757142Y-48821428D02*
X187900000Y-48821428D01*
X189042857Y-48678571D02*
X188185714Y-48678571D01*
X188614285Y-48678571D02*
X188614285Y-47178571D01*
X188471428Y-47392857D01*
X188328571Y-47535714D01*
X188185714Y-47607142D01*
X189542857Y-47178571D02*
X190542857Y-48678571D01*
X190542857Y-47178571D02*
X189542857Y-48678571D01*
X190971428Y-47178571D02*
X191900000Y-47178571D01*
X191400000Y-47750000D01*
X191614285Y-47750000D01*
X191757142Y-47821428D01*
X191828571Y-47892857D01*
X191900000Y-48035714D01*
X191900000Y-48392857D01*
X191828571Y-48535714D01*
X191757142Y-48607142D01*
X191614285Y-48678571D01*
X191185714Y-48678571D01*
X191042857Y-48607142D01*
X190971428Y-48535714D01*
X193078571Y-59692857D02*
X193292857Y-59764285D01*
X193364285Y-59835714D01*
X193435714Y-59978571D01*
X193435714Y-60192857D01*
X193364285Y-60335714D01*
X193292857Y-60407142D01*
X193150000Y-60478571D01*
X192578571Y-60478571D01*
X192578571Y-58978571D01*
X193078571Y-58978571D01*
X193221428Y-59050000D01*
X193292857Y-59121428D01*
X193364285Y-59264285D01*
X193364285Y-59407142D01*
X193292857Y-59550000D01*
X193221428Y-59621428D01*
X193078571Y-59692857D01*
X192578571Y-59692857D01*
X193935714Y-58978571D02*
X194935714Y-58978571D01*
X193935714Y-60478571D01*
X194935714Y-60478571D01*
X196292857Y-60478571D02*
X195435714Y-60478571D01*
X195864285Y-60478571D02*
X195864285Y-58978571D01*
X195721428Y-59192857D01*
X195578571Y-59335714D01*
X195435714Y-59407142D01*
X184500000Y-141778571D02*
X184500000Y-142850000D01*
X184428571Y-143064285D01*
X184285714Y-143207142D01*
X184071428Y-143278571D01*
X183928571Y-143278571D01*
X185142857Y-141921428D02*
X185214285Y-141850000D01*
X185357142Y-141778571D01*
X185714285Y-141778571D01*
X185857142Y-141850000D01*
X185928571Y-141921428D01*
X186000000Y-142064285D01*
X186000000Y-142207142D01*
X185928571Y-142421428D01*
X185071428Y-143278571D01*
X186000000Y-143278571D01*
X198278571Y-66642857D02*
X198278571Y-67500000D01*
X198278571Y-67071428D02*
X196778571Y-67071428D01*
X196992857Y-67214285D01*
X197135714Y-67357142D01*
X197207142Y-67500000D01*
X196921428Y-66071428D02*
X196850000Y-66000000D01*
X196778571Y-65857142D01*
X196778571Y-65500000D01*
X196850000Y-65357142D01*
X196921428Y-65285714D01*
X197064285Y-65214285D01*
X197207142Y-65214285D01*
X197421428Y-65285714D01*
X198278571Y-66142857D01*
X198278571Y-65214285D01*
X196778571Y-64785714D02*
X198278571Y-64285714D01*
X196778571Y-63785714D01*
X198278571Y-62142857D02*
X196778571Y-62142857D01*
X198278571Y-61428571D02*
X196778571Y-61428571D01*
X198278571Y-60571428D01*
X196778571Y-60571428D01*
X200050000Y-84142857D02*
X199978571Y-84285714D01*
X199978571Y-84500000D01*
X200050000Y-84714285D01*
X200192857Y-84857142D01*
X200335714Y-84928571D01*
X200621428Y-85000000D01*
X200835714Y-85000000D01*
X201121428Y-84928571D01*
X201264285Y-84857142D01*
X201407142Y-84714285D01*
X201478571Y-84500000D01*
X201478571Y-84357142D01*
X201407142Y-84142857D01*
X201335714Y-84071428D01*
X200835714Y-84071428D01*
X200835714Y-84357142D01*
X201478571Y-83428571D02*
X199978571Y-83428571D01*
X201478571Y-82571428D01*
X199978571Y-82571428D01*
X201478571Y-81857142D02*
X199978571Y-81857142D01*
X199978571Y-81500000D01*
X200050000Y-81285714D01*
X200192857Y-81142857D01*
X200335714Y-81071428D01*
X200621428Y-81000000D01*
X200835714Y-81000000D01*
X201121428Y-81071428D01*
X201264285Y-81142857D01*
X201407142Y-81285714D01*
X201478571Y-81500000D01*
X201478571Y-81857142D01*
X197178571Y-97100000D02*
X198250000Y-97100000D01*
X198464285Y-97171428D01*
X198607142Y-97314285D01*
X198678571Y-97528571D01*
X198678571Y-97671428D01*
X197821428Y-96171428D02*
X197750000Y-96314285D01*
X197678571Y-96385714D01*
X197535714Y-96457142D01*
X197464285Y-96457142D01*
X197321428Y-96385714D01*
X197250000Y-96314285D01*
X197178571Y-96171428D01*
X197178571Y-95885714D01*
X197250000Y-95742857D01*
X197321428Y-95671428D01*
X197464285Y-95600000D01*
X197535714Y-95600000D01*
X197678571Y-95671428D01*
X197750000Y-95742857D01*
X197821428Y-95885714D01*
X197821428Y-96171428D01*
X197892857Y-96314285D01*
X197964285Y-96385714D01*
X198107142Y-96457142D01*
X198392857Y-96457142D01*
X198535714Y-96385714D01*
X198607142Y-96314285D01*
X198678571Y-96171428D01*
X198678571Y-95885714D01*
X198607142Y-95742857D01*
X198535714Y-95671428D01*
X198392857Y-95600000D01*
X198107142Y-95600000D01*
X197964285Y-95671428D01*
X197892857Y-95742857D01*
X197821428Y-95885714D01*
X196978571Y-107300000D02*
X198050000Y-107300000D01*
X198264285Y-107371428D01*
X198407142Y-107514285D01*
X198478571Y-107728571D01*
X198478571Y-107871428D01*
X198478571Y-106514285D02*
X198478571Y-106228571D01*
X198407142Y-106085714D01*
X198335714Y-106014285D01*
X198121428Y-105871428D01*
X197835714Y-105800000D01*
X197264285Y-105800000D01*
X197121428Y-105871428D01*
X197050000Y-105942857D01*
X196978571Y-106085714D01*
X196978571Y-106371428D01*
X197050000Y-106514285D01*
X197121428Y-106585714D01*
X197264285Y-106657142D01*
X197621428Y-106657142D01*
X197764285Y-106585714D01*
X197835714Y-106514285D01*
X197907142Y-106371428D01*
X197907142Y-106085714D01*
X197835714Y-105942857D01*
X197764285Y-105871428D01*
X197621428Y-105800000D01*
X196378571Y-87014285D02*
X197450000Y-87014285D01*
X197664285Y-87085714D01*
X197807142Y-87228571D01*
X197878571Y-87442857D01*
X197878571Y-87585714D01*
X197878571Y-85514285D02*
X197878571Y-86371428D01*
X197878571Y-85942857D02*
X196378571Y-85942857D01*
X196592857Y-86085714D01*
X196735714Y-86228571D01*
X196807142Y-86371428D01*
X197878571Y-84085714D02*
X197878571Y-84942857D01*
X197878571Y-84514285D02*
X196378571Y-84514285D01*
X196592857Y-84657142D01*
X196735714Y-84800000D01*
X196807142Y-84942857D01*
X190752771Y-76111085D02*
X191824200Y-76111085D01*
X192038485Y-76182514D01*
X192181342Y-76325371D01*
X192252771Y-76539657D01*
X192252771Y-76682514D01*
X192252771Y-74611085D02*
X192252771Y-75468228D01*
X192252771Y-75039657D02*
X190752771Y-75039657D01*
X190967057Y-75182514D01*
X191109914Y-75325371D01*
X191181342Y-75468228D01*
X190895628Y-74039657D02*
X190824200Y-73968228D01*
X190752771Y-73825371D01*
X190752771Y-73468228D01*
X190824200Y-73325371D01*
X190895628Y-73253942D01*
X191038485Y-73182514D01*
X191181342Y-73182514D01*
X191395628Y-73253942D01*
X192252771Y-74111085D01*
X192252771Y-73182514D01*
X139185714Y-63378571D02*
X139185714Y-64450000D01*
X139114285Y-64664285D01*
X138971428Y-64807142D01*
X138757142Y-64878571D01*
X138614285Y-64878571D01*
X140685714Y-64878571D02*
X139828571Y-64878571D01*
X140257142Y-64878571D02*
X140257142Y-63378571D01*
X140114285Y-63592857D01*
X139971428Y-63735714D01*
X139828571Y-63807142D01*
X141185714Y-63378571D02*
X142114285Y-63378571D01*
X141614285Y-63950000D01*
X141828571Y-63950000D01*
X141971428Y-64021428D01*
X142042857Y-64092857D01*
X142114285Y-64235714D01*
X142114285Y-64592857D01*
X142042857Y-64735714D01*
X141971428Y-64807142D01*
X141828571Y-64878571D01*
X141400000Y-64878571D01*
X141257142Y-64807142D01*
X141185714Y-64735714D01*
X136707142Y-59778571D02*
X137564285Y-59778571D01*
X137135714Y-61278571D02*
X137135714Y-59778571D01*
X138564285Y-60492857D02*
X138778571Y-60564285D01*
X138850000Y-60635714D01*
X138921428Y-60778571D01*
X138921428Y-60992857D01*
X138850000Y-61135714D01*
X138778571Y-61207142D01*
X138635714Y-61278571D01*
X138064285Y-61278571D01*
X138064285Y-59778571D01*
X138564285Y-59778571D01*
X138707142Y-59850000D01*
X138778571Y-59921428D01*
X138850000Y-60064285D01*
X138850000Y-60207142D01*
X138778571Y-60350000D01*
X138707142Y-60421428D01*
X138564285Y-60492857D01*
X138064285Y-60492857D01*
X139207142Y-61421428D02*
X140350000Y-61421428D01*
X141492857Y-61278571D02*
X140635714Y-61278571D01*
X141064285Y-61278571D02*
X141064285Y-59778571D01*
X140921428Y-59992857D01*
X140778571Y-60135714D01*
X140635714Y-60207142D01*
X141992857Y-59778571D02*
X142992857Y-61278571D01*
X142992857Y-59778571D02*
X141992857Y-61278571D01*
X143421428Y-59778571D02*
X144350000Y-59778571D01*
X143850000Y-60350000D01*
X144064285Y-60350000D01*
X144207142Y-60421428D01*
X144278571Y-60492857D01*
X144350000Y-60635714D01*
X144350000Y-60992857D01*
X144278571Y-61135714D01*
X144207142Y-61207142D01*
X144064285Y-61278571D01*
X143635714Y-61278571D01*
X143492857Y-61207142D01*
X143421428Y-61135714D01*
X184185714Y-138978571D02*
X184185714Y-140050000D01*
X184114285Y-140264285D01*
X183971428Y-140407142D01*
X183757142Y-140478571D01*
X183614285Y-140478571D01*
X185685714Y-140478571D02*
X184828571Y-140478571D01*
X185257142Y-140478571D02*
X185257142Y-138978571D01*
X185114285Y-139192857D01*
X184971428Y-139335714D01*
X184828571Y-139407142D01*
X186971428Y-139478571D02*
X186971428Y-140478571D01*
X186614285Y-138907142D02*
X186257142Y-139978571D01*
X187185714Y-139978571D01*
X183985714Y-144978571D02*
X183985714Y-146050000D01*
X183914285Y-146264285D01*
X183771428Y-146407142D01*
X183557142Y-146478571D01*
X183414285Y-146478571D01*
X185485714Y-146478571D02*
X184628571Y-146478571D01*
X185057142Y-146478571D02*
X185057142Y-144978571D01*
X184914285Y-145192857D01*
X184771428Y-145335714D01*
X184628571Y-145407142D01*
X186842857Y-144978571D02*
X186128571Y-144978571D01*
X186057142Y-145692857D01*
X186128571Y-145621428D01*
X186271428Y-145550000D01*
X186628571Y-145550000D01*
X186771428Y-145621428D01*
X186842857Y-145692857D01*
X186914285Y-145835714D01*
X186914285Y-146192857D01*
X186842857Y-146335714D01*
X186771428Y-146407142D01*
X186628571Y-146478571D01*
X186271428Y-146478571D01*
X186128571Y-146407142D01*
X186057142Y-146335714D01*
X154185714Y-148178571D02*
X154185714Y-149250000D01*
X154114285Y-149464285D01*
X153971428Y-149607142D01*
X153757142Y-149678571D01*
X153614285Y-149678571D01*
X155685714Y-149678571D02*
X154828571Y-149678571D01*
X155257142Y-149678571D02*
X155257142Y-148178571D01*
X155114285Y-148392857D01*
X154971428Y-148535714D01*
X154828571Y-148607142D01*
X156971428Y-148178571D02*
X156685714Y-148178571D01*
X156542857Y-148250000D01*
X156471428Y-148321428D01*
X156328571Y-148535714D01*
X156257142Y-148821428D01*
X156257142Y-149392857D01*
X156328571Y-149535714D01*
X156400000Y-149607142D01*
X156542857Y-149678571D01*
X156828571Y-149678571D01*
X156971428Y-149607142D01*
X157042857Y-149535714D01*
X157114285Y-149392857D01*
X157114285Y-149035714D01*
X157042857Y-148892857D01*
X156971428Y-148821428D01*
X156828571Y-148750000D01*
X156542857Y-148750000D01*
X156400000Y-148821428D01*
X156328571Y-148892857D01*
X156257142Y-149035714D01*
X157985714Y-148178571D02*
X157985714Y-149250000D01*
X157914285Y-149464285D01*
X157771428Y-149607142D01*
X157557142Y-149678571D01*
X157414285Y-149678571D01*
X159485714Y-149678571D02*
X158628571Y-149678571D01*
X159057142Y-149678571D02*
X159057142Y-148178571D01*
X158914285Y-148392857D01*
X158771428Y-148535714D01*
X158628571Y-148607142D01*
X159985714Y-148178571D02*
X160985714Y-148178571D01*
X160342857Y-149678571D01*
X195307142Y-142442857D02*
X195307142Y-141300000D01*
X195878571Y-141871428D02*
X194735714Y-141871428D01*
X194378571Y-139871428D02*
X194378571Y-140585714D01*
X195092857Y-140657142D01*
X195021428Y-140585714D01*
X194950000Y-140442857D01*
X194950000Y-140085714D01*
X195021428Y-139942857D01*
X195092857Y-139871428D01*
X195235714Y-139800000D01*
X195592857Y-139800000D01*
X195735714Y-139871428D01*
X195807142Y-139942857D01*
X195878571Y-140085714D01*
X195878571Y-140442857D01*
X195807142Y-140585714D01*
X195735714Y-140657142D01*
X194378571Y-139371428D02*
X195878571Y-138871428D01*
X194378571Y-138371428D01*
X195878571Y-136728571D02*
X194378571Y-136728571D01*
X195878571Y-136014285D02*
X194378571Y-136014285D01*
X195878571Y-135157142D01*
X194378571Y-135157142D01*
X200650000Y-114942857D02*
X200578571Y-115085714D01*
X200578571Y-115300000D01*
X200650000Y-115514285D01*
X200792857Y-115657142D01*
X200935714Y-115728571D01*
X201221428Y-115800000D01*
X201435714Y-115800000D01*
X201721428Y-115728571D01*
X201864285Y-115657142D01*
X202007142Y-115514285D01*
X202078571Y-115300000D01*
X202078571Y-115157142D01*
X202007142Y-114942857D01*
X201935714Y-114871428D01*
X201435714Y-114871428D01*
X201435714Y-115157142D01*
X202078571Y-114228571D02*
X200578571Y-114228571D01*
X202078571Y-113371428D01*
X200578571Y-113371428D01*
X202078571Y-112657142D02*
X200578571Y-112657142D01*
X200578571Y-112300000D01*
X200650000Y-112085714D01*
X200792857Y-111942857D01*
X200935714Y-111871428D01*
X201221428Y-111800000D01*
X201435714Y-111800000D01*
X201721428Y-111871428D01*
X201864285Y-111942857D01*
X202007142Y-112085714D01*
X202078571Y-112300000D01*
X202078571Y-112657142D01*
D11*
X163689428Y-64724857D02*
X162165428Y-64724857D01*
X163689428Y-63854000D02*
X162818571Y-64507142D01*
X162165428Y-63854000D02*
X163036285Y-64724857D01*
X163689428Y-62402571D02*
X163689428Y-63273428D01*
X163689428Y-62838000D02*
X162165428Y-62838000D01*
X162383142Y-62983142D01*
X162528285Y-63128285D01*
X162600857Y-63273428D01*
X163689428Y-60083428D02*
X162963714Y-60591428D01*
X163689428Y-60954285D02*
X162165428Y-60954285D01*
X162165428Y-60373714D01*
X162238000Y-60228571D01*
X162310571Y-60156000D01*
X162455714Y-60083428D01*
X162673428Y-60083428D01*
X162818571Y-60156000D01*
X162891142Y-60228571D01*
X162963714Y-60373714D01*
X162963714Y-60954285D01*
X162891142Y-59430285D02*
X162891142Y-58922285D01*
X163689428Y-58704571D02*
X163689428Y-59430285D01*
X162165428Y-59430285D01*
X162165428Y-58704571D01*
X163689428Y-57325714D02*
X163689428Y-58051428D01*
X162165428Y-58051428D01*
X163254000Y-56890285D02*
X163254000Y-56164571D01*
X163689428Y-57035428D02*
X162165428Y-56527428D01*
X163689428Y-56019428D01*
X162963714Y-55221142D02*
X163689428Y-55221142D01*
X162165428Y-55729142D02*
X162963714Y-55221142D01*
X162165428Y-54713142D01*
X163834571Y-54568000D02*
X163834571Y-53406857D01*
X163544285Y-52173142D02*
X163616857Y-52245714D01*
X163689428Y-52463428D01*
X163689428Y-52608571D01*
X163616857Y-52826285D01*
X163471714Y-52971428D01*
X163326571Y-53044000D01*
X163036285Y-53116571D01*
X162818571Y-53116571D01*
X162528285Y-53044000D01*
X162383142Y-52971428D01*
X162238000Y-52826285D01*
X162165428Y-52608571D01*
X162165428Y-52463428D01*
X162238000Y-52245714D01*
X162310571Y-52173142D01*
X113275142Y-61089428D02*
X113275142Y-59565428D01*
X114146000Y-61089428D02*
X113492857Y-60218571D01*
X114146000Y-59565428D02*
X113275142Y-60436285D01*
X114654000Y-59565428D02*
X115597428Y-59565428D01*
X115089428Y-60146000D01*
X115307142Y-60146000D01*
X115452285Y-60218571D01*
X115524857Y-60291142D01*
X115597428Y-60436285D01*
X115597428Y-60799142D01*
X115524857Y-60944285D01*
X115452285Y-61016857D01*
X115307142Y-61089428D01*
X114871714Y-61089428D01*
X114726571Y-61016857D01*
X114654000Y-60944285D01*
X107716571Y-64489428D02*
X107208571Y-63763714D01*
X106845714Y-64489428D02*
X106845714Y-62965428D01*
X107426285Y-62965428D01*
X107571428Y-63038000D01*
X107644000Y-63110571D01*
X107716571Y-63255714D01*
X107716571Y-63473428D01*
X107644000Y-63618571D01*
X107571428Y-63691142D01*
X107426285Y-63763714D01*
X106845714Y-63763714D01*
X108369714Y-63691142D02*
X108877714Y-63691142D01*
X109095428Y-64489428D02*
X108369714Y-64489428D01*
X108369714Y-62965428D01*
X109095428Y-62965428D01*
X110474285Y-64489428D02*
X109748571Y-64489428D01*
X109748571Y-62965428D01*
X110909714Y-64054000D02*
X111635428Y-64054000D01*
X110764571Y-64489428D02*
X111272571Y-62965428D01*
X111780571Y-64489428D01*
X112578857Y-63763714D02*
X112578857Y-64489428D01*
X112070857Y-62965428D02*
X112578857Y-63763714D01*
X113086857Y-62965428D01*
X113232000Y-64634571D02*
X114393142Y-64634571D01*
X115626857Y-64344285D02*
X115554285Y-64416857D01*
X115336571Y-64489428D01*
X115191428Y-64489428D01*
X114973714Y-64416857D01*
X114828571Y-64271714D01*
X114756000Y-64126571D01*
X114683428Y-63836285D01*
X114683428Y-63618571D01*
X114756000Y-63328285D01*
X114828571Y-63183142D01*
X114973714Y-63038000D01*
X115191428Y-62965428D01*
X115336571Y-62965428D01*
X115554285Y-63038000D01*
X115626857Y-63110571D01*
X180546000Y-84889428D02*
X180038000Y-84163714D01*
X179675142Y-84889428D02*
X179675142Y-83365428D01*
X180255714Y-83365428D01*
X180400857Y-83438000D01*
X180473428Y-83510571D01*
X180546000Y-83655714D01*
X180546000Y-83873428D01*
X180473428Y-84018571D01*
X180400857Y-84091142D01*
X180255714Y-84163714D01*
X179675142Y-84163714D01*
X181126571Y-83510571D02*
X181199142Y-83438000D01*
X181344285Y-83365428D01*
X181707142Y-83365428D01*
X181852285Y-83438000D01*
X181924857Y-83510571D01*
X181997428Y-83655714D01*
X181997428Y-83800857D01*
X181924857Y-84018571D01*
X181054000Y-84889428D01*
X181997428Y-84889428D01*
X179747714Y-87889428D02*
X178876857Y-87889428D01*
X179312285Y-87889428D02*
X179312285Y-86365428D01*
X179167142Y-86583142D01*
X179022000Y-86728285D01*
X178876857Y-86800857D01*
X180691142Y-86365428D02*
X180836285Y-86365428D01*
X180981428Y-86438000D01*
X181054000Y-86510571D01*
X181126571Y-86655714D01*
X181199142Y-86946000D01*
X181199142Y-87308857D01*
X181126571Y-87599142D01*
X181054000Y-87744285D01*
X180981428Y-87816857D01*
X180836285Y-87889428D01*
X180691142Y-87889428D01*
X180546000Y-87816857D01*
X180473428Y-87744285D01*
X180400857Y-87599142D01*
X180328285Y-87308857D01*
X180328285Y-86946000D01*
X180400857Y-86655714D01*
X180473428Y-86510571D01*
X180546000Y-86438000D01*
X180691142Y-86365428D01*
X181852285Y-87889428D02*
X181852285Y-86365428D01*
X182723142Y-87889428D02*
X182070000Y-87018571D01*
X182723142Y-86365428D02*
X181852285Y-87236285D01*
X167871000Y-85964428D02*
X167363000Y-85238714D01*
X167000142Y-85964428D02*
X167000142Y-84440428D01*
X167580714Y-84440428D01*
X167725857Y-84513000D01*
X167798428Y-84585571D01*
X167871000Y-84730714D01*
X167871000Y-84948428D01*
X167798428Y-85093571D01*
X167725857Y-85166142D01*
X167580714Y-85238714D01*
X167000142Y-85238714D01*
X169177285Y-84948428D02*
X169177285Y-85964428D01*
X168814428Y-84367857D02*
X168451571Y-85456428D01*
X169395000Y-85456428D01*
X167022714Y-88514428D02*
X166151857Y-88514428D01*
X166587285Y-88514428D02*
X166587285Y-86990428D01*
X166442142Y-87208142D01*
X166297000Y-87353285D01*
X166151857Y-87425857D01*
X167966142Y-86990428D02*
X168111285Y-86990428D01*
X168256428Y-87063000D01*
X168329000Y-87135571D01*
X168401571Y-87280714D01*
X168474142Y-87571000D01*
X168474142Y-87933857D01*
X168401571Y-88224142D01*
X168329000Y-88369285D01*
X168256428Y-88441857D01*
X168111285Y-88514428D01*
X167966142Y-88514428D01*
X167821000Y-88441857D01*
X167748428Y-88369285D01*
X167675857Y-88224142D01*
X167603285Y-87933857D01*
X167603285Y-87571000D01*
X167675857Y-87280714D01*
X167748428Y-87135571D01*
X167821000Y-87063000D01*
X167966142Y-86990428D01*
X169127285Y-88514428D02*
X169127285Y-86990428D01*
X169998142Y-88514428D02*
X169345000Y-87643571D01*
X169998142Y-86990428D02*
X169127285Y-87861285D01*
X123696000Y-87139428D02*
X123188000Y-86413714D01*
X122825142Y-87139428D02*
X122825142Y-85615428D01*
X123405714Y-85615428D01*
X123550857Y-85688000D01*
X123623428Y-85760571D01*
X123696000Y-85905714D01*
X123696000Y-86123428D01*
X123623428Y-86268571D01*
X123550857Y-86341142D01*
X123405714Y-86413714D01*
X122825142Y-86413714D01*
X125074857Y-85615428D02*
X124349142Y-85615428D01*
X124276571Y-86341142D01*
X124349142Y-86268571D01*
X124494285Y-86196000D01*
X124857142Y-86196000D01*
X125002285Y-86268571D01*
X125074857Y-86341142D01*
X125147428Y-86486285D01*
X125147428Y-86849142D01*
X125074857Y-86994285D01*
X125002285Y-87066857D01*
X124857142Y-87139428D01*
X124494285Y-87139428D01*
X124349142Y-87066857D01*
X124276571Y-86994285D01*
X122247714Y-84489428D02*
X121376857Y-84489428D01*
X121812285Y-84489428D02*
X121812285Y-82965428D01*
X121667142Y-83183142D01*
X121522000Y-83328285D01*
X121376857Y-83400857D01*
X123191142Y-82965428D02*
X123336285Y-82965428D01*
X123481428Y-83038000D01*
X123554000Y-83110571D01*
X123626571Y-83255714D01*
X123699142Y-83546000D01*
X123699142Y-83908857D01*
X123626571Y-84199142D01*
X123554000Y-84344285D01*
X123481428Y-84416857D01*
X123336285Y-84489428D01*
X123191142Y-84489428D01*
X123046000Y-84416857D01*
X122973428Y-84344285D01*
X122900857Y-84199142D01*
X122828285Y-83908857D01*
X122828285Y-83546000D01*
X122900857Y-83255714D01*
X122973428Y-83110571D01*
X123046000Y-83038000D01*
X123191142Y-82965428D01*
X124352285Y-84489428D02*
X124352285Y-82965428D01*
X125223142Y-84489428D02*
X124570000Y-83618571D01*
X125223142Y-82965428D02*
X124352285Y-83836285D01*
D18*
X168177523Y-147443619D02*
X168177523Y-148169333D01*
X168129142Y-148314476D01*
X168032380Y-148411238D01*
X167887238Y-148459619D01*
X167790476Y-148459619D01*
X168612952Y-147540380D02*
X168661333Y-147492000D01*
X168758095Y-147443619D01*
X169000000Y-147443619D01*
X169096761Y-147492000D01*
X169145142Y-147540380D01*
X169193523Y-147637142D01*
X169193523Y-147733904D01*
X169145142Y-147879047D01*
X168564571Y-148459619D01*
X169193523Y-148459619D01*
X169822476Y-147443619D02*
X169919238Y-147443619D01*
X170016000Y-147492000D01*
X170064380Y-147540380D01*
X170112761Y-147637142D01*
X170161142Y-147830666D01*
X170161142Y-148072571D01*
X170112761Y-148266095D01*
X170064380Y-148362857D01*
X170016000Y-148411238D01*
X169919238Y-148459619D01*
X169822476Y-148459619D01*
X169725714Y-148411238D01*
X169677333Y-148362857D01*
X169628952Y-148266095D01*
X169580571Y-148072571D01*
X169580571Y-147830666D01*
X169628952Y-147637142D01*
X169677333Y-147540380D01*
X169725714Y-147492000D01*
X169822476Y-147443619D01*
D14*
X185150000Y-129478571D02*
X184650000Y-128764285D01*
X184292857Y-129478571D02*
X184292857Y-127978571D01*
X184864285Y-127978571D01*
X185007142Y-128050000D01*
X185078571Y-128121428D01*
X185150000Y-128264285D01*
X185150000Y-128478571D01*
X185078571Y-128621428D01*
X185007142Y-128692857D01*
X184864285Y-128764285D01*
X184292857Y-128764285D01*
X186578571Y-129478571D02*
X185721428Y-129478571D01*
X186150000Y-129478571D02*
X186150000Y-127978571D01*
X186007142Y-128192857D01*
X185864285Y-128335714D01*
X185721428Y-128407142D01*
X185150000Y-132878571D02*
X184650000Y-132164285D01*
X184292857Y-132878571D02*
X184292857Y-131378571D01*
X184864285Y-131378571D01*
X185007142Y-131450000D01*
X185078571Y-131521428D01*
X185150000Y-131664285D01*
X185150000Y-131878571D01*
X185078571Y-132021428D01*
X185007142Y-132092857D01*
X184864285Y-132164285D01*
X184292857Y-132164285D01*
X185650000Y-131378571D02*
X186578571Y-131378571D01*
X186078571Y-131950000D01*
X186292857Y-131950000D01*
X186435714Y-132021428D01*
X186507142Y-132092857D01*
X186578571Y-132235714D01*
X186578571Y-132592857D01*
X186507142Y-132735714D01*
X186435714Y-132807142D01*
X186292857Y-132878571D01*
X185864285Y-132878571D01*
X185721428Y-132807142D01*
X185650000Y-132735714D01*
M02*
