G04 #@! TF.GenerationSoftware,KiCad,Pcbnew,5.1.7-a382d34a8~87~ubuntu20.04.1*
G04 #@! TF.CreationDate,2020-11-27T04:13:02-03:00*
G04 #@! TF.ProjectId,robot uve,726f626f-7420-4757-9665-2e6b69636164,rev?*
G04 #@! TF.SameCoordinates,Original*
G04 #@! TF.FileFunction,Soldermask,Bot*
G04 #@! TF.FilePolarity,Negative*
%FSLAX46Y46*%
G04 Gerber Fmt 4.6, Leading zero omitted, Abs format (unit mm)*
G04 Created by KiCad (PCBNEW 5.1.7-a382d34a8~87~ubuntu20.04.1) date 2020-11-27 04:13:02*
%MOMM*%
%LPD*%
G01*
G04 APERTURE LIST*
%ADD10R,1.998980X1.998980*%
%ADD11C,1.998980*%
%ADD12R,2.200000X1.750000*%
%ADD13O,2.200000X1.750000*%
%ADD14C,2.000000*%
%ADD15R,2.000000X2.000000*%
%ADD16R,1.750000X2.200000*%
%ADD17O,1.750000X2.200000*%
%ADD18O,1.750000X2.199640*%
%ADD19R,1.750000X2.199640*%
%ADD20C,1.524000*%
%ADD21R,1.524000X1.524000*%
%ADD22C,2.500000*%
%ADD23C,1.727200*%
%ADD24O,1.727200X1.727200*%
%ADD25O,1.727200X2.032000*%
%ADD26C,4.064000*%
%ADD27C,2.200000*%
%ADD28C,2.600000*%
%ADD29C,2.800000*%
%ADD30R,0.599440X1.000760*%
%ADD31R,0.850900X0.850900*%
G04 APERTURE END LIST*
D10*
X177730000Y-72350000D03*
D11*
X167570000Y-72350000D03*
D12*
X194850000Y-123410000D03*
D13*
X194850000Y-125950000D03*
X194850000Y-128490000D03*
X194850000Y-131030000D03*
X194850000Y-120570000D03*
X194850000Y-118030000D03*
X194850000Y-115490000D03*
D12*
X194850000Y-112950000D03*
D14*
X146930000Y-132420000D03*
X149470000Y-132420000D03*
X146930000Y-134960000D03*
X149470000Y-134960000D03*
X146930000Y-137500000D03*
X149470000Y-137500000D03*
X146930000Y-140040000D03*
X149470000Y-140040000D03*
X146930000Y-142580000D03*
D15*
X149470000Y-142580000D03*
D14*
X136930000Y-132420000D03*
X139470000Y-132420000D03*
X136930000Y-134960000D03*
X139470000Y-134960000D03*
X136930000Y-137500000D03*
X139470000Y-137500000D03*
X136930000Y-140040000D03*
X139470000Y-140040000D03*
X136930000Y-142580000D03*
D15*
X139470000Y-142580000D03*
D14*
X126930000Y-132420000D03*
X129470000Y-132420000D03*
X126930000Y-134960000D03*
X129470000Y-134960000D03*
X126930000Y-137500000D03*
X129470000Y-137500000D03*
X126930000Y-140040000D03*
X129470000Y-140040000D03*
X126930000Y-142580000D03*
D15*
X129470000Y-142580000D03*
D14*
X116930000Y-132420000D03*
X119470000Y-132420000D03*
X116930000Y-134960000D03*
X119470000Y-134960000D03*
X116930000Y-137500000D03*
X119470000Y-137500000D03*
X116930000Y-140040000D03*
X119470000Y-140040000D03*
X116930000Y-142580000D03*
D15*
X119470000Y-142580000D03*
D14*
X153730000Y-54920000D03*
X156270000Y-54920000D03*
X153730000Y-57460000D03*
X156270000Y-57460000D03*
X153730000Y-60000000D03*
X156270000Y-60000000D03*
X153730000Y-62540000D03*
X156270000Y-62540000D03*
X153730000Y-65080000D03*
D15*
X156270000Y-65080000D03*
D16*
X155310000Y-132300000D03*
D17*
X157850000Y-132300000D03*
X160390000Y-132300000D03*
X162930000Y-132300000D03*
D18*
X165470000Y-145917500D03*
D19*
X162930000Y-145917500D03*
D20*
X171000000Y-141400000D03*
D21*
X169000000Y-141400000D03*
X165000000Y-141200000D03*
D20*
X163000000Y-141200000D03*
D10*
X129175000Y-71950000D03*
D11*
X119015000Y-71950000D03*
D22*
X188100000Y-53800000D03*
X193180000Y-53800000D03*
X183020000Y-53800000D03*
D23*
X187358000Y-81354000D03*
D24*
X189898000Y-81354000D03*
X187358000Y-83894000D03*
X189898000Y-83894000D03*
X187358000Y-86434000D03*
X189898000Y-86434000D03*
X187358000Y-88974000D03*
X189898000Y-88974000D03*
X187358000Y-91514000D03*
X189898000Y-91514000D03*
X187358000Y-94054000D03*
X189898000Y-94054000D03*
X187358000Y-96594000D03*
X189898000Y-96594000D03*
X187358000Y-99134000D03*
X189898000Y-99134000D03*
X187358000Y-101674000D03*
X189898000Y-101674000D03*
X187358000Y-104214000D03*
X189898000Y-104214000D03*
X187358000Y-106754000D03*
X189898000Y-106754000D03*
X187358000Y-109294000D03*
X189898000Y-109294000D03*
X187358000Y-111834000D03*
X189898000Y-111834000D03*
X187358000Y-114374000D03*
X189898000Y-114374000D03*
X187358000Y-116914000D03*
X189898000Y-116914000D03*
X187358000Y-119454000D03*
X189898000Y-119454000D03*
X187358000Y-121994000D03*
X189898000Y-121994000D03*
X187358000Y-124534000D03*
X189898000Y-124534000D03*
D25*
X121318000Y-76274000D03*
X123858000Y-76274000D03*
X126398000Y-76274000D03*
X128938000Y-76274000D03*
X131478000Y-76274000D03*
X134018000Y-76274000D03*
X136558000Y-76274000D03*
X139098000Y-76274000D03*
X144178000Y-76274000D03*
X146718000Y-76274000D03*
X149258000Y-76274000D03*
X151798000Y-76274000D03*
X154338000Y-76274000D03*
X156878000Y-76274000D03*
X159418000Y-76274000D03*
X161958000Y-76274000D03*
X167038000Y-76274000D03*
X169578000Y-76274000D03*
X172118000Y-76274000D03*
X174658000Y-76274000D03*
X177198000Y-76274000D03*
X179738000Y-76274000D03*
X182278000Y-76274000D03*
X184818000Y-76274000D03*
X112174000Y-124534000D03*
X114714000Y-124534000D03*
X117254000Y-124534000D03*
X119794000Y-124534000D03*
X122334000Y-124534000D03*
X124874000Y-124534000D03*
X127414000Y-124534000D03*
X129954000Y-124534000D03*
X132494000Y-124534000D03*
X135034000Y-124534000D03*
X139098000Y-124534000D03*
X141638000Y-124534000D03*
X144178000Y-124534000D03*
X146718000Y-124534000D03*
X149258000Y-124534000D03*
X151798000Y-124534000D03*
X154338000Y-124534000D03*
X156878000Y-124534000D03*
X161958000Y-124534000D03*
X164498000Y-124534000D03*
X167038000Y-124534000D03*
X169578000Y-124534000D03*
X172118000Y-124534000D03*
X174658000Y-124534000D03*
X177198000Y-124534000D03*
X179738000Y-124534000D03*
D26*
X107348000Y-124126000D03*
X159418000Y-81354000D03*
X189898000Y-76274000D03*
X108618000Y-75866000D03*
X159418000Y-109294000D03*
X183548000Y-124534000D03*
D14*
X184050000Y-65425000D03*
X191650000Y-65425000D03*
D16*
X174660000Y-142612000D03*
D17*
X177200000Y-142612000D03*
X179740000Y-142612000D03*
X182280000Y-142612000D03*
D22*
X201000000Y-61260000D03*
X201000000Y-66340000D03*
X200950000Y-76790000D03*
X200950000Y-71710000D03*
D13*
X194800000Y-99810000D03*
X194800000Y-97270000D03*
X194800000Y-94730000D03*
D12*
X194800000Y-92190000D03*
X194850000Y-102640000D03*
D13*
X194850000Y-105180000D03*
X194850000Y-107720000D03*
X194850000Y-110260000D03*
D12*
X194800000Y-81790000D03*
D13*
X194800000Y-84330000D03*
X194800000Y-86870000D03*
X194800000Y-89410000D03*
D12*
X194800000Y-71290000D03*
D13*
X194800000Y-73830000D03*
X194800000Y-76370000D03*
X194800000Y-78910000D03*
D22*
X135470000Y-53875000D03*
X145630000Y-53875000D03*
X140550000Y-53875000D03*
D17*
X182310000Y-139650000D03*
X179770000Y-139650000D03*
X177230000Y-139650000D03*
D16*
X174690000Y-139650000D03*
D17*
X182285000Y-145575000D03*
X179745000Y-145575000D03*
X177205000Y-145575000D03*
D16*
X174665000Y-145575000D03*
D12*
X155200000Y-146620000D03*
D13*
X155200000Y-144080000D03*
X155200000Y-141540000D03*
X155200000Y-139000000D03*
X159400000Y-139060000D03*
X159400000Y-141600000D03*
X159400000Y-144140000D03*
D12*
X159400000Y-146680000D03*
D22*
X201400000Y-129660000D03*
X201400000Y-134740000D03*
X201400000Y-124290000D03*
X201400000Y-119210000D03*
D27*
X178250000Y-66150000D03*
D28*
X178250000Y-53950000D03*
X166250000Y-53950000D03*
D27*
X166250000Y-66150000D03*
D29*
X172250000Y-68150000D03*
X124425000Y-68250000D03*
D27*
X118425000Y-66250000D03*
D28*
X118425000Y-54050000D03*
X130425000Y-54050000D03*
D27*
X130425000Y-66250000D03*
D30*
X184752500Y-73056640D03*
X183800000Y-70943360D03*
X182847500Y-73056640D03*
X165502500Y-74456640D03*
X164550000Y-72343360D03*
X163597500Y-74456640D03*
X117997500Y-79906640D03*
X118950000Y-77793360D03*
X119902500Y-79906640D03*
D11*
X183340000Y-81400000D03*
X178260000Y-81400000D03*
X172000000Y-82800000D03*
X172000000Y-87880000D03*
X119900000Y-88705000D03*
X119900000Y-83625000D03*
D31*
X189473860Y-65400000D03*
X186126140Y-65400000D03*
D19*
X170870000Y-145882500D03*
D18*
X168330000Y-145882500D03*
D11*
X174390000Y-129200000D03*
X182010000Y-129200000D03*
X182010000Y-132400000D03*
X174390000Y-132400000D03*
D12*
X181600000Y-111720000D03*
D13*
X181600000Y-114260000D03*
X181600000Y-116800000D03*
X181600000Y-119340000D03*
M02*
