M48
; DRILL file {KiCad 5.1.7-a382d34a8~87~ubuntu20.04.1} date Fri Nov 27 04:13:25 2020
; FORMAT={-:-/ absolute / metric / decimal}
; #@! TF.CreationDate,2020-11-27T04:13:25-03:00
; #@! TF.GenerationSoftware,Kicad,Pcbnew,5.1.7-a382d34a8~87~ubuntu20.04.1
FMAT,2
METRIC
T1C0.400
T2C0.650
T3C0.800
T4C0.800
T5C1.000
T6C1.001
T7C1.016
T8C1.300
T9C1.400
T10C3.000
T11C3.048
%
G90
G05
T1
X108.7Y-128.25
X112.0Y-128.25
X131.5Y-87.2
X131.5Y-94.1
X150.8Y-146.8
X153.6Y-146.8
X154.8Y-136.55
X158.95Y-136.55
X161.2Y-135.3
X164.7Y-135.3
X165.1Y-93.5
X171.1Y-93.5
X181.65Y-79.0
X188.15Y-79.0
X195.35Y-138.7
X196.55Y-89.4
X196.6Y-120.6
X196.64Y-99.81
X196.65Y-110.25
X196.7Y-79.2
X199.25Y-79.2
X199.7Y-110.25
X199.7Y-120.6
X199.8Y-89.4
X199.8Y-99.8
X200.15Y-138.7
T2
X169.0Y-141.4
X171.0Y-141.4
X163.0Y-141.2
X165.0Y-141.2
T3
X184.05Y-65.425
X191.65Y-65.425
T4
X119.9Y-83.625
X119.9Y-88.705
X178.26Y-81.4
X183.34Y-81.4
X172.0Y-82.8
X172.0Y-87.88
X174.39Y-132.4
X182.01Y-132.4
X174.39Y-129.2
X182.01Y-129.2
T5
X153.73Y-54.92
X153.73Y-57.46
X153.73Y-60.0
X153.73Y-62.54
X153.73Y-65.08
X156.27Y-54.92
X156.27Y-57.46
X156.27Y-60.0
X156.27Y-62.54
X156.27Y-65.08
X126.93Y-132.42
X126.93Y-134.96
X126.93Y-137.5
X126.93Y-140.04
X126.93Y-142.58
X129.47Y-132.42
X129.47Y-134.96
X129.47Y-137.5
X129.47Y-140.04
X129.47Y-142.58
X136.93Y-132.42
X136.93Y-134.96
X136.93Y-137.5
X136.93Y-140.04
X136.93Y-142.58
X139.47Y-132.42
X139.47Y-134.96
X139.47Y-137.5
X139.47Y-140.04
X139.47Y-142.58
X146.93Y-132.42
X146.93Y-134.96
X146.93Y-137.5
X146.93Y-140.04
X146.93Y-142.58
X149.47Y-132.42
X149.47Y-134.96
X149.47Y-137.5
X149.47Y-140.04
X149.47Y-142.58
X116.93Y-132.42
X116.93Y-134.96
X116.93Y-137.5
X116.93Y-140.04
X116.93Y-142.58
X119.47Y-132.42
X119.47Y-134.96
X119.47Y-137.5
X119.47Y-140.04
X119.47Y-142.58
T6
X194.8Y-71.29
X194.8Y-73.83
X194.8Y-76.37
X194.8Y-78.91
X174.69Y-139.65
X177.23Y-139.65
X179.77Y-139.65
X182.31Y-139.65
X174.66Y-142.612
X177.2Y-142.612
X179.74Y-142.612
X182.28Y-142.612
X155.31Y-132.3
X157.85Y-132.3
X160.39Y-132.3
X162.93Y-132.3
X194.8Y-92.19
X194.8Y-94.73
X194.8Y-97.27
X194.8Y-99.81
X194.85Y-123.41
X194.85Y-125.95
X194.85Y-128.49
X194.85Y-131.03
X168.33Y-145.882
X170.87Y-145.882
X194.85Y-102.64
X194.85Y-105.18
X194.85Y-107.72
X194.85Y-110.26
X167.57Y-72.35
X177.73Y-72.35
X181.6Y-111.72
X181.6Y-114.26
X181.6Y-116.8
X181.6Y-119.34
X194.85Y-112.95
X194.85Y-115.49
X194.85Y-118.03
X194.85Y-120.57
X155.2Y-139.0
X155.2Y-141.54
X155.2Y-144.08
X155.2Y-146.62
X159.4Y-139.06
X159.4Y-141.6
X159.4Y-144.14
X159.4Y-146.68
X162.93Y-145.917
X165.47Y-145.917
X119.015Y-71.95
X129.175Y-71.95
X194.8Y-81.79
X194.8Y-84.33
X194.8Y-86.87
X194.8Y-89.41
X174.665Y-145.575
X177.205Y-145.575
X179.745Y-145.575
X182.285Y-145.575
T7
X112.174Y-124.534
X114.714Y-124.534
X117.254Y-124.534
X119.794Y-124.534
X122.334Y-124.534
X124.874Y-124.534
X127.414Y-124.534
X129.954Y-124.534
X132.494Y-124.534
X135.034Y-124.534
X139.098Y-124.534
X141.638Y-124.534
X144.178Y-124.534
X146.718Y-124.534
X149.258Y-124.534
X151.798Y-124.534
X154.338Y-124.534
X156.878Y-124.534
X167.038Y-76.274
X169.578Y-76.274
X172.118Y-76.274
X174.658Y-76.274
X177.198Y-76.274
X179.738Y-76.274
X182.278Y-76.274
X184.818Y-76.274
X144.178Y-76.274
X146.718Y-76.274
X149.258Y-76.274
X151.798Y-76.274
X154.338Y-76.274
X156.878Y-76.274
X159.418Y-76.274
X161.958Y-76.274
X187.358Y-81.354
X187.358Y-83.894
X187.358Y-86.434
X187.358Y-88.974
X187.358Y-91.514
X187.358Y-94.054
X187.358Y-96.594
X187.358Y-99.134
X187.358Y-101.674
X187.358Y-104.214
X187.358Y-106.754
X187.358Y-109.294
X187.358Y-111.834
X187.358Y-114.374
X187.358Y-116.914
X187.358Y-119.454
X187.358Y-121.994
X187.358Y-124.534
X189.898Y-81.354
X189.898Y-83.894
X189.898Y-86.434
X189.898Y-88.974
X189.898Y-91.514
X189.898Y-94.054
X189.898Y-96.594
X189.898Y-99.134
X189.898Y-101.674
X189.898Y-104.214
X189.898Y-106.754
X189.898Y-109.294
X189.898Y-111.834
X189.898Y-114.374
X189.898Y-116.914
X189.898Y-119.454
X189.898Y-121.994
X189.898Y-124.534
X161.958Y-124.534
X164.498Y-124.534
X167.038Y-124.534
X169.578Y-124.534
X172.118Y-124.534
X174.658Y-124.534
X177.198Y-124.534
X179.738Y-124.534
X121.318Y-76.274
X123.858Y-76.274
X126.398Y-76.274
X128.938Y-76.274
X131.478Y-76.274
X134.018Y-76.274
X136.558Y-76.274
X139.098Y-76.274
T8
X201.4Y-119.21
X201.4Y-124.29
X118.425Y-54.05
X118.425Y-66.25
X130.425Y-54.05
X130.425Y-66.25
X135.47Y-53.875
X140.55Y-53.875
X145.63Y-53.875
X200.95Y-71.71
X200.95Y-76.79
X201.0Y-61.26
X201.0Y-66.34
X201.4Y-129.66
X201.4Y-134.74
X166.25Y-53.95
X166.25Y-66.15
X178.25Y-53.95
X178.25Y-66.15
X183.02Y-53.8
X188.1Y-53.8
X193.18Y-53.8
T9
X124.425Y-68.25
X172.25Y-68.15
T10
X200.0Y-55.0
X110.0Y-55.0
X110.0Y-145.0
X200.0Y-145.0
T11
X183.548Y-124.534
X159.418Y-81.354
X107.348Y-124.126
X159.418Y-109.294
X189.898Y-76.274
X108.618Y-75.866
T0
M30
