G04 #@! TF.GenerationSoftware,KiCad,Pcbnew,5.1.7-a382d34a8~87~ubuntu20.04.1*
G04 #@! TF.CreationDate,2020-11-26T22:00:02-03:00*
G04 #@! TF.ProjectId,robot uve,726f626f-7420-4757-9665-2e6b69636164,rev?*
G04 #@! TF.SameCoordinates,Original*
G04 #@! TF.FileFunction,Legend,Top*
G04 #@! TF.FilePolarity,Positive*
%FSLAX46Y46*%
G04 Gerber Fmt 4.6, Leading zero omitted, Abs format (unit mm)*
G04 Created by KiCad (PCBNEW 5.1.7-a382d34a8~87~ubuntu20.04.1) date 2020-11-26 22:00:02*
%MOMM*%
%LPD*%
G01*
G04 APERTURE LIST*
%ADD10C,0.010000*%
%ADD11C,0.304800*%
%ADD12C,0.150000*%
%ADD13C,0.300000*%
%ADD14C,0.254000*%
%ADD15C,0.381000*%
%ADD16C,0.378460*%
%ADD17C,0.508000*%
%ADD18C,0.203200*%
G04 APERTURE END LIST*
D10*
G36*
X133260865Y-84655123D02*
G01*
X133875329Y-84722973D01*
X134249001Y-84843915D01*
X134423815Y-85024501D01*
X134450724Y-85169543D01*
X134369622Y-85468920D01*
X134149912Y-86018642D01*
X133826987Y-86744658D01*
X133436243Y-87572920D01*
X133013074Y-88429376D01*
X132592875Y-89239976D01*
X132211039Y-89930670D01*
X132032245Y-90229348D01*
X131771272Y-90673381D01*
X131389785Y-91355133D01*
X130936836Y-92185586D01*
X130461475Y-93075723D01*
X130409494Y-93174275D01*
X129899188Y-94133231D01*
X129371581Y-95108079D01*
X128889144Y-95984327D01*
X128516662Y-96643476D01*
X128152416Y-97329637D01*
X127958238Y-97823719D01*
X127955208Y-98071889D01*
X127956727Y-98073466D01*
X128186008Y-98122088D01*
X128734471Y-98160233D01*
X129553298Y-98186567D01*
X130593667Y-98199756D01*
X131806760Y-98198467D01*
X132346801Y-98193396D01*
X133695813Y-98175245D01*
X134712366Y-98154775D01*
X135432120Y-98129171D01*
X135890731Y-98095616D01*
X136123859Y-98051295D01*
X136167160Y-97993392D01*
X136056294Y-97919090D01*
X136021460Y-97903202D01*
X135622911Y-97719992D01*
X134995205Y-97423041D01*
X134239760Y-97060559D01*
X133766749Y-96831371D01*
X132057971Y-96000179D01*
X132057971Y-95038169D01*
X132075238Y-94783325D01*
X132459580Y-94783325D01*
X132488868Y-95367238D01*
X132677449Y-95748400D01*
X132928318Y-95944082D01*
X133428797Y-96238763D01*
X134089253Y-96588529D01*
X134820052Y-96949464D01*
X135531562Y-97277654D01*
X136134151Y-97529184D01*
X136538186Y-97660139D01*
X136597227Y-97668862D01*
X136757827Y-97516031D01*
X136901113Y-97115750D01*
X136936110Y-96943896D01*
X136986054Y-96324253D01*
X136962535Y-95621469D01*
X136879455Y-94948398D01*
X136750716Y-94417894D01*
X136591129Y-94143398D01*
X136324209Y-94083337D01*
X135784422Y-94036303D01*
X135066966Y-94009222D01*
X134693944Y-94005354D01*
X133812143Y-94020633D01*
X133226714Y-94076783D01*
X132867192Y-94184004D01*
X132715321Y-94291770D01*
X132459580Y-94783325D01*
X132075238Y-94783325D01*
X132097985Y-94447609D01*
X132200220Y-93997248D01*
X132278840Y-93855290D01*
X132545843Y-93767500D01*
X133090881Y-93701020D01*
X133824443Y-93656747D01*
X134657015Y-93635576D01*
X135499083Y-93638405D01*
X136261135Y-93666128D01*
X136853657Y-93719643D01*
X137187137Y-93799846D01*
X137197774Y-93806042D01*
X137339526Y-94070887D01*
X137451934Y-94603567D01*
X137529078Y-95304546D01*
X137565039Y-96074290D01*
X137553897Y-96813263D01*
X137489733Y-97421931D01*
X137427644Y-97671041D01*
X137316124Y-98050693D01*
X137400708Y-98205121D01*
X137759956Y-98235696D01*
X137865372Y-98235869D01*
X138287387Y-98191418D01*
X138495415Y-98082324D01*
X138500000Y-98061367D01*
X138610425Y-97844698D01*
X138902195Y-97432261D01*
X139316054Y-96906893D01*
X139388738Y-96818976D01*
X140499220Y-95763274D01*
X141814190Y-94987294D01*
X143277263Y-94511033D01*
X144832057Y-94354490D01*
X146036826Y-94461043D01*
X146755610Y-94616520D01*
X147388161Y-94809119D01*
X147775273Y-94985051D01*
X148135451Y-95201914D01*
X148340625Y-95290942D01*
X148376883Y-95118152D01*
X148407130Y-94644826D01*
X148428649Y-93938529D01*
X148438719Y-93066825D01*
X148439130Y-92842971D01*
X148455647Y-91647486D01*
X148505807Y-90807603D01*
X148590525Y-90312262D01*
X148660000Y-90174130D01*
X148974149Y-90055937D01*
X149612540Y-89980711D01*
X150533280Y-89953295D01*
X150571142Y-89953261D01*
X151369208Y-89958924D01*
X151873970Y-89987375D01*
X152160194Y-90055803D01*
X152302648Y-90181399D01*
X152372396Y-90367391D01*
X152406450Y-90673250D01*
X152436530Y-91284051D01*
X152460904Y-92136626D01*
X152477842Y-93167808D01*
X152485613Y-94314430D01*
X152485892Y-94508695D01*
X152488406Y-98235869D01*
X153023090Y-98235869D01*
X153390647Y-98173957D01*
X153691680Y-97934257D01*
X154026608Y-97435830D01*
X154036442Y-97419084D01*
X154889391Y-96325502D01*
X156041351Y-95438135D01*
X157482114Y-94763467D01*
X158810916Y-94386631D01*
X160098199Y-94273161D01*
X161494233Y-94444745D01*
X162895450Y-94885719D01*
X163293896Y-95064604D01*
X164051412Y-95520123D01*
X164824275Y-96133388D01*
X165512202Y-96811368D01*
X166014908Y-97461030D01*
X166152874Y-97716849D01*
X166477765Y-98142410D01*
X166788437Y-98235869D01*
X167040933Y-98214591D01*
X167101959Y-98085343D01*
X166990516Y-97750004D01*
X166916948Y-97572169D01*
X166722902Y-97116761D01*
X166537560Y-96712164D01*
X166291188Y-96209413D01*
X166108695Y-95845613D01*
X165960914Y-95364373D01*
X165933749Y-95104509D01*
X166466325Y-95104509D01*
X166593830Y-95554388D01*
X166787614Y-95997233D01*
X167133081Y-96787855D01*
X167496368Y-97670766D01*
X167680699Y-98143840D01*
X167952727Y-98817441D01*
X168299387Y-99609630D01*
X168682482Y-100440755D01*
X169063819Y-101231163D01*
X169405203Y-101901204D01*
X169668439Y-102371226D01*
X169790354Y-102543325D01*
X169950882Y-102874977D01*
X169973913Y-103058188D01*
X170118758Y-103335446D01*
X170365036Y-103389493D01*
X170629688Y-103337719D01*
X170688361Y-103110766D01*
X170645724Y-102837319D01*
X170615487Y-102469203D01*
X171262319Y-102469203D01*
X171329663Y-102620703D01*
X171385024Y-102591908D01*
X171407052Y-102373474D01*
X171385024Y-102346497D01*
X171275602Y-102371763D01*
X171262319Y-102469203D01*
X170615487Y-102469203D01*
X170612512Y-102432992D01*
X170751472Y-102289282D01*
X170806775Y-102285145D01*
X171023944Y-102124872D01*
X171078261Y-101825000D01*
X171162923Y-101461099D01*
X171352793Y-101377537D01*
X171551697Y-101610767D01*
X171563874Y-101640942D01*
X171744540Y-101884503D01*
X171834185Y-101917029D01*
X171977814Y-101771399D01*
X171968728Y-101421419D01*
X171830811Y-101040256D01*
X171673399Y-100684691D01*
X171460225Y-100136855D01*
X171342989Y-99813766D01*
X171059817Y-99132642D01*
X170721566Y-98479624D01*
X170590439Y-98269603D01*
X170312498Y-97757182D01*
X170165111Y-97284942D01*
X170157971Y-97195368D01*
X170080514Y-96705090D01*
X169973992Y-96438807D01*
X169773386Y-96023228D01*
X169609177Y-95609743D01*
X169271119Y-95126392D01*
X168656930Y-94839651D01*
X167743501Y-94739107D01*
X167676260Y-94738768D01*
X166963738Y-94758729D01*
X166575027Y-94859966D01*
X166466325Y-95104509D01*
X165933749Y-95104509D01*
X165924637Y-95017352D01*
X165924637Y-94554710D01*
X167834709Y-94554710D01*
X168738880Y-94565496D01*
X169345557Y-94604437D01*
X169724907Y-94681409D01*
X169947100Y-94806288D01*
X169997390Y-94859086D01*
X170173206Y-95129577D01*
X170186189Y-95234375D01*
X170221399Y-95424922D01*
X170370102Y-95872905D01*
X170604050Y-96496024D01*
X170715696Y-96777177D01*
X171309015Y-98249065D01*
X172987994Y-98196453D01*
X173943658Y-98166506D01*
X175534724Y-98166506D01*
X175745935Y-98343564D01*
X176197103Y-98410267D01*
X176773195Y-98419927D01*
X177421010Y-98401277D01*
X177908922Y-98352286D01*
X178134845Y-98283393D01*
X178136920Y-98280482D01*
X178218317Y-98023068D01*
X178314143Y-97555308D01*
X178338932Y-97406207D01*
X178403737Y-96951431D01*
X178382265Y-96815250D01*
X178248110Y-96953043D01*
X178149134Y-97085507D01*
X177804778Y-97415754D01*
X177510762Y-97474795D01*
X177347635Y-97258071D01*
X177336232Y-97131522D01*
X177408168Y-96832354D01*
X177507886Y-96763406D01*
X177717903Y-96608868D01*
X177803829Y-96232876D01*
X177746361Y-95766862D01*
X177680494Y-95588179D01*
X177485474Y-95290942D01*
X178164493Y-95290942D01*
X178179086Y-95460548D01*
X178245659Y-95475000D01*
X178433089Y-95341390D01*
X178440580Y-95290942D01*
X178377782Y-95111669D01*
X178359413Y-95106884D01*
X178202270Y-95235860D01*
X178164493Y-95290942D01*
X177485474Y-95290942D01*
X177430297Y-95206845D01*
X177152128Y-95137834D01*
X176825294Y-95392924D01*
X176429098Y-95983899D01*
X176181869Y-96441304D01*
X175768587Y-97268565D01*
X175547573Y-97825903D01*
X175534724Y-98166506D01*
X173943658Y-98166506D01*
X174666973Y-98143840D01*
X175152121Y-97244598D01*
X175486009Y-96566286D01*
X175780237Y-95870184D01*
X175880843Y-95588076D01*
X176073563Y-95088977D01*
X176263213Y-94749982D01*
X176316194Y-94695572D01*
X176573293Y-94637330D01*
X177108108Y-94591051D01*
X177830280Y-94562997D01*
X178308313Y-94557528D01*
X179208148Y-94570792D01*
X179791645Y-94618317D01*
X180109534Y-94706653D01*
X180203656Y-94802281D01*
X180170786Y-95068694D01*
X180003369Y-95575985D01*
X179732529Y-96236303D01*
X179567839Y-96596846D01*
X178837021Y-98143840D01*
X179697133Y-98239148D01*
X180376670Y-98340731D01*
X180799700Y-98501510D01*
X180981181Y-98775719D01*
X180936074Y-99217592D01*
X180679336Y-99881365D01*
X180343859Y-100583853D01*
X179883255Y-101434979D01*
X179450554Y-102001664D01*
X178963886Y-102350833D01*
X178341381Y-102549413D01*
X177844387Y-102627107D01*
X176876087Y-102745290D01*
X176139855Y-104244106D01*
X175712786Y-105103891D01*
X175383690Y-105688225D01*
X175084652Y-106050277D01*
X174747762Y-106243218D01*
X174305106Y-106320217D01*
X173688772Y-106334444D01*
X173469944Y-106334420D01*
X172649391Y-106307538D01*
X172149925Y-106195934D01*
X171926517Y-105953171D01*
X171928155Y-105862736D01*
X172508720Y-105862736D01*
X172510499Y-105864726D01*
X172739137Y-105923930D01*
X173206816Y-105960541D01*
X173510057Y-105966304D01*
X174156232Y-105916888D01*
X174601094Y-105733443D01*
X174859815Y-105514525D01*
X175167776Y-105132398D01*
X175310401Y-104809214D01*
X175311594Y-104788033D01*
X175393900Y-104476925D01*
X175604462Y-103981406D01*
X175771739Y-103647905D01*
X176030848Y-103133228D01*
X176197743Y-102749181D01*
X176231884Y-102625958D01*
X176070986Y-102521524D01*
X175679073Y-102477095D01*
X175633695Y-102477238D01*
X175012379Y-102448130D01*
X174380472Y-102369069D01*
X173954432Y-102320686D01*
X173707234Y-102427459D01*
X173508067Y-102770303D01*
X173426224Y-102959332D01*
X173117518Y-103731298D01*
X172845937Y-104488455D01*
X172636959Y-105149969D01*
X172516061Y-105635008D01*
X172508720Y-105862736D01*
X171928155Y-105862736D01*
X171934134Y-105532812D01*
X172111823Y-104933909D01*
X172298738Y-104355011D01*
X172321583Y-104090260D01*
X172151881Y-104111569D01*
X171761155Y-104390851D01*
X171649962Y-104478374D01*
X171037073Y-104897291D01*
X170588406Y-105016534D01*
X170244176Y-104828543D01*
X169944597Y-104325759D01*
X169915286Y-104259020D01*
X169867270Y-104145417D01*
X170526087Y-104145417D01*
X170675455Y-104291328D01*
X170802174Y-104309782D01*
X171046260Y-104165407D01*
X171078261Y-104039472D01*
X170956309Y-103853785D01*
X170802174Y-103875106D01*
X170558613Y-104055772D01*
X170526087Y-104145417D01*
X169867270Y-104145417D01*
X169664458Y-103665580D01*
X171262319Y-103665580D01*
X171354348Y-103757608D01*
X171446377Y-103665580D01*
X171354348Y-103573551D01*
X171262319Y-103665580D01*
X169664458Y-103665580D01*
X169647041Y-103624373D01*
X169432669Y-103173136D01*
X169206759Y-102875429D01*
X168903903Y-102701372D01*
X168458692Y-102621086D01*
X167805717Y-102604690D01*
X166879569Y-102622306D01*
X166356582Y-102633363D01*
X165395547Y-102654928D01*
X164574904Y-102679808D01*
X163960322Y-102705504D01*
X163617470Y-102729516D01*
X163568931Y-102739453D01*
X163693981Y-102825382D01*
X164074213Y-102989066D01*
X164443207Y-103128056D01*
X165049530Y-103398680D01*
X165337374Y-103696372D01*
X165353684Y-104092622D01*
X165264077Y-104378067D01*
X165016965Y-104676330D01*
X164516450Y-105059216D01*
X163849988Y-105472331D01*
X163105034Y-105861281D01*
X162396134Y-106161840D01*
X161199206Y-106441710D01*
X159836194Y-106503496D01*
X158430201Y-106356885D01*
X157104331Y-106011564D01*
X156344879Y-105685696D01*
X155894115Y-105381648D01*
X155343120Y-104911793D01*
X154778134Y-104362607D01*
X154285398Y-103820566D01*
X153951155Y-103372149D01*
X153867655Y-103201698D01*
X153596137Y-102891401D01*
X153085131Y-102694659D01*
X152718478Y-102655774D01*
X152592762Y-102780324D01*
X152518459Y-103183561D01*
X152489358Y-103904835D01*
X152488406Y-104113742D01*
X152464880Y-104880516D01*
X152402749Y-105562096D01*
X152314680Y-106026851D01*
X152300210Y-106069215D01*
X152195712Y-106309197D01*
X152052251Y-106450994D01*
X151787712Y-106514190D01*
X151319982Y-106518368D01*
X150566946Y-106483111D01*
X150565112Y-106483014D01*
X149801312Y-106417509D01*
X149173201Y-106316553D01*
X148783931Y-106197949D01*
X148735590Y-106167270D01*
X148577880Y-105910897D01*
X148473217Y-105415858D01*
X148411297Y-104626021D01*
X148400037Y-104339004D01*
X148347101Y-102745290D01*
X145862319Y-102702612D01*
X144873856Y-102688820D01*
X144208679Y-102690753D01*
X143822113Y-102713343D01*
X143669486Y-102761522D01*
X143706125Y-102840224D01*
X143837681Y-102926162D01*
X144324053Y-103085368D01*
X145069306Y-103179954D01*
X145603719Y-103198912D01*
X146335548Y-103220276D01*
X146832975Y-103318424D01*
X147198140Y-103557674D01*
X147533181Y-104002344D01*
X147901263Y-104645689D01*
X148338375Y-105441740D01*
X147882593Y-105791958D01*
X147459669Y-106044907D01*
X147115572Y-106146269D01*
X146782333Y-106246418D01*
X146690580Y-106334420D01*
X146455935Y-106426790D01*
X145951630Y-106485829D01*
X145274547Y-106512181D01*
X144521572Y-106506488D01*
X143789588Y-106469391D01*
X143175480Y-106401533D01*
X142788008Y-106308554D01*
X141917581Y-105941463D01*
X141284191Y-105635807D01*
X140777790Y-105330376D01*
X140288333Y-104963960D01*
X140114557Y-104821541D01*
X139557093Y-104291708D01*
X139061272Y-103708917D01*
X138838273Y-103375744D01*
X138473605Y-102863720D01*
X138108419Y-102661607D01*
X138005962Y-102653261D01*
X137799430Y-102671883D01*
X137673365Y-102776258D01*
X137607942Y-103039144D01*
X137583338Y-103533301D01*
X137579710Y-104217753D01*
X137564744Y-105082093D01*
X137484277Y-105697511D01*
X137284953Y-106106222D01*
X136913417Y-106350435D01*
X136316313Y-106472363D01*
X135440286Y-106514216D01*
X134671594Y-106518478D01*
X133529792Y-106497844D01*
X132748609Y-106436082D01*
X132330349Y-106333405D01*
X132278840Y-106297608D01*
X132159981Y-105984770D01*
X132084265Y-105357455D01*
X132057971Y-104476721D01*
X132057763Y-104463591D01*
X132483791Y-104463591D01*
X132512141Y-105073571D01*
X132587752Y-105460145D01*
X132785092Y-105966304D01*
X136856356Y-105966304D01*
X136803902Y-104079710D01*
X136757330Y-102404625D01*
X138946418Y-102404625D01*
X138974854Y-102729959D01*
X139246198Y-103223151D01*
X139391461Y-103439621D01*
X140350990Y-104519498D01*
X141540642Y-105336134D01*
X142912431Y-105867460D01*
X144418371Y-106091408D01*
X145143839Y-106085078D01*
X145932019Y-106003762D01*
X146639801Y-105867665D01*
X147122462Y-105704832D01*
X147506591Y-105480865D01*
X147698059Y-105319603D01*
X147702898Y-105304135D01*
X147617358Y-105100931D01*
X147398547Y-104691144D01*
X147225264Y-104388572D01*
X146928196Y-103914046D01*
X146667207Y-103672413D01*
X146302574Y-103585108D01*
X145775807Y-103573551D01*
X144799502Y-103534284D01*
X144068377Y-103393133D01*
X143465620Y-103115072D01*
X142942304Y-102723914D01*
X142571045Y-102422025D01*
X142250836Y-102237820D01*
X141873832Y-102142278D01*
X141332187Y-102106382D01*
X140627646Y-102101087D01*
X139741905Y-102123657D01*
X139191799Y-102213681D01*
X138946418Y-102404625D01*
X136757330Y-102404625D01*
X136751449Y-102193116D01*
X134834814Y-102140331D01*
X134025528Y-102131930D01*
X133354677Y-102150954D01*
X132906600Y-102193481D01*
X132769350Y-102236374D01*
X132651121Y-102530419D01*
X132559783Y-103076588D01*
X132501839Y-103759455D01*
X132483791Y-104463591D01*
X132057763Y-104463591D01*
X132045142Y-103670314D01*
X131998785Y-103161971D01*
X131907094Y-102882279D01*
X131766830Y-102764982D01*
X131510162Y-102734937D01*
X130937453Y-102707948D01*
X130100776Y-102685152D01*
X129052202Y-102667687D01*
X127843802Y-102656690D01*
X126650019Y-102653261D01*
X125043765Y-102647855D01*
X123778734Y-102630859D01*
X122828181Y-102601100D01*
X122165360Y-102557410D01*
X121763526Y-102498616D01*
X121603478Y-102432391D01*
X121487667Y-102115941D01*
X121413739Y-101449851D01*
X121385956Y-100536594D01*
X122302898Y-100536594D01*
X122394927Y-100628623D01*
X122486956Y-100536594D01*
X122394927Y-100444565D01*
X122302898Y-100536594D01*
X121385956Y-100536594D01*
X121383333Y-100450393D01*
X121382609Y-100237828D01*
X121382609Y-99524275D01*
X122331960Y-99524275D01*
X122360885Y-99785569D01*
X122424796Y-99754348D01*
X122429743Y-99677657D01*
X123039130Y-99677657D01*
X123064758Y-100455736D01*
X123135798Y-100929677D01*
X123243487Y-101082247D01*
X123379060Y-100896212D01*
X123485722Y-100555821D01*
X123635320Y-100125623D01*
X123789455Y-99901536D01*
X123818686Y-99892391D01*
X123898218Y-99777705D01*
X123867391Y-99708333D01*
X123911099Y-99552400D01*
X124051449Y-99524275D01*
X124250744Y-99620236D01*
X124219367Y-99754348D01*
X124164635Y-99892105D01*
X124329352Y-99761890D01*
X124335482Y-99756211D01*
X124575677Y-99395497D01*
X124625816Y-99225995D01*
X124603620Y-99037192D01*
X124476410Y-99117720D01*
X124169687Y-99248619D01*
X123937735Y-99098585D01*
X123909198Y-98776156D01*
X123905955Y-98511715D01*
X123645730Y-98423193D01*
X123520742Y-98419927D01*
X123266868Y-98437106D01*
X123122836Y-98542811D01*
X123057533Y-98818295D01*
X123039845Y-99344811D01*
X123039130Y-99677657D01*
X122429743Y-99677657D01*
X122449106Y-99377517D01*
X122424796Y-99294203D01*
X122357617Y-99271081D01*
X122331960Y-99524275D01*
X121382609Y-99524275D01*
X121382609Y-98264135D01*
X121715785Y-97668357D01*
X122671014Y-97668357D01*
X122787938Y-97984765D01*
X122960597Y-98051811D01*
X123181741Y-97913814D01*
X123189043Y-97775724D01*
X124143478Y-97775724D01*
X124290810Y-98019743D01*
X124419565Y-98051811D01*
X124664504Y-98151197D01*
X124695652Y-98235869D01*
X124757338Y-98415147D01*
X124775371Y-98419927D01*
X124781154Y-98401787D01*
X138955594Y-98401787D01*
X138973962Y-98442284D01*
X139191671Y-98515796D01*
X139685613Y-98571833D01*
X140364004Y-98601485D01*
X140639810Y-98603985D01*
X141433439Y-98592562D01*
X141967796Y-98542242D01*
X142351425Y-98428949D01*
X142692869Y-98228608D01*
X142847808Y-98114242D01*
X142854110Y-98110705D01*
X143588954Y-98110705D01*
X143759289Y-98179525D01*
X144184015Y-98218676D01*
X144910128Y-98234578D01*
X145310145Y-98235869D01*
X146174827Y-98227715D01*
X146718661Y-98198970D01*
X146988643Y-98143216D01*
X147031768Y-98054031D01*
X146994275Y-98005797D01*
X146664054Y-97874267D01*
X146017797Y-97795793D01*
X145310145Y-97775724D01*
X144447438Y-97807163D01*
X143861640Y-97897002D01*
X143626014Y-98005797D01*
X143588954Y-98110705D01*
X142854110Y-98110705D01*
X143769756Y-97596827D01*
X144800877Y-97321610D01*
X145841580Y-97295380D01*
X146792277Y-97524929D01*
X147308676Y-97810066D01*
X147666879Y-98174115D01*
X148061186Y-98727642D01*
X148283043Y-99116041D01*
X148470435Y-99509458D01*
X148608181Y-99894165D01*
X148707893Y-100343050D01*
X148781186Y-100928996D01*
X148839674Y-101724890D01*
X148894970Y-102803617D01*
X148904775Y-103017872D01*
X149038392Y-105966304D01*
X152120290Y-105966304D01*
X152153653Y-103711594D01*
X152161770Y-102851929D01*
X152162311Y-102647370D01*
X154144927Y-102647370D01*
X154289789Y-103054590D01*
X154676541Y-103584350D01*
X155233437Y-104166471D01*
X155888730Y-104730774D01*
X156570672Y-105207080D01*
X156997826Y-105437912D01*
X157564917Y-105680340D01*
X158074604Y-105832969D01*
X158645199Y-105916470D01*
X159395013Y-105951517D01*
X159973509Y-105957858D01*
X160981816Y-105942382D01*
X161725144Y-105876774D01*
X162304738Y-105748170D01*
X162661294Y-105616333D01*
X163230687Y-105320745D01*
X163798751Y-104942909D01*
X164288689Y-104546063D01*
X164623705Y-104193448D01*
X164727003Y-103948304D01*
X164717022Y-103923482D01*
X164506451Y-103761457D01*
X164064763Y-103510102D01*
X163611764Y-103283742D01*
X162608578Y-102809159D01*
X161990173Y-103191355D01*
X161468324Y-103431302D01*
X160818812Y-103549072D01*
X160141960Y-103573551D01*
X159129654Y-103503941D01*
X158359114Y-103270097D01*
X157726487Y-102834494D01*
X157515922Y-102624734D01*
X157495361Y-102605775D01*
X158562608Y-102605775D01*
X158618304Y-102756359D01*
X158827859Y-102944396D01*
X159282897Y-103118014D01*
X159937871Y-103194162D01*
X160637222Y-103170934D01*
X161225390Y-103046426D01*
X161381303Y-102975674D01*
X161535077Y-102862204D01*
X161491328Y-102782266D01*
X161201076Y-102721592D01*
X160615339Y-102665915D01*
X160218840Y-102637053D01*
X159498593Y-102596145D01*
X158929956Y-102581134D01*
X158603733Y-102593736D01*
X158562608Y-102605775D01*
X157495361Y-102605775D01*
X157282510Y-102409510D01*
X157016206Y-102286383D01*
X156619663Y-102236179D01*
X155995533Y-102239725D01*
X155629328Y-102253146D01*
X154885573Y-102293293D01*
X154438304Y-102352341D01*
X154215890Y-102449314D01*
X154146700Y-102603233D01*
X154144927Y-102647370D01*
X152162311Y-102647370D01*
X152164595Y-101785061D01*
X152162670Y-100560352D01*
X152156539Y-99227164D01*
X152150055Y-98305570D01*
X154182581Y-98305570D01*
X154235489Y-98387784D01*
X154466670Y-98446442D01*
X154967620Y-98490159D01*
X155640064Y-98511157D01*
X155804702Y-98511956D01*
X156560151Y-98499240D01*
X157055882Y-98443798D01*
X157399909Y-98319695D01*
X157700246Y-98100993D01*
X157705137Y-98096626D01*
X158378261Y-98096626D01*
X158543453Y-98170717D01*
X158966096Y-98214973D01*
X159536785Y-98230024D01*
X160146117Y-98216503D01*
X160684690Y-98175041D01*
X161043100Y-98106270D01*
X161098339Y-98080917D01*
X161178403Y-97928207D01*
X160925968Y-97746859D01*
X160859606Y-97715619D01*
X160413026Y-97553895D01*
X160115252Y-97499637D01*
X159734752Y-97553989D01*
X159244952Y-97687703D01*
X158773902Y-97856769D01*
X158449653Y-98017179D01*
X158378261Y-98096626D01*
X157705137Y-98096626D01*
X157767987Y-98040519D01*
X158692048Y-97423267D01*
X159702539Y-97145566D01*
X160743436Y-97215600D01*
X161499078Y-97495471D01*
X162016446Y-97832082D01*
X162461800Y-98247718D01*
X162789772Y-98674864D01*
X162954998Y-99046009D01*
X162912110Y-99293641D01*
X162749637Y-99356497D01*
X162476701Y-99360536D01*
X161926284Y-99358336D01*
X161188961Y-99350492D01*
X160652390Y-99342652D01*
X159859825Y-99345632D01*
X159212410Y-99377709D01*
X158793283Y-99433049D01*
X158681147Y-99480912D01*
X158696805Y-99732340D01*
X158858559Y-100167558D01*
X158957902Y-100369032D01*
X159208560Y-100840319D01*
X159428612Y-101188392D01*
X159675914Y-101431888D01*
X160008327Y-101589444D01*
X160483707Y-101679697D01*
X161159915Y-101721284D01*
X162094808Y-101732841D01*
X163192295Y-101732971D01*
X166476811Y-101732971D01*
X166476811Y-100501286D01*
X166455866Y-99816639D01*
X166363435Y-99289656D01*
X166155129Y-98770131D01*
X165786559Y-98107859D01*
X165752510Y-98050420D01*
X164790333Y-96763819D01*
X163606718Y-95771159D01*
X162264036Y-95094906D01*
X160996865Y-94789260D01*
X159610335Y-94739822D01*
X158238993Y-94939309D01*
X157020946Y-95378637D01*
X156277069Y-95820891D01*
X155574606Y-96353659D01*
X154963741Y-96922725D01*
X154494659Y-97473875D01*
X154217544Y-97952895D01*
X154182581Y-98305570D01*
X152150055Y-98305570D01*
X152146743Y-97834857D01*
X152133826Y-96432793D01*
X152118329Y-95070334D01*
X152100796Y-93796841D01*
X152081769Y-92661675D01*
X152061791Y-91714197D01*
X152041404Y-91003769D01*
X152021151Y-90579753D01*
X152008214Y-90480932D01*
X151782836Y-90377294D01*
X151310018Y-90287390D01*
X150710427Y-90222741D01*
X150104733Y-90194869D01*
X149613605Y-90215294D01*
X149477352Y-90239293D01*
X148991304Y-90361283D01*
X148988486Y-92964156D01*
X148978696Y-94148460D01*
X148944276Y-95002222D01*
X148873226Y-95562797D01*
X148753545Y-95867543D01*
X148573231Y-95953815D01*
X148320286Y-95858970D01*
X148105280Y-95713495D01*
X147239190Y-95187540D01*
X146307163Y-94876845D01*
X145191775Y-94747483D01*
X144731452Y-94738768D01*
X143869081Y-94765161D01*
X143201611Y-94867498D01*
X142558141Y-95080517D01*
X142131103Y-95267306D01*
X141388953Y-95660074D01*
X140654534Y-96129546D01*
X140213576Y-96468576D01*
X139682413Y-97003013D01*
X139260769Y-97558969D01*
X139001033Y-98053032D01*
X138955594Y-98401787D01*
X124781154Y-98401787D01*
X124826464Y-98259660D01*
X124839506Y-97872702D01*
X124839138Y-97858906D01*
X124776684Y-97466749D01*
X124602109Y-97385507D01*
X124560308Y-97398761D01*
X124280454Y-97489488D01*
X124220453Y-97499637D01*
X124151990Y-97649906D01*
X124143478Y-97775724D01*
X123189043Y-97775724D01*
X123190670Y-97744962D01*
X123036966Y-97438156D01*
X122824296Y-97369605D01*
X122681175Y-97558255D01*
X122671014Y-97668357D01*
X121715785Y-97668357D01*
X122164855Y-96865341D01*
X122559591Y-96158572D01*
X122917440Y-95516255D01*
X123175954Y-95050523D01*
X123223364Y-94964614D01*
X123252682Y-94911963D01*
X125431884Y-94911963D01*
X125565494Y-95099393D01*
X125615942Y-95106884D01*
X125795214Y-95044086D01*
X125800000Y-95025717D01*
X125715552Y-94922826D01*
X126260145Y-94922826D01*
X126301871Y-95080398D01*
X126433340Y-95106884D01*
X126674510Y-95014855D01*
X127640580Y-95014855D01*
X127739966Y-95259794D01*
X127824637Y-95290942D01*
X127987930Y-95141863D01*
X128008695Y-95014855D01*
X127909309Y-94769916D01*
X127824637Y-94738768D01*
X127661345Y-94887847D01*
X127640580Y-95014855D01*
X126674510Y-95014855D01*
X126685171Y-95010787D01*
X126720290Y-94922826D01*
X126588186Y-94744036D01*
X126547094Y-94738768D01*
X126297818Y-94872559D01*
X126260145Y-94922826D01*
X125715552Y-94922826D01*
X125671024Y-94868574D01*
X125615942Y-94830797D01*
X125446335Y-94845390D01*
X125431884Y-94911963D01*
X123252682Y-94911963D01*
X123478650Y-94506164D01*
X123894719Y-93765650D01*
X123947942Y-93671294D01*
X125435977Y-93671294D01*
X125514098Y-93740233D01*
X125695034Y-93578815D01*
X125909715Y-93282208D01*
X126089075Y-92945582D01*
X126164023Y-92668116D01*
X126126126Y-92394517D01*
X126080813Y-92346014D01*
X125935310Y-92495698D01*
X125734363Y-92850466D01*
X125546787Y-93268890D01*
X125441395Y-93609543D01*
X125435977Y-93671294D01*
X123947942Y-93671294D01*
X124450195Y-92780891D01*
X124912886Y-91962560D01*
X126352174Y-91962560D01*
X126502366Y-92135870D01*
X126648398Y-92161956D01*
X126838511Y-92239564D01*
X126887595Y-92530799D01*
X126859564Y-92852174D01*
X126847347Y-93477601D01*
X126950097Y-94001777D01*
X127139811Y-94320566D01*
X127267908Y-94370652D01*
X127396201Y-94209747D01*
X127398067Y-94197457D01*
X128192753Y-94197457D01*
X128263608Y-94451957D01*
X128376811Y-94462681D01*
X128546168Y-94196372D01*
X128560869Y-94083702D01*
X128457959Y-93845817D01*
X128376811Y-93818478D01*
X128228713Y-93973099D01*
X128192753Y-94197457D01*
X127398067Y-94197457D01*
X127455716Y-93817819D01*
X127456236Y-93772464D01*
X127408432Y-93450362D01*
X128560869Y-93450362D01*
X128700933Y-93629072D01*
X128744927Y-93634420D01*
X128923637Y-93494357D01*
X128928985Y-93450362D01*
X128788922Y-93271653D01*
X128744927Y-93266304D01*
X128566218Y-93406368D01*
X128560869Y-93450362D01*
X127408432Y-93450362D01*
X127375036Y-93225343D01*
X127170432Y-92637510D01*
X126900222Y-92137060D01*
X126622204Y-91852087D01*
X126582246Y-91835477D01*
X126373680Y-91885387D01*
X126352174Y-91962560D01*
X124912886Y-91962560D01*
X125123700Y-91589709D01*
X125425071Y-91057608D01*
X126444203Y-91057608D01*
X126458796Y-91227215D01*
X126525369Y-91241666D01*
X126712799Y-91108057D01*
X126720290Y-91057608D01*
X126657492Y-90878336D01*
X126639123Y-90873551D01*
X126481980Y-91002527D01*
X126444203Y-91057608D01*
X125425071Y-91057608D01*
X125893856Y-90229924D01*
X126416160Y-89309058D01*
X131505797Y-89309058D01*
X131597826Y-89401087D01*
X131689855Y-89309058D01*
X131597826Y-89217029D01*
X131505797Y-89309058D01*
X126416160Y-89309058D01*
X126739288Y-88739357D01*
X127060285Y-88174034D01*
X128806280Y-88174034D01*
X128831546Y-88283456D01*
X128928985Y-88296739D01*
X129080486Y-88229395D01*
X129051691Y-88174034D01*
X128833257Y-88152005D01*
X128806280Y-88174034D01*
X127060285Y-88174034D01*
X127356398Y-87652536D01*
X129029301Y-84707608D01*
X131141824Y-84652485D01*
X132363675Y-84633811D01*
X133260865Y-84655123D01*
G37*
X133260865Y-84655123D02*
X133875329Y-84722973D01*
X134249001Y-84843915D01*
X134423815Y-85024501D01*
X134450724Y-85169543D01*
X134369622Y-85468920D01*
X134149912Y-86018642D01*
X133826987Y-86744658D01*
X133436243Y-87572920D01*
X133013074Y-88429376D01*
X132592875Y-89239976D01*
X132211039Y-89930670D01*
X132032245Y-90229348D01*
X131771272Y-90673381D01*
X131389785Y-91355133D01*
X130936836Y-92185586D01*
X130461475Y-93075723D01*
X130409494Y-93174275D01*
X129899188Y-94133231D01*
X129371581Y-95108079D01*
X128889144Y-95984327D01*
X128516662Y-96643476D01*
X128152416Y-97329637D01*
X127958238Y-97823719D01*
X127955208Y-98071889D01*
X127956727Y-98073466D01*
X128186008Y-98122088D01*
X128734471Y-98160233D01*
X129553298Y-98186567D01*
X130593667Y-98199756D01*
X131806760Y-98198467D01*
X132346801Y-98193396D01*
X133695813Y-98175245D01*
X134712366Y-98154775D01*
X135432120Y-98129171D01*
X135890731Y-98095616D01*
X136123859Y-98051295D01*
X136167160Y-97993392D01*
X136056294Y-97919090D01*
X136021460Y-97903202D01*
X135622911Y-97719992D01*
X134995205Y-97423041D01*
X134239760Y-97060559D01*
X133766749Y-96831371D01*
X132057971Y-96000179D01*
X132057971Y-95038169D01*
X132075238Y-94783325D01*
X132459580Y-94783325D01*
X132488868Y-95367238D01*
X132677449Y-95748400D01*
X132928318Y-95944082D01*
X133428797Y-96238763D01*
X134089253Y-96588529D01*
X134820052Y-96949464D01*
X135531562Y-97277654D01*
X136134151Y-97529184D01*
X136538186Y-97660139D01*
X136597227Y-97668862D01*
X136757827Y-97516031D01*
X136901113Y-97115750D01*
X136936110Y-96943896D01*
X136986054Y-96324253D01*
X136962535Y-95621469D01*
X136879455Y-94948398D01*
X136750716Y-94417894D01*
X136591129Y-94143398D01*
X136324209Y-94083337D01*
X135784422Y-94036303D01*
X135066966Y-94009222D01*
X134693944Y-94005354D01*
X133812143Y-94020633D01*
X133226714Y-94076783D01*
X132867192Y-94184004D01*
X132715321Y-94291770D01*
X132459580Y-94783325D01*
X132075238Y-94783325D01*
X132097985Y-94447609D01*
X132200220Y-93997248D01*
X132278840Y-93855290D01*
X132545843Y-93767500D01*
X133090881Y-93701020D01*
X133824443Y-93656747D01*
X134657015Y-93635576D01*
X135499083Y-93638405D01*
X136261135Y-93666128D01*
X136853657Y-93719643D01*
X137187137Y-93799846D01*
X137197774Y-93806042D01*
X137339526Y-94070887D01*
X137451934Y-94603567D01*
X137529078Y-95304546D01*
X137565039Y-96074290D01*
X137553897Y-96813263D01*
X137489733Y-97421931D01*
X137427644Y-97671041D01*
X137316124Y-98050693D01*
X137400708Y-98205121D01*
X137759956Y-98235696D01*
X137865372Y-98235869D01*
X138287387Y-98191418D01*
X138495415Y-98082324D01*
X138500000Y-98061367D01*
X138610425Y-97844698D01*
X138902195Y-97432261D01*
X139316054Y-96906893D01*
X139388738Y-96818976D01*
X140499220Y-95763274D01*
X141814190Y-94987294D01*
X143277263Y-94511033D01*
X144832057Y-94354490D01*
X146036826Y-94461043D01*
X146755610Y-94616520D01*
X147388161Y-94809119D01*
X147775273Y-94985051D01*
X148135451Y-95201914D01*
X148340625Y-95290942D01*
X148376883Y-95118152D01*
X148407130Y-94644826D01*
X148428649Y-93938529D01*
X148438719Y-93066825D01*
X148439130Y-92842971D01*
X148455647Y-91647486D01*
X148505807Y-90807603D01*
X148590525Y-90312262D01*
X148660000Y-90174130D01*
X148974149Y-90055937D01*
X149612540Y-89980711D01*
X150533280Y-89953295D01*
X150571142Y-89953261D01*
X151369208Y-89958924D01*
X151873970Y-89987375D01*
X152160194Y-90055803D01*
X152302648Y-90181399D01*
X152372396Y-90367391D01*
X152406450Y-90673250D01*
X152436530Y-91284051D01*
X152460904Y-92136626D01*
X152477842Y-93167808D01*
X152485613Y-94314430D01*
X152485892Y-94508695D01*
X152488406Y-98235869D01*
X153023090Y-98235869D01*
X153390647Y-98173957D01*
X153691680Y-97934257D01*
X154026608Y-97435830D01*
X154036442Y-97419084D01*
X154889391Y-96325502D01*
X156041351Y-95438135D01*
X157482114Y-94763467D01*
X158810916Y-94386631D01*
X160098199Y-94273161D01*
X161494233Y-94444745D01*
X162895450Y-94885719D01*
X163293896Y-95064604D01*
X164051412Y-95520123D01*
X164824275Y-96133388D01*
X165512202Y-96811368D01*
X166014908Y-97461030D01*
X166152874Y-97716849D01*
X166477765Y-98142410D01*
X166788437Y-98235869D01*
X167040933Y-98214591D01*
X167101959Y-98085343D01*
X166990516Y-97750004D01*
X166916948Y-97572169D01*
X166722902Y-97116761D01*
X166537560Y-96712164D01*
X166291188Y-96209413D01*
X166108695Y-95845613D01*
X165960914Y-95364373D01*
X165933749Y-95104509D01*
X166466325Y-95104509D01*
X166593830Y-95554388D01*
X166787614Y-95997233D01*
X167133081Y-96787855D01*
X167496368Y-97670766D01*
X167680699Y-98143840D01*
X167952727Y-98817441D01*
X168299387Y-99609630D01*
X168682482Y-100440755D01*
X169063819Y-101231163D01*
X169405203Y-101901204D01*
X169668439Y-102371226D01*
X169790354Y-102543325D01*
X169950882Y-102874977D01*
X169973913Y-103058188D01*
X170118758Y-103335446D01*
X170365036Y-103389493D01*
X170629688Y-103337719D01*
X170688361Y-103110766D01*
X170645724Y-102837319D01*
X170615487Y-102469203D01*
X171262319Y-102469203D01*
X171329663Y-102620703D01*
X171385024Y-102591908D01*
X171407052Y-102373474D01*
X171385024Y-102346497D01*
X171275602Y-102371763D01*
X171262319Y-102469203D01*
X170615487Y-102469203D01*
X170612512Y-102432992D01*
X170751472Y-102289282D01*
X170806775Y-102285145D01*
X171023944Y-102124872D01*
X171078261Y-101825000D01*
X171162923Y-101461099D01*
X171352793Y-101377537D01*
X171551697Y-101610767D01*
X171563874Y-101640942D01*
X171744540Y-101884503D01*
X171834185Y-101917029D01*
X171977814Y-101771399D01*
X171968728Y-101421419D01*
X171830811Y-101040256D01*
X171673399Y-100684691D01*
X171460225Y-100136855D01*
X171342989Y-99813766D01*
X171059817Y-99132642D01*
X170721566Y-98479624D01*
X170590439Y-98269603D01*
X170312498Y-97757182D01*
X170165111Y-97284942D01*
X170157971Y-97195368D01*
X170080514Y-96705090D01*
X169973992Y-96438807D01*
X169773386Y-96023228D01*
X169609177Y-95609743D01*
X169271119Y-95126392D01*
X168656930Y-94839651D01*
X167743501Y-94739107D01*
X167676260Y-94738768D01*
X166963738Y-94758729D01*
X166575027Y-94859966D01*
X166466325Y-95104509D01*
X165933749Y-95104509D01*
X165924637Y-95017352D01*
X165924637Y-94554710D01*
X167834709Y-94554710D01*
X168738880Y-94565496D01*
X169345557Y-94604437D01*
X169724907Y-94681409D01*
X169947100Y-94806288D01*
X169997390Y-94859086D01*
X170173206Y-95129577D01*
X170186189Y-95234375D01*
X170221399Y-95424922D01*
X170370102Y-95872905D01*
X170604050Y-96496024D01*
X170715696Y-96777177D01*
X171309015Y-98249065D01*
X172987994Y-98196453D01*
X173943658Y-98166506D01*
X175534724Y-98166506D01*
X175745935Y-98343564D01*
X176197103Y-98410267D01*
X176773195Y-98419927D01*
X177421010Y-98401277D01*
X177908922Y-98352286D01*
X178134845Y-98283393D01*
X178136920Y-98280482D01*
X178218317Y-98023068D01*
X178314143Y-97555308D01*
X178338932Y-97406207D01*
X178403737Y-96951431D01*
X178382265Y-96815250D01*
X178248110Y-96953043D01*
X178149134Y-97085507D01*
X177804778Y-97415754D01*
X177510762Y-97474795D01*
X177347635Y-97258071D01*
X177336232Y-97131522D01*
X177408168Y-96832354D01*
X177507886Y-96763406D01*
X177717903Y-96608868D01*
X177803829Y-96232876D01*
X177746361Y-95766862D01*
X177680494Y-95588179D01*
X177485474Y-95290942D01*
X178164493Y-95290942D01*
X178179086Y-95460548D01*
X178245659Y-95475000D01*
X178433089Y-95341390D01*
X178440580Y-95290942D01*
X178377782Y-95111669D01*
X178359413Y-95106884D01*
X178202270Y-95235860D01*
X178164493Y-95290942D01*
X177485474Y-95290942D01*
X177430297Y-95206845D01*
X177152128Y-95137834D01*
X176825294Y-95392924D01*
X176429098Y-95983899D01*
X176181869Y-96441304D01*
X175768587Y-97268565D01*
X175547573Y-97825903D01*
X175534724Y-98166506D01*
X173943658Y-98166506D01*
X174666973Y-98143840D01*
X175152121Y-97244598D01*
X175486009Y-96566286D01*
X175780237Y-95870184D01*
X175880843Y-95588076D01*
X176073563Y-95088977D01*
X176263213Y-94749982D01*
X176316194Y-94695572D01*
X176573293Y-94637330D01*
X177108108Y-94591051D01*
X177830280Y-94562997D01*
X178308313Y-94557528D01*
X179208148Y-94570792D01*
X179791645Y-94618317D01*
X180109534Y-94706653D01*
X180203656Y-94802281D01*
X180170786Y-95068694D01*
X180003369Y-95575985D01*
X179732529Y-96236303D01*
X179567839Y-96596846D01*
X178837021Y-98143840D01*
X179697133Y-98239148D01*
X180376670Y-98340731D01*
X180799700Y-98501510D01*
X180981181Y-98775719D01*
X180936074Y-99217592D01*
X180679336Y-99881365D01*
X180343859Y-100583853D01*
X179883255Y-101434979D01*
X179450554Y-102001664D01*
X178963886Y-102350833D01*
X178341381Y-102549413D01*
X177844387Y-102627107D01*
X176876087Y-102745290D01*
X176139855Y-104244106D01*
X175712786Y-105103891D01*
X175383690Y-105688225D01*
X175084652Y-106050277D01*
X174747762Y-106243218D01*
X174305106Y-106320217D01*
X173688772Y-106334444D01*
X173469944Y-106334420D01*
X172649391Y-106307538D01*
X172149925Y-106195934D01*
X171926517Y-105953171D01*
X171928155Y-105862736D01*
X172508720Y-105862736D01*
X172510499Y-105864726D01*
X172739137Y-105923930D01*
X173206816Y-105960541D01*
X173510057Y-105966304D01*
X174156232Y-105916888D01*
X174601094Y-105733443D01*
X174859815Y-105514525D01*
X175167776Y-105132398D01*
X175310401Y-104809214D01*
X175311594Y-104788033D01*
X175393900Y-104476925D01*
X175604462Y-103981406D01*
X175771739Y-103647905D01*
X176030848Y-103133228D01*
X176197743Y-102749181D01*
X176231884Y-102625958D01*
X176070986Y-102521524D01*
X175679073Y-102477095D01*
X175633695Y-102477238D01*
X175012379Y-102448130D01*
X174380472Y-102369069D01*
X173954432Y-102320686D01*
X173707234Y-102427459D01*
X173508067Y-102770303D01*
X173426224Y-102959332D01*
X173117518Y-103731298D01*
X172845937Y-104488455D01*
X172636959Y-105149969D01*
X172516061Y-105635008D01*
X172508720Y-105862736D01*
X171928155Y-105862736D01*
X171934134Y-105532812D01*
X172111823Y-104933909D01*
X172298738Y-104355011D01*
X172321583Y-104090260D01*
X172151881Y-104111569D01*
X171761155Y-104390851D01*
X171649962Y-104478374D01*
X171037073Y-104897291D01*
X170588406Y-105016534D01*
X170244176Y-104828543D01*
X169944597Y-104325759D01*
X169915286Y-104259020D01*
X169867270Y-104145417D01*
X170526087Y-104145417D01*
X170675455Y-104291328D01*
X170802174Y-104309782D01*
X171046260Y-104165407D01*
X171078261Y-104039472D01*
X170956309Y-103853785D01*
X170802174Y-103875106D01*
X170558613Y-104055772D01*
X170526087Y-104145417D01*
X169867270Y-104145417D01*
X169664458Y-103665580D01*
X171262319Y-103665580D01*
X171354348Y-103757608D01*
X171446377Y-103665580D01*
X171354348Y-103573551D01*
X171262319Y-103665580D01*
X169664458Y-103665580D01*
X169647041Y-103624373D01*
X169432669Y-103173136D01*
X169206759Y-102875429D01*
X168903903Y-102701372D01*
X168458692Y-102621086D01*
X167805717Y-102604690D01*
X166879569Y-102622306D01*
X166356582Y-102633363D01*
X165395547Y-102654928D01*
X164574904Y-102679808D01*
X163960322Y-102705504D01*
X163617470Y-102729516D01*
X163568931Y-102739453D01*
X163693981Y-102825382D01*
X164074213Y-102989066D01*
X164443207Y-103128056D01*
X165049530Y-103398680D01*
X165337374Y-103696372D01*
X165353684Y-104092622D01*
X165264077Y-104378067D01*
X165016965Y-104676330D01*
X164516450Y-105059216D01*
X163849988Y-105472331D01*
X163105034Y-105861281D01*
X162396134Y-106161840D01*
X161199206Y-106441710D01*
X159836194Y-106503496D01*
X158430201Y-106356885D01*
X157104331Y-106011564D01*
X156344879Y-105685696D01*
X155894115Y-105381648D01*
X155343120Y-104911793D01*
X154778134Y-104362607D01*
X154285398Y-103820566D01*
X153951155Y-103372149D01*
X153867655Y-103201698D01*
X153596137Y-102891401D01*
X153085131Y-102694659D01*
X152718478Y-102655774D01*
X152592762Y-102780324D01*
X152518459Y-103183561D01*
X152489358Y-103904835D01*
X152488406Y-104113742D01*
X152464880Y-104880516D01*
X152402749Y-105562096D01*
X152314680Y-106026851D01*
X152300210Y-106069215D01*
X152195712Y-106309197D01*
X152052251Y-106450994D01*
X151787712Y-106514190D01*
X151319982Y-106518368D01*
X150566946Y-106483111D01*
X150565112Y-106483014D01*
X149801312Y-106417509D01*
X149173201Y-106316553D01*
X148783931Y-106197949D01*
X148735590Y-106167270D01*
X148577880Y-105910897D01*
X148473217Y-105415858D01*
X148411297Y-104626021D01*
X148400037Y-104339004D01*
X148347101Y-102745290D01*
X145862319Y-102702612D01*
X144873856Y-102688820D01*
X144208679Y-102690753D01*
X143822113Y-102713343D01*
X143669486Y-102761522D01*
X143706125Y-102840224D01*
X143837681Y-102926162D01*
X144324053Y-103085368D01*
X145069306Y-103179954D01*
X145603719Y-103198912D01*
X146335548Y-103220276D01*
X146832975Y-103318424D01*
X147198140Y-103557674D01*
X147533181Y-104002344D01*
X147901263Y-104645689D01*
X148338375Y-105441740D01*
X147882593Y-105791958D01*
X147459669Y-106044907D01*
X147115572Y-106146269D01*
X146782333Y-106246418D01*
X146690580Y-106334420D01*
X146455935Y-106426790D01*
X145951630Y-106485829D01*
X145274547Y-106512181D01*
X144521572Y-106506488D01*
X143789588Y-106469391D01*
X143175480Y-106401533D01*
X142788008Y-106308554D01*
X141917581Y-105941463D01*
X141284191Y-105635807D01*
X140777790Y-105330376D01*
X140288333Y-104963960D01*
X140114557Y-104821541D01*
X139557093Y-104291708D01*
X139061272Y-103708917D01*
X138838273Y-103375744D01*
X138473605Y-102863720D01*
X138108419Y-102661607D01*
X138005962Y-102653261D01*
X137799430Y-102671883D01*
X137673365Y-102776258D01*
X137607942Y-103039144D01*
X137583338Y-103533301D01*
X137579710Y-104217753D01*
X137564744Y-105082093D01*
X137484277Y-105697511D01*
X137284953Y-106106222D01*
X136913417Y-106350435D01*
X136316313Y-106472363D01*
X135440286Y-106514216D01*
X134671594Y-106518478D01*
X133529792Y-106497844D01*
X132748609Y-106436082D01*
X132330349Y-106333405D01*
X132278840Y-106297608D01*
X132159981Y-105984770D01*
X132084265Y-105357455D01*
X132057971Y-104476721D01*
X132057763Y-104463591D01*
X132483791Y-104463591D01*
X132512141Y-105073571D01*
X132587752Y-105460145D01*
X132785092Y-105966304D01*
X136856356Y-105966304D01*
X136803902Y-104079710D01*
X136757330Y-102404625D01*
X138946418Y-102404625D01*
X138974854Y-102729959D01*
X139246198Y-103223151D01*
X139391461Y-103439621D01*
X140350990Y-104519498D01*
X141540642Y-105336134D01*
X142912431Y-105867460D01*
X144418371Y-106091408D01*
X145143839Y-106085078D01*
X145932019Y-106003762D01*
X146639801Y-105867665D01*
X147122462Y-105704832D01*
X147506591Y-105480865D01*
X147698059Y-105319603D01*
X147702898Y-105304135D01*
X147617358Y-105100931D01*
X147398547Y-104691144D01*
X147225264Y-104388572D01*
X146928196Y-103914046D01*
X146667207Y-103672413D01*
X146302574Y-103585108D01*
X145775807Y-103573551D01*
X144799502Y-103534284D01*
X144068377Y-103393133D01*
X143465620Y-103115072D01*
X142942304Y-102723914D01*
X142571045Y-102422025D01*
X142250836Y-102237820D01*
X141873832Y-102142278D01*
X141332187Y-102106382D01*
X140627646Y-102101087D01*
X139741905Y-102123657D01*
X139191799Y-102213681D01*
X138946418Y-102404625D01*
X136757330Y-102404625D01*
X136751449Y-102193116D01*
X134834814Y-102140331D01*
X134025528Y-102131930D01*
X133354677Y-102150954D01*
X132906600Y-102193481D01*
X132769350Y-102236374D01*
X132651121Y-102530419D01*
X132559783Y-103076588D01*
X132501839Y-103759455D01*
X132483791Y-104463591D01*
X132057763Y-104463591D01*
X132045142Y-103670314D01*
X131998785Y-103161971D01*
X131907094Y-102882279D01*
X131766830Y-102764982D01*
X131510162Y-102734937D01*
X130937453Y-102707948D01*
X130100776Y-102685152D01*
X129052202Y-102667687D01*
X127843802Y-102656690D01*
X126650019Y-102653261D01*
X125043765Y-102647855D01*
X123778734Y-102630859D01*
X122828181Y-102601100D01*
X122165360Y-102557410D01*
X121763526Y-102498616D01*
X121603478Y-102432391D01*
X121487667Y-102115941D01*
X121413739Y-101449851D01*
X121385956Y-100536594D01*
X122302898Y-100536594D01*
X122394927Y-100628623D01*
X122486956Y-100536594D01*
X122394927Y-100444565D01*
X122302898Y-100536594D01*
X121385956Y-100536594D01*
X121383333Y-100450393D01*
X121382609Y-100237828D01*
X121382609Y-99524275D01*
X122331960Y-99524275D01*
X122360885Y-99785569D01*
X122424796Y-99754348D01*
X122429743Y-99677657D01*
X123039130Y-99677657D01*
X123064758Y-100455736D01*
X123135798Y-100929677D01*
X123243487Y-101082247D01*
X123379060Y-100896212D01*
X123485722Y-100555821D01*
X123635320Y-100125623D01*
X123789455Y-99901536D01*
X123818686Y-99892391D01*
X123898218Y-99777705D01*
X123867391Y-99708333D01*
X123911099Y-99552400D01*
X124051449Y-99524275D01*
X124250744Y-99620236D01*
X124219367Y-99754348D01*
X124164635Y-99892105D01*
X124329352Y-99761890D01*
X124335482Y-99756211D01*
X124575677Y-99395497D01*
X124625816Y-99225995D01*
X124603620Y-99037192D01*
X124476410Y-99117720D01*
X124169687Y-99248619D01*
X123937735Y-99098585D01*
X123909198Y-98776156D01*
X123905955Y-98511715D01*
X123645730Y-98423193D01*
X123520742Y-98419927D01*
X123266868Y-98437106D01*
X123122836Y-98542811D01*
X123057533Y-98818295D01*
X123039845Y-99344811D01*
X123039130Y-99677657D01*
X122429743Y-99677657D01*
X122449106Y-99377517D01*
X122424796Y-99294203D01*
X122357617Y-99271081D01*
X122331960Y-99524275D01*
X121382609Y-99524275D01*
X121382609Y-98264135D01*
X121715785Y-97668357D01*
X122671014Y-97668357D01*
X122787938Y-97984765D01*
X122960597Y-98051811D01*
X123181741Y-97913814D01*
X123189043Y-97775724D01*
X124143478Y-97775724D01*
X124290810Y-98019743D01*
X124419565Y-98051811D01*
X124664504Y-98151197D01*
X124695652Y-98235869D01*
X124757338Y-98415147D01*
X124775371Y-98419927D01*
X124781154Y-98401787D01*
X138955594Y-98401787D01*
X138973962Y-98442284D01*
X139191671Y-98515796D01*
X139685613Y-98571833D01*
X140364004Y-98601485D01*
X140639810Y-98603985D01*
X141433439Y-98592562D01*
X141967796Y-98542242D01*
X142351425Y-98428949D01*
X142692869Y-98228608D01*
X142847808Y-98114242D01*
X142854110Y-98110705D01*
X143588954Y-98110705D01*
X143759289Y-98179525D01*
X144184015Y-98218676D01*
X144910128Y-98234578D01*
X145310145Y-98235869D01*
X146174827Y-98227715D01*
X146718661Y-98198970D01*
X146988643Y-98143216D01*
X147031768Y-98054031D01*
X146994275Y-98005797D01*
X146664054Y-97874267D01*
X146017797Y-97795793D01*
X145310145Y-97775724D01*
X144447438Y-97807163D01*
X143861640Y-97897002D01*
X143626014Y-98005797D01*
X143588954Y-98110705D01*
X142854110Y-98110705D01*
X143769756Y-97596827D01*
X144800877Y-97321610D01*
X145841580Y-97295380D01*
X146792277Y-97524929D01*
X147308676Y-97810066D01*
X147666879Y-98174115D01*
X148061186Y-98727642D01*
X148283043Y-99116041D01*
X148470435Y-99509458D01*
X148608181Y-99894165D01*
X148707893Y-100343050D01*
X148781186Y-100928996D01*
X148839674Y-101724890D01*
X148894970Y-102803617D01*
X148904775Y-103017872D01*
X149038392Y-105966304D01*
X152120290Y-105966304D01*
X152153653Y-103711594D01*
X152161770Y-102851929D01*
X152162311Y-102647370D01*
X154144927Y-102647370D01*
X154289789Y-103054590D01*
X154676541Y-103584350D01*
X155233437Y-104166471D01*
X155888730Y-104730774D01*
X156570672Y-105207080D01*
X156997826Y-105437912D01*
X157564917Y-105680340D01*
X158074604Y-105832969D01*
X158645199Y-105916470D01*
X159395013Y-105951517D01*
X159973509Y-105957858D01*
X160981816Y-105942382D01*
X161725144Y-105876774D01*
X162304738Y-105748170D01*
X162661294Y-105616333D01*
X163230687Y-105320745D01*
X163798751Y-104942909D01*
X164288689Y-104546063D01*
X164623705Y-104193448D01*
X164727003Y-103948304D01*
X164717022Y-103923482D01*
X164506451Y-103761457D01*
X164064763Y-103510102D01*
X163611764Y-103283742D01*
X162608578Y-102809159D01*
X161990173Y-103191355D01*
X161468324Y-103431302D01*
X160818812Y-103549072D01*
X160141960Y-103573551D01*
X159129654Y-103503941D01*
X158359114Y-103270097D01*
X157726487Y-102834494D01*
X157515922Y-102624734D01*
X157495361Y-102605775D01*
X158562608Y-102605775D01*
X158618304Y-102756359D01*
X158827859Y-102944396D01*
X159282897Y-103118014D01*
X159937871Y-103194162D01*
X160637222Y-103170934D01*
X161225390Y-103046426D01*
X161381303Y-102975674D01*
X161535077Y-102862204D01*
X161491328Y-102782266D01*
X161201076Y-102721592D01*
X160615339Y-102665915D01*
X160218840Y-102637053D01*
X159498593Y-102596145D01*
X158929956Y-102581134D01*
X158603733Y-102593736D01*
X158562608Y-102605775D01*
X157495361Y-102605775D01*
X157282510Y-102409510D01*
X157016206Y-102286383D01*
X156619663Y-102236179D01*
X155995533Y-102239725D01*
X155629328Y-102253146D01*
X154885573Y-102293293D01*
X154438304Y-102352341D01*
X154215890Y-102449314D01*
X154146700Y-102603233D01*
X154144927Y-102647370D01*
X152162311Y-102647370D01*
X152164595Y-101785061D01*
X152162670Y-100560352D01*
X152156539Y-99227164D01*
X152150055Y-98305570D01*
X154182581Y-98305570D01*
X154235489Y-98387784D01*
X154466670Y-98446442D01*
X154967620Y-98490159D01*
X155640064Y-98511157D01*
X155804702Y-98511956D01*
X156560151Y-98499240D01*
X157055882Y-98443798D01*
X157399909Y-98319695D01*
X157700246Y-98100993D01*
X157705137Y-98096626D01*
X158378261Y-98096626D01*
X158543453Y-98170717D01*
X158966096Y-98214973D01*
X159536785Y-98230024D01*
X160146117Y-98216503D01*
X160684690Y-98175041D01*
X161043100Y-98106270D01*
X161098339Y-98080917D01*
X161178403Y-97928207D01*
X160925968Y-97746859D01*
X160859606Y-97715619D01*
X160413026Y-97553895D01*
X160115252Y-97499637D01*
X159734752Y-97553989D01*
X159244952Y-97687703D01*
X158773902Y-97856769D01*
X158449653Y-98017179D01*
X158378261Y-98096626D01*
X157705137Y-98096626D01*
X157767987Y-98040519D01*
X158692048Y-97423267D01*
X159702539Y-97145566D01*
X160743436Y-97215600D01*
X161499078Y-97495471D01*
X162016446Y-97832082D01*
X162461800Y-98247718D01*
X162789772Y-98674864D01*
X162954998Y-99046009D01*
X162912110Y-99293641D01*
X162749637Y-99356497D01*
X162476701Y-99360536D01*
X161926284Y-99358336D01*
X161188961Y-99350492D01*
X160652390Y-99342652D01*
X159859825Y-99345632D01*
X159212410Y-99377709D01*
X158793283Y-99433049D01*
X158681147Y-99480912D01*
X158696805Y-99732340D01*
X158858559Y-100167558D01*
X158957902Y-100369032D01*
X159208560Y-100840319D01*
X159428612Y-101188392D01*
X159675914Y-101431888D01*
X160008327Y-101589444D01*
X160483707Y-101679697D01*
X161159915Y-101721284D01*
X162094808Y-101732841D01*
X163192295Y-101732971D01*
X166476811Y-101732971D01*
X166476811Y-100501286D01*
X166455866Y-99816639D01*
X166363435Y-99289656D01*
X166155129Y-98770131D01*
X165786559Y-98107859D01*
X165752510Y-98050420D01*
X164790333Y-96763819D01*
X163606718Y-95771159D01*
X162264036Y-95094906D01*
X160996865Y-94789260D01*
X159610335Y-94739822D01*
X158238993Y-94939309D01*
X157020946Y-95378637D01*
X156277069Y-95820891D01*
X155574606Y-96353659D01*
X154963741Y-96922725D01*
X154494659Y-97473875D01*
X154217544Y-97952895D01*
X154182581Y-98305570D01*
X152150055Y-98305570D01*
X152146743Y-97834857D01*
X152133826Y-96432793D01*
X152118329Y-95070334D01*
X152100796Y-93796841D01*
X152081769Y-92661675D01*
X152061791Y-91714197D01*
X152041404Y-91003769D01*
X152021151Y-90579753D01*
X152008214Y-90480932D01*
X151782836Y-90377294D01*
X151310018Y-90287390D01*
X150710427Y-90222741D01*
X150104733Y-90194869D01*
X149613605Y-90215294D01*
X149477352Y-90239293D01*
X148991304Y-90361283D01*
X148988486Y-92964156D01*
X148978696Y-94148460D01*
X148944276Y-95002222D01*
X148873226Y-95562797D01*
X148753545Y-95867543D01*
X148573231Y-95953815D01*
X148320286Y-95858970D01*
X148105280Y-95713495D01*
X147239190Y-95187540D01*
X146307163Y-94876845D01*
X145191775Y-94747483D01*
X144731452Y-94738768D01*
X143869081Y-94765161D01*
X143201611Y-94867498D01*
X142558141Y-95080517D01*
X142131103Y-95267306D01*
X141388953Y-95660074D01*
X140654534Y-96129546D01*
X140213576Y-96468576D01*
X139682413Y-97003013D01*
X139260769Y-97558969D01*
X139001033Y-98053032D01*
X138955594Y-98401787D01*
X124781154Y-98401787D01*
X124826464Y-98259660D01*
X124839506Y-97872702D01*
X124839138Y-97858906D01*
X124776684Y-97466749D01*
X124602109Y-97385507D01*
X124560308Y-97398761D01*
X124280454Y-97489488D01*
X124220453Y-97499637D01*
X124151990Y-97649906D01*
X124143478Y-97775724D01*
X123189043Y-97775724D01*
X123190670Y-97744962D01*
X123036966Y-97438156D01*
X122824296Y-97369605D01*
X122681175Y-97558255D01*
X122671014Y-97668357D01*
X121715785Y-97668357D01*
X122164855Y-96865341D01*
X122559591Y-96158572D01*
X122917440Y-95516255D01*
X123175954Y-95050523D01*
X123223364Y-94964614D01*
X123252682Y-94911963D01*
X125431884Y-94911963D01*
X125565494Y-95099393D01*
X125615942Y-95106884D01*
X125795214Y-95044086D01*
X125800000Y-95025717D01*
X125715552Y-94922826D01*
X126260145Y-94922826D01*
X126301871Y-95080398D01*
X126433340Y-95106884D01*
X126674510Y-95014855D01*
X127640580Y-95014855D01*
X127739966Y-95259794D01*
X127824637Y-95290942D01*
X127987930Y-95141863D01*
X128008695Y-95014855D01*
X127909309Y-94769916D01*
X127824637Y-94738768D01*
X127661345Y-94887847D01*
X127640580Y-95014855D01*
X126674510Y-95014855D01*
X126685171Y-95010787D01*
X126720290Y-94922826D01*
X126588186Y-94744036D01*
X126547094Y-94738768D01*
X126297818Y-94872559D01*
X126260145Y-94922826D01*
X125715552Y-94922826D01*
X125671024Y-94868574D01*
X125615942Y-94830797D01*
X125446335Y-94845390D01*
X125431884Y-94911963D01*
X123252682Y-94911963D01*
X123478650Y-94506164D01*
X123894719Y-93765650D01*
X123947942Y-93671294D01*
X125435977Y-93671294D01*
X125514098Y-93740233D01*
X125695034Y-93578815D01*
X125909715Y-93282208D01*
X126089075Y-92945582D01*
X126164023Y-92668116D01*
X126126126Y-92394517D01*
X126080813Y-92346014D01*
X125935310Y-92495698D01*
X125734363Y-92850466D01*
X125546787Y-93268890D01*
X125441395Y-93609543D01*
X125435977Y-93671294D01*
X123947942Y-93671294D01*
X124450195Y-92780891D01*
X124912886Y-91962560D01*
X126352174Y-91962560D01*
X126502366Y-92135870D01*
X126648398Y-92161956D01*
X126838511Y-92239564D01*
X126887595Y-92530799D01*
X126859564Y-92852174D01*
X126847347Y-93477601D01*
X126950097Y-94001777D01*
X127139811Y-94320566D01*
X127267908Y-94370652D01*
X127396201Y-94209747D01*
X127398067Y-94197457D01*
X128192753Y-94197457D01*
X128263608Y-94451957D01*
X128376811Y-94462681D01*
X128546168Y-94196372D01*
X128560869Y-94083702D01*
X128457959Y-93845817D01*
X128376811Y-93818478D01*
X128228713Y-93973099D01*
X128192753Y-94197457D01*
X127398067Y-94197457D01*
X127455716Y-93817819D01*
X127456236Y-93772464D01*
X127408432Y-93450362D01*
X128560869Y-93450362D01*
X128700933Y-93629072D01*
X128744927Y-93634420D01*
X128923637Y-93494357D01*
X128928985Y-93450362D01*
X128788922Y-93271653D01*
X128744927Y-93266304D01*
X128566218Y-93406368D01*
X128560869Y-93450362D01*
X127408432Y-93450362D01*
X127375036Y-93225343D01*
X127170432Y-92637510D01*
X126900222Y-92137060D01*
X126622204Y-91852087D01*
X126582246Y-91835477D01*
X126373680Y-91885387D01*
X126352174Y-91962560D01*
X124912886Y-91962560D01*
X125123700Y-91589709D01*
X125425071Y-91057608D01*
X126444203Y-91057608D01*
X126458796Y-91227215D01*
X126525369Y-91241666D01*
X126712799Y-91108057D01*
X126720290Y-91057608D01*
X126657492Y-90878336D01*
X126639123Y-90873551D01*
X126481980Y-91002527D01*
X126444203Y-91057608D01*
X125425071Y-91057608D01*
X125893856Y-90229924D01*
X126416160Y-89309058D01*
X131505797Y-89309058D01*
X131597826Y-89401087D01*
X131689855Y-89309058D01*
X131597826Y-89217029D01*
X131505797Y-89309058D01*
X126416160Y-89309058D01*
X126739288Y-88739357D01*
X127060285Y-88174034D01*
X128806280Y-88174034D01*
X128831546Y-88283456D01*
X128928985Y-88296739D01*
X129080486Y-88229395D01*
X129051691Y-88174034D01*
X128833257Y-88152005D01*
X128806280Y-88174034D01*
X127060285Y-88174034D01*
X127356398Y-87652536D01*
X129029301Y-84707608D01*
X131141824Y-84652485D01*
X132363675Y-84633811D01*
X133260865Y-84655123D01*
G36*
X124511594Y-99432246D02*
G01*
X124419565Y-99524275D01*
X124327536Y-99432246D01*
X124419565Y-99340217D01*
X124511594Y-99432246D01*
G37*
X124511594Y-99432246D02*
X124419565Y-99524275D01*
X124327536Y-99432246D01*
X124419565Y-99340217D01*
X124511594Y-99432246D01*
D11*
X156580000Y-131030000D02*
X156580000Y-133570000D01*
X164200000Y-133570000D02*
X154040000Y-133570000D01*
X154040000Y-131030000D02*
X164200000Y-131030000D01*
X154040000Y-133570000D02*
X154040000Y-131030000D01*
X164200000Y-131030000D02*
X164200000Y-133570000D01*
D12*
X152670000Y-147650000D02*
X143730000Y-147650000D01*
X143730000Y-147650000D02*
X143730000Y-127350000D01*
X143730000Y-127350000D02*
X152670000Y-127350000D01*
X152670000Y-127350000D02*
X152670000Y-147650000D01*
X152670000Y-139725000D02*
X151370000Y-139725000D01*
X151370000Y-139725000D02*
X151370000Y-146450000D01*
X151370000Y-146450000D02*
X145030000Y-146450000D01*
X145030000Y-146450000D02*
X145030000Y-128550000D01*
X145030000Y-128550000D02*
X151370000Y-128550000D01*
X151370000Y-128550000D02*
X151370000Y-135275000D01*
X151370000Y-135275000D02*
X152670000Y-135275000D01*
X143730000Y-137750000D02*
X143530000Y-137750000D01*
X143530000Y-137750000D02*
X143530000Y-137250000D01*
X143530000Y-137250000D02*
X143730000Y-137250000D01*
X143630000Y-137750000D02*
X143630000Y-137250000D01*
X143730000Y-130270000D02*
X143530000Y-130270000D01*
X143530000Y-130270000D02*
X143530000Y-129770000D01*
X143530000Y-129770000D02*
X143730000Y-129770000D01*
X143630000Y-130270000D02*
X143630000Y-129770000D01*
X143730000Y-145230000D02*
X143530000Y-145230000D01*
X143530000Y-145230000D02*
X143530000Y-144730000D01*
X143530000Y-144730000D02*
X143730000Y-144730000D01*
X143630000Y-145230000D02*
X143630000Y-144730000D01*
X150070000Y-144780000D02*
X148870000Y-144780000D01*
X148870000Y-144780000D02*
X149470000Y-144180000D01*
X149470000Y-144180000D02*
X150070000Y-144780000D01*
D11*
X161660000Y-147187500D02*
X161660000Y-144647500D01*
X164200000Y-144647500D02*
X164200000Y-147187500D01*
D12*
X166740000Y-147251000D02*
X166740000Y-144584000D01*
X166676500Y-144584000D02*
X166676500Y-147187500D01*
X166803500Y-147187500D02*
X166803500Y-144647500D01*
X161660000Y-144647500D02*
X166740000Y-144647500D01*
X166803500Y-144520500D02*
X161660000Y-144520500D01*
X166803500Y-144520500D02*
X166803500Y-144901500D01*
X161596500Y-144711000D02*
X161596500Y-144520500D01*
X166740000Y-147187500D02*
X161660000Y-147187500D01*
X166740000Y-147251000D02*
X161596500Y-147251000D01*
D13*
X171100000Y-142400000D02*
X171100000Y-143400000D01*
D11*
X172800000Y-141400000D02*
G75*
G03*
X172800000Y-141400000I-2800000J0D01*
G01*
X172200000Y-139700000D02*
X172200000Y-143100000D01*
X172400000Y-140100000D02*
X172400000Y-142700000D01*
X172600000Y-140600000D02*
X172600000Y-142200000D01*
X161400000Y-142000000D02*
X161400000Y-140400000D01*
X161600000Y-142500000D02*
X161600000Y-139900000D01*
X161800000Y-142900000D02*
X161800000Y-139500000D01*
X166800000Y-141200000D02*
G75*
G03*
X166800000Y-141200000I-2800000J0D01*
G01*
D13*
X162900000Y-140200000D02*
X162900000Y-139200000D01*
D14*
X170110000Y-72350000D02*
X169150000Y-72350000D01*
X176150000Y-72350000D02*
X175190000Y-72350000D01*
X175190000Y-73620000D02*
X170110000Y-73620000D01*
X170110000Y-71080000D02*
X175190000Y-71080000D01*
X175190000Y-71080000D02*
X175190000Y-73620000D01*
X170110000Y-71080000D02*
X170110000Y-73620000D01*
X173920000Y-71080000D02*
X173920000Y-73620000D01*
X174174000Y-73620000D02*
X174174000Y-71080000D01*
X121555000Y-71950000D02*
X120595000Y-71950000D01*
X127595000Y-71950000D02*
X126635000Y-71950000D01*
X126635000Y-73220000D02*
X121555000Y-73220000D01*
X121555000Y-70680000D02*
X126635000Y-70680000D01*
X126635000Y-70680000D02*
X126635000Y-73220000D01*
X121555000Y-70680000D02*
X121555000Y-73220000D01*
X125365000Y-70680000D02*
X125365000Y-73220000D01*
X125619000Y-73220000D02*
X125619000Y-70680000D01*
D15*
X195656500Y-58308500D02*
X195656500Y-50244000D01*
X180650000Y-58308500D02*
X195650000Y-58308500D01*
X180670500Y-50244000D02*
X180670500Y-58308500D01*
X195656500Y-50244000D02*
X180670500Y-50244000D01*
X195650000Y-56200000D02*
X180650000Y-56200000D01*
X195650000Y-51300000D02*
X180650000Y-51300000D01*
X195210000Y-53800000D02*
G75*
G03*
X195210000Y-53800000I-2030000J0D01*
G01*
X190150000Y-53800000D02*
G75*
G03*
X190150000Y-53800000I-2050000J0D01*
G01*
X190640000Y-51323500D02*
X190650000Y-50260653D01*
X185623500Y-51323500D02*
X185623500Y-50307500D01*
X185150000Y-53800000D02*
G75*
G03*
X185150000Y-53800000I-2130000J0D01*
G01*
D12*
X139470000Y-144180000D02*
X140070000Y-144780000D01*
X138870000Y-144780000D02*
X139470000Y-144180000D01*
X140070000Y-144780000D02*
X138870000Y-144780000D01*
X133630000Y-145230000D02*
X133630000Y-144730000D01*
X133530000Y-144730000D02*
X133730000Y-144730000D01*
X133530000Y-145230000D02*
X133530000Y-144730000D01*
X133730000Y-145230000D02*
X133530000Y-145230000D01*
X133630000Y-130270000D02*
X133630000Y-129770000D01*
X133530000Y-129770000D02*
X133730000Y-129770000D01*
X133530000Y-130270000D02*
X133530000Y-129770000D01*
X133730000Y-130270000D02*
X133530000Y-130270000D01*
X133630000Y-137750000D02*
X133630000Y-137250000D01*
X133530000Y-137250000D02*
X133730000Y-137250000D01*
X133530000Y-137750000D02*
X133530000Y-137250000D01*
X133730000Y-137750000D02*
X133530000Y-137750000D01*
X141370000Y-135275000D02*
X142670000Y-135275000D01*
X141370000Y-128550000D02*
X141370000Y-135275000D01*
X135030000Y-128550000D02*
X141370000Y-128550000D01*
X135030000Y-146450000D02*
X135030000Y-128550000D01*
X141370000Y-146450000D02*
X135030000Y-146450000D01*
X141370000Y-139725000D02*
X141370000Y-146450000D01*
X142670000Y-139725000D02*
X141370000Y-139725000D01*
X142670000Y-127350000D02*
X142670000Y-147650000D01*
X133730000Y-127350000D02*
X142670000Y-127350000D01*
X133730000Y-147650000D02*
X133730000Y-127350000D01*
X142670000Y-147650000D02*
X133730000Y-147650000D01*
X132670000Y-147650000D02*
X123730000Y-147650000D01*
X123730000Y-147650000D02*
X123730000Y-127350000D01*
X123730000Y-127350000D02*
X132670000Y-127350000D01*
X132670000Y-127350000D02*
X132670000Y-147650000D01*
X132670000Y-139725000D02*
X131370000Y-139725000D01*
X131370000Y-139725000D02*
X131370000Y-146450000D01*
X131370000Y-146450000D02*
X125030000Y-146450000D01*
X125030000Y-146450000D02*
X125030000Y-128550000D01*
X125030000Y-128550000D02*
X131370000Y-128550000D01*
X131370000Y-128550000D02*
X131370000Y-135275000D01*
X131370000Y-135275000D02*
X132670000Y-135275000D01*
X123730000Y-137750000D02*
X123530000Y-137750000D01*
X123530000Y-137750000D02*
X123530000Y-137250000D01*
X123530000Y-137250000D02*
X123730000Y-137250000D01*
X123630000Y-137750000D02*
X123630000Y-137250000D01*
X123730000Y-130270000D02*
X123530000Y-130270000D01*
X123530000Y-130270000D02*
X123530000Y-129770000D01*
X123530000Y-129770000D02*
X123730000Y-129770000D01*
X123630000Y-130270000D02*
X123630000Y-129770000D01*
X123730000Y-145230000D02*
X123530000Y-145230000D01*
X123530000Y-145230000D02*
X123530000Y-144730000D01*
X123530000Y-144730000D02*
X123730000Y-144730000D01*
X123630000Y-145230000D02*
X123630000Y-144730000D01*
X130070000Y-144780000D02*
X128870000Y-144780000D01*
X128870000Y-144780000D02*
X129470000Y-144180000D01*
X129470000Y-144180000D02*
X130070000Y-144780000D01*
X119470000Y-144180000D02*
X120070000Y-144780000D01*
X118870000Y-144780000D02*
X119470000Y-144180000D01*
X120070000Y-144780000D02*
X118870000Y-144780000D01*
X113630000Y-145230000D02*
X113630000Y-144730000D01*
X113530000Y-144730000D02*
X113730000Y-144730000D01*
X113530000Y-145230000D02*
X113530000Y-144730000D01*
X113730000Y-145230000D02*
X113530000Y-145230000D01*
X113630000Y-130270000D02*
X113630000Y-129770000D01*
X113530000Y-129770000D02*
X113730000Y-129770000D01*
X113530000Y-130270000D02*
X113530000Y-129770000D01*
X113730000Y-130270000D02*
X113530000Y-130270000D01*
X113630000Y-137750000D02*
X113630000Y-137250000D01*
X113530000Y-137250000D02*
X113730000Y-137250000D01*
X113530000Y-137750000D02*
X113530000Y-137250000D01*
X113730000Y-137750000D02*
X113530000Y-137750000D01*
X121370000Y-135275000D02*
X122670000Y-135275000D01*
X121370000Y-128550000D02*
X121370000Y-135275000D01*
X115030000Y-128550000D02*
X121370000Y-128550000D01*
X115030000Y-146450000D02*
X115030000Y-128550000D01*
X121370000Y-146450000D02*
X115030000Y-146450000D01*
X121370000Y-139725000D02*
X121370000Y-146450000D01*
X122670000Y-139725000D02*
X121370000Y-139725000D01*
X122670000Y-127350000D02*
X122670000Y-147650000D01*
X113730000Y-127350000D02*
X122670000Y-127350000D01*
X113730000Y-147650000D02*
X113730000Y-127350000D01*
X122670000Y-147650000D02*
X113730000Y-147650000D01*
X109634000Y-124126000D02*
G75*
G03*
X109634000Y-124126000I-2286000J0D01*
G01*
X110904000Y-75866000D02*
G75*
G03*
X110904000Y-75866000I-2286000J0D01*
G01*
D16*
X194450000Y-65425000D02*
X196450000Y-65425000D01*
X195450000Y-66425000D02*
X195450000Y-64425000D01*
X193850000Y-65425000D02*
G75*
G03*
X193850000Y-65425000I-6000000J0D01*
G01*
D14*
X113000000Y-55000000D02*
G75*
G03*
X113000000Y-55000000I-3000000J0D01*
G01*
X107000000Y-55000000D02*
X113000000Y-55000000D01*
X110000000Y-52000000D02*
X110000000Y-58000000D01*
X200000000Y-52000000D02*
X200000000Y-58000000D01*
X197000000Y-55000000D02*
X203000000Y-55000000D01*
X203000000Y-55000000D02*
G75*
G03*
X203000000Y-55000000I-3000000J0D01*
G01*
X203000000Y-145000000D02*
G75*
G03*
X203000000Y-145000000I-3000000J0D01*
G01*
X197000000Y-145000000D02*
X203000000Y-145000000D01*
X200000000Y-142000000D02*
X200000000Y-148000000D01*
X110000000Y-142000000D02*
X110000000Y-148000000D01*
X107000000Y-145000000D02*
X113000000Y-145000000D01*
X113000000Y-145000000D02*
G75*
G03*
X113000000Y-145000000I-3000000J0D01*
G01*
D11*
X175930000Y-141342000D02*
X175930000Y-143882000D01*
X183550000Y-143882000D02*
X173390000Y-143882000D01*
X173390000Y-141342000D02*
X183550000Y-141342000D01*
X173390000Y-143882000D02*
X173390000Y-141342000D01*
X183550000Y-141342000D02*
X183550000Y-143882000D01*
D15*
X196555000Y-68816500D02*
X204492500Y-68816500D01*
X196555000Y-58783500D02*
X196555000Y-68783500D01*
X204492500Y-58783500D02*
X196555000Y-58783500D01*
X204492500Y-68783500D02*
X204492500Y-58783500D01*
X198600000Y-68800000D02*
X198600000Y-58800000D01*
X203500000Y-68800000D02*
X203500000Y-58800000D01*
X203000000Y-66350000D02*
G75*
G03*
X203000000Y-66350000I-2000000J0D01*
G01*
X203000000Y-61250000D02*
G75*
G03*
X203000000Y-61250000I-2000000J0D01*
G01*
X203540000Y-63800000D02*
X204484500Y-63800000D01*
X203490000Y-74250000D02*
X204434500Y-74250000D01*
X202950000Y-71700000D02*
G75*
G03*
X202950000Y-71700000I-2000000J0D01*
G01*
X202950000Y-76800000D02*
G75*
G03*
X202950000Y-76800000I-2000000J0D01*
G01*
X203450000Y-79250000D02*
X203450000Y-69250000D01*
X198550000Y-79250000D02*
X198550000Y-69250000D01*
X204442500Y-79233500D02*
X204442500Y-69233500D01*
X204442500Y-69233500D02*
X196505000Y-69233500D01*
X196505000Y-69233500D02*
X196505000Y-79233500D01*
X196505000Y-79266500D02*
X204442500Y-79266500D01*
D11*
X196120000Y-124680000D02*
X193580000Y-124680000D01*
X193580000Y-132300000D02*
X193580000Y-122140000D01*
X196120000Y-122140000D02*
X196120000Y-132300000D01*
X193580000Y-122140000D02*
X196120000Y-122140000D01*
X196120000Y-132300000D02*
X193580000Y-132300000D01*
X196070000Y-101080000D02*
X193530000Y-101080000D01*
X193530000Y-90920000D02*
X196070000Y-90920000D01*
X196070000Y-90920000D02*
X196070000Y-101080000D01*
X193530000Y-101080000D02*
X193530000Y-90920000D01*
X196070000Y-93460000D02*
X193530000Y-93460000D01*
X196120000Y-103910000D02*
X193580000Y-103910000D01*
X193580000Y-111530000D02*
X193580000Y-101370000D01*
X196120000Y-101370000D02*
X196120000Y-111530000D01*
X193580000Y-101370000D02*
X196120000Y-101370000D01*
X196120000Y-111530000D02*
X193580000Y-111530000D01*
X196120000Y-121840000D02*
X193580000Y-121840000D01*
X193580000Y-111680000D02*
X196120000Y-111680000D01*
X196120000Y-111680000D02*
X196120000Y-121840000D01*
X193580000Y-121840000D02*
X193580000Y-111680000D01*
X196120000Y-114220000D02*
X193580000Y-114220000D01*
X196070000Y-83060000D02*
X193530000Y-83060000D01*
X193530000Y-90680000D02*
X193530000Y-80520000D01*
X196070000Y-80520000D02*
X196070000Y-90680000D01*
X193530000Y-80520000D02*
X196070000Y-80520000D01*
X196070000Y-90680000D02*
X193530000Y-90680000D01*
X196070000Y-72560000D02*
X193530000Y-72560000D01*
X193530000Y-80180000D02*
X193530000Y-70020000D01*
X196070000Y-70020000D02*
X196070000Y-80180000D01*
X193530000Y-70020000D02*
X196070000Y-70020000D01*
X196070000Y-80180000D02*
X193530000Y-80180000D01*
D15*
X137600000Y-53875000D02*
G75*
G03*
X137600000Y-53875000I-2130000J0D01*
G01*
X138073500Y-51398500D02*
X138073500Y-50382500D01*
X143090000Y-51398500D02*
X143100000Y-50335653D01*
X142600000Y-53875000D02*
G75*
G03*
X142600000Y-53875000I-2050000J0D01*
G01*
X147660000Y-53875000D02*
G75*
G03*
X147660000Y-53875000I-2030000J0D01*
G01*
X148100000Y-51375000D02*
X133100000Y-51375000D01*
X148100000Y-56275000D02*
X133100000Y-56275000D01*
X148106500Y-50319000D02*
X133120500Y-50319000D01*
X133120500Y-50319000D02*
X133120500Y-58383500D01*
X133100000Y-58383500D02*
X148100000Y-58383500D01*
X148106500Y-58383500D02*
X148106500Y-50319000D01*
D11*
X183580000Y-138380000D02*
X183580000Y-140920000D01*
X173420000Y-140920000D02*
X173420000Y-138380000D01*
X173420000Y-138380000D02*
X183580000Y-138380000D01*
X183580000Y-140920000D02*
X173420000Y-140920000D01*
X175960000Y-138380000D02*
X175960000Y-140920000D01*
X183555000Y-144305000D02*
X183555000Y-146845000D01*
X173395000Y-146845000D02*
X173395000Y-144305000D01*
X173395000Y-144305000D02*
X183555000Y-144305000D01*
X183555000Y-146845000D02*
X173395000Y-146845000D01*
X175935000Y-144305000D02*
X175935000Y-146845000D01*
X153930000Y-145350000D02*
X156470000Y-145350000D01*
X156470000Y-137730000D02*
X156470000Y-147890000D01*
X153930000Y-147890000D02*
X153930000Y-137730000D01*
X156470000Y-147890000D02*
X153930000Y-147890000D01*
X153930000Y-137730000D02*
X156470000Y-137730000D01*
X158130000Y-137790000D02*
X160670000Y-137790000D01*
X160670000Y-147950000D02*
X158130000Y-147950000D01*
X158130000Y-147950000D02*
X158130000Y-137790000D01*
X160670000Y-137790000D02*
X160670000Y-147950000D01*
X158130000Y-145410000D02*
X160670000Y-145410000D01*
D15*
X196955000Y-137216500D02*
X204892500Y-137216500D01*
X196955000Y-127183500D02*
X196955000Y-137183500D01*
X204892500Y-127183500D02*
X196955000Y-127183500D01*
X204892500Y-137183500D02*
X204892500Y-127183500D01*
X199000000Y-137200000D02*
X199000000Y-127200000D01*
X203900000Y-137200000D02*
X203900000Y-127200000D01*
X203400000Y-134750000D02*
G75*
G03*
X203400000Y-134750000I-2000000J0D01*
G01*
X203400000Y-129650000D02*
G75*
G03*
X203400000Y-129650000I-2000000J0D01*
G01*
X203940000Y-132200000D02*
X204884500Y-132200000D01*
X203940000Y-121750000D02*
X204884500Y-121750000D01*
X203400000Y-119200000D02*
G75*
G03*
X203400000Y-119200000I-2000000J0D01*
G01*
X203400000Y-124300000D02*
G75*
G03*
X203400000Y-124300000I-2000000J0D01*
G01*
X203900000Y-126750000D02*
X203900000Y-116750000D01*
X199000000Y-126750000D02*
X199000000Y-116750000D01*
X204892500Y-126733500D02*
X204892500Y-116733500D01*
X204892500Y-116733500D02*
X196955000Y-116733500D01*
X196955000Y-116733500D02*
X196955000Y-126733500D01*
X196955000Y-126766500D02*
X204892500Y-126766500D01*
D17*
X180000000Y-50550000D02*
X164500000Y-50550000D01*
X180000000Y-70050000D02*
X180000000Y-50550000D01*
X164500000Y-70050000D02*
X164500000Y-50550000D01*
X180000000Y-70050000D02*
X164600000Y-70050000D01*
X174000000Y-54050000D02*
X176250000Y-54050000D01*
X168250000Y-54050000D02*
X170500000Y-54050000D01*
X172250000Y-58650000D02*
X172250000Y-57150000D01*
X172250000Y-57150000D02*
X169750000Y-52550000D01*
X175850000Y-58650000D02*
X175850000Y-65450000D01*
X172250000Y-58650000D02*
X175850000Y-58650000D01*
X172250000Y-66050000D02*
X172250000Y-65450000D01*
X172250000Y-65450000D02*
X175850000Y-65450000D01*
X178250000Y-64050000D02*
X178250000Y-62050000D01*
X166250000Y-64050000D02*
X166250000Y-62050000D01*
X166250000Y-62050000D02*
X170450000Y-62050000D01*
X174050000Y-62050000D02*
X178250000Y-62050000D01*
X174050000Y-60050000D02*
X170450000Y-64050000D01*
X174050000Y-64050000D02*
X170450000Y-64050000D01*
X170450000Y-64050000D02*
X170450000Y-60050000D01*
X170450000Y-60050000D02*
X174050000Y-60050000D01*
X174050000Y-60050000D02*
X174050000Y-64050000D01*
X126225000Y-60150000D02*
X126225000Y-64150000D01*
X122625000Y-60150000D02*
X126225000Y-60150000D01*
X122625000Y-64150000D02*
X122625000Y-60150000D01*
X126225000Y-64150000D02*
X122625000Y-64150000D01*
X126225000Y-60150000D02*
X122625000Y-64150000D01*
X126225000Y-62150000D02*
X130425000Y-62150000D01*
X118425000Y-62150000D02*
X122625000Y-62150000D01*
X118425000Y-64150000D02*
X118425000Y-62150000D01*
X130425000Y-64150000D02*
X130425000Y-62150000D01*
X124425000Y-65550000D02*
X128025000Y-65550000D01*
X124425000Y-66150000D02*
X124425000Y-65550000D01*
X124425000Y-58750000D02*
X128025000Y-58750000D01*
X128025000Y-58750000D02*
X128025000Y-65550000D01*
X124425000Y-57250000D02*
X121925000Y-52650000D01*
X124425000Y-58750000D02*
X124425000Y-57250000D01*
X120425000Y-54150000D02*
X122675000Y-54150000D01*
X126175000Y-54150000D02*
X128425000Y-54150000D01*
X132175000Y-70150000D02*
X116775000Y-70150000D01*
X116675000Y-70150000D02*
X116675000Y-50650000D01*
X132175000Y-70150000D02*
X132175000Y-50650000D01*
X132175000Y-50650000D02*
X116675000Y-50650000D01*
D12*
X159470000Y-70150000D02*
X150530000Y-70150000D01*
X150530000Y-70150000D02*
X150530000Y-49850000D01*
X150530000Y-49850000D02*
X159470000Y-49850000D01*
X159470000Y-49850000D02*
X159470000Y-70150000D01*
X159470000Y-62225000D02*
X158170000Y-62225000D01*
X158170000Y-62225000D02*
X158170000Y-68950000D01*
X158170000Y-68950000D02*
X151830000Y-68950000D01*
X151830000Y-68950000D02*
X151830000Y-51050000D01*
X151830000Y-51050000D02*
X158170000Y-51050000D01*
X158170000Y-51050000D02*
X158170000Y-57775000D01*
X158170000Y-57775000D02*
X159470000Y-57775000D01*
X150530000Y-60250000D02*
X150330000Y-60250000D01*
X150330000Y-60250000D02*
X150330000Y-59750000D01*
X150330000Y-59750000D02*
X150530000Y-59750000D01*
X150430000Y-60250000D02*
X150430000Y-59750000D01*
X150530000Y-52770000D02*
X150330000Y-52770000D01*
X150330000Y-52770000D02*
X150330000Y-52270000D01*
X150330000Y-52270000D02*
X150530000Y-52270000D01*
X150430000Y-52770000D02*
X150430000Y-52270000D01*
X150530000Y-67730000D02*
X150330000Y-67730000D01*
X150330000Y-67730000D02*
X150330000Y-67230000D01*
X150330000Y-67230000D02*
X150530000Y-67230000D01*
X150430000Y-67730000D02*
X150430000Y-67230000D01*
X156870000Y-67280000D02*
X155670000Y-67280000D01*
X155670000Y-67280000D02*
X156270000Y-66680000D01*
X156270000Y-66680000D02*
X156870000Y-67280000D01*
D11*
X183721000Y-81400000D02*
G75*
G03*
X183721000Y-81400000I-381000J0D01*
G01*
D14*
X182070000Y-81400000D02*
X179530000Y-81400000D01*
D11*
X172381000Y-82800000D02*
G75*
G03*
X172381000Y-82800000I-381000J0D01*
G01*
D14*
X172000000Y-84070000D02*
X172000000Y-86610000D01*
X119900000Y-84895000D02*
X119900000Y-87435000D01*
D11*
X120281000Y-83625000D02*
G75*
G03*
X120281000Y-83625000I-381000J0D01*
G01*
D12*
X167060000Y-144549000D02*
X172203500Y-144549000D01*
X167060000Y-144612500D02*
X172140000Y-144612500D01*
X172203500Y-147089000D02*
X172203500Y-147279500D01*
X166996500Y-147279500D02*
X166996500Y-146898500D01*
X166996500Y-147279500D02*
X172140000Y-147279500D01*
X172140000Y-147152500D02*
X167060000Y-147152500D01*
X166996500Y-144612500D02*
X166996500Y-147152500D01*
X167123500Y-147216000D02*
X167123500Y-144612500D01*
X167060000Y-144549000D02*
X167060000Y-147216000D01*
D11*
X169600000Y-147152500D02*
X169600000Y-144612500D01*
X172140000Y-144612500D02*
X172140000Y-147152500D01*
D14*
X176041000Y-130089000D02*
X180359000Y-130089000D01*
X176041000Y-128311000D02*
X176041000Y-130089000D01*
X180359000Y-128311000D02*
X176041000Y-128311000D01*
X180359000Y-130089000D02*
X180359000Y-128311000D01*
X180359000Y-129200000D02*
X182010000Y-129200000D01*
X176041000Y-129200000D02*
X174390000Y-129200000D01*
X176041000Y-132400000D02*
X174390000Y-132400000D01*
X180359000Y-132400000D02*
X182010000Y-132400000D01*
X180359000Y-133289000D02*
X180359000Y-131511000D01*
X180359000Y-131511000D02*
X176041000Y-131511000D01*
X176041000Y-131511000D02*
X176041000Y-133289000D01*
X176041000Y-133289000D02*
X180359000Y-133289000D01*
D13*
X158300000Y-128778571D02*
X158300000Y-129850000D01*
X158228571Y-130064285D01*
X158085714Y-130207142D01*
X157871428Y-130278571D01*
X157728571Y-130278571D01*
X159657142Y-129278571D02*
X159657142Y-130278571D01*
X159300000Y-128707142D02*
X158942857Y-129778571D01*
X159871428Y-129778571D01*
D12*
X146785714Y-149452380D02*
X146785714Y-148452380D01*
X147166666Y-148452380D01*
X147261904Y-148500000D01*
X147309523Y-148547619D01*
X147357142Y-148642857D01*
X147357142Y-148785714D01*
X147309523Y-148880952D01*
X147261904Y-148928571D01*
X147166666Y-148976190D01*
X146785714Y-148976190D01*
X148309523Y-149452380D02*
X147738095Y-149452380D01*
X148023809Y-149452380D02*
X148023809Y-148452380D01*
X147928571Y-148595238D01*
X147833333Y-148690476D01*
X147738095Y-148738095D01*
X148642857Y-148452380D02*
X149309523Y-148452380D01*
X148880952Y-149452380D01*
D18*
X163461333Y-147443619D02*
X163461333Y-148169333D01*
X163412952Y-148314476D01*
X163316190Y-148411238D01*
X163171047Y-148459619D01*
X163074285Y-148459619D01*
X164477333Y-148459619D02*
X163896761Y-148459619D01*
X164187047Y-148459619D02*
X164187047Y-147443619D01*
X164090285Y-147588761D01*
X163993523Y-147685523D01*
X163896761Y-147733904D01*
D11*
X169746000Y-137344285D02*
X169673428Y-137416857D01*
X169455714Y-137489428D01*
X169310571Y-137489428D01*
X169092857Y-137416857D01*
X168947714Y-137271714D01*
X168875142Y-137126571D01*
X168802571Y-136836285D01*
X168802571Y-136618571D01*
X168875142Y-136328285D01*
X168947714Y-136183142D01*
X169092857Y-136038000D01*
X169310571Y-135965428D01*
X169455714Y-135965428D01*
X169673428Y-136038000D01*
X169746000Y-136110571D01*
X170326571Y-136110571D02*
X170399142Y-136038000D01*
X170544285Y-135965428D01*
X170907142Y-135965428D01*
X171052285Y-136038000D01*
X171124857Y-136110571D01*
X171197428Y-136255714D01*
X171197428Y-136400857D01*
X171124857Y-136618571D01*
X170254000Y-137489428D01*
X171197428Y-137489428D01*
X163546000Y-137544285D02*
X163473428Y-137616857D01*
X163255714Y-137689428D01*
X163110571Y-137689428D01*
X162892857Y-137616857D01*
X162747714Y-137471714D01*
X162675142Y-137326571D01*
X162602571Y-137036285D01*
X162602571Y-136818571D01*
X162675142Y-136528285D01*
X162747714Y-136383142D01*
X162892857Y-136238000D01*
X163110571Y-136165428D01*
X163255714Y-136165428D01*
X163473428Y-136238000D01*
X163546000Y-136310571D01*
X164997428Y-137689428D02*
X164126571Y-137689428D01*
X164562000Y-137689428D02*
X164562000Y-136165428D01*
X164416857Y-136383142D01*
X164271714Y-136528285D01*
X164126571Y-136600857D01*
X163275142Y-73089428D02*
X163275142Y-71565428D01*
X163638000Y-71565428D01*
X163855714Y-71638000D01*
X164000857Y-71783142D01*
X164073428Y-71928285D01*
X164146000Y-72218571D01*
X164146000Y-72436285D01*
X164073428Y-72726571D01*
X164000857Y-72871714D01*
X163855714Y-73016857D01*
X163638000Y-73089428D01*
X163275142Y-73089428D01*
X165452285Y-72073428D02*
X165452285Y-73089428D01*
X165089428Y-71492857D02*
X164726571Y-72581428D01*
X165670000Y-72581428D01*
X131875142Y-72889428D02*
X131875142Y-71365428D01*
X132238000Y-71365428D01*
X132455714Y-71438000D01*
X132600857Y-71583142D01*
X132673428Y-71728285D01*
X132746000Y-72018571D01*
X132746000Y-72236285D01*
X132673428Y-72526571D01*
X132600857Y-72671714D01*
X132455714Y-72816857D01*
X132238000Y-72889428D01*
X131875142Y-72889428D01*
X134124857Y-71365428D02*
X133399142Y-71365428D01*
X133326571Y-72091142D01*
X133399142Y-72018571D01*
X133544285Y-71946000D01*
X133907142Y-71946000D01*
X134052285Y-72018571D01*
X134124857Y-72091142D01*
X134197428Y-72236285D01*
X134197428Y-72599142D01*
X134124857Y-72744285D01*
X134052285Y-72816857D01*
X133907142Y-72889428D01*
X133544285Y-72889428D01*
X133399142Y-72816857D01*
X133326571Y-72744285D01*
D13*
X181500000Y-59178571D02*
X181500000Y-60250000D01*
X181428571Y-60464285D01*
X181285714Y-60607142D01*
X181071428Y-60678571D01*
X180928571Y-60678571D01*
X182071428Y-59178571D02*
X183000000Y-59178571D01*
X182500000Y-59750000D01*
X182714285Y-59750000D01*
X182857142Y-59821428D01*
X182928571Y-59892857D01*
X183000000Y-60035714D01*
X183000000Y-60392857D01*
X182928571Y-60535714D01*
X182857142Y-60607142D01*
X182714285Y-60678571D01*
X182285714Y-60678571D01*
X182142857Y-60607142D01*
X182071428Y-60535714D01*
X184257142Y-47178571D02*
X185114285Y-47178571D01*
X184685714Y-48678571D02*
X184685714Y-47178571D01*
X186114285Y-47892857D02*
X186328571Y-47964285D01*
X186400000Y-48035714D01*
X186471428Y-48178571D01*
X186471428Y-48392857D01*
X186400000Y-48535714D01*
X186328571Y-48607142D01*
X186185714Y-48678571D01*
X185614285Y-48678571D01*
X185614285Y-47178571D01*
X186114285Y-47178571D01*
X186257142Y-47250000D01*
X186328571Y-47321428D01*
X186400000Y-47464285D01*
X186400000Y-47607142D01*
X186328571Y-47750000D01*
X186257142Y-47821428D01*
X186114285Y-47892857D01*
X185614285Y-47892857D01*
X186757142Y-48821428D02*
X187900000Y-48821428D01*
X189042857Y-48678571D02*
X188185714Y-48678571D01*
X188614285Y-48678571D02*
X188614285Y-47178571D01*
X188471428Y-47392857D01*
X188328571Y-47535714D01*
X188185714Y-47607142D01*
X189542857Y-47178571D02*
X190542857Y-48678571D01*
X190542857Y-47178571D02*
X189542857Y-48678571D01*
X190971428Y-47178571D02*
X191900000Y-47178571D01*
X191400000Y-47750000D01*
X191614285Y-47750000D01*
X191757142Y-47821428D01*
X191828571Y-47892857D01*
X191900000Y-48035714D01*
X191900000Y-48392857D01*
X191828571Y-48535714D01*
X191757142Y-48607142D01*
X191614285Y-48678571D01*
X191185714Y-48678571D01*
X191042857Y-48607142D01*
X190971428Y-48535714D01*
D12*
X137185714Y-149452380D02*
X137185714Y-148452380D01*
X137566666Y-148452380D01*
X137661904Y-148500000D01*
X137709523Y-148547619D01*
X137757142Y-148642857D01*
X137757142Y-148785714D01*
X137709523Y-148880952D01*
X137661904Y-148928571D01*
X137566666Y-148976190D01*
X137185714Y-148976190D01*
X138709523Y-149452380D02*
X138138095Y-149452380D01*
X138423809Y-149452380D02*
X138423809Y-148452380D01*
X138328571Y-148595238D01*
X138233333Y-148690476D01*
X138138095Y-148738095D01*
X139614285Y-148452380D02*
X139138095Y-148452380D01*
X139090476Y-148928571D01*
X139138095Y-148880952D01*
X139233333Y-148833333D01*
X139471428Y-148833333D01*
X139566666Y-148880952D01*
X139614285Y-148928571D01*
X139661904Y-149023809D01*
X139661904Y-149261904D01*
X139614285Y-149357142D01*
X139566666Y-149404761D01*
X139471428Y-149452380D01*
X139233333Y-149452380D01*
X139138095Y-149404761D01*
X139090476Y-149357142D01*
X126785714Y-149252380D02*
X126785714Y-148252380D01*
X127166666Y-148252380D01*
X127261904Y-148300000D01*
X127309523Y-148347619D01*
X127357142Y-148442857D01*
X127357142Y-148585714D01*
X127309523Y-148680952D01*
X127261904Y-148728571D01*
X127166666Y-148776190D01*
X126785714Y-148776190D01*
X128309523Y-149252380D02*
X127738095Y-149252380D01*
X128023809Y-149252380D02*
X128023809Y-148252380D01*
X127928571Y-148395238D01*
X127833333Y-148490476D01*
X127738095Y-148538095D01*
X129166666Y-148585714D02*
X129166666Y-149252380D01*
X128928571Y-148204761D02*
X128690476Y-148919047D01*
X129309523Y-148919047D01*
X116585714Y-149052380D02*
X116585714Y-148052380D01*
X116966666Y-148052380D01*
X117061904Y-148100000D01*
X117109523Y-148147619D01*
X117157142Y-148242857D01*
X117157142Y-148385714D01*
X117109523Y-148480952D01*
X117061904Y-148528571D01*
X116966666Y-148576190D01*
X116585714Y-148576190D01*
X118109523Y-149052380D02*
X117538095Y-149052380D01*
X117823809Y-149052380D02*
X117823809Y-148052380D01*
X117728571Y-148195238D01*
X117633333Y-148290476D01*
X117538095Y-148338095D01*
X118680952Y-148480952D02*
X118585714Y-148433333D01*
X118538095Y-148385714D01*
X118490476Y-148290476D01*
X118490476Y-148242857D01*
X118538095Y-148147619D01*
X118585714Y-148100000D01*
X118680952Y-148052380D01*
X118871428Y-148052380D01*
X118966666Y-148100000D01*
X119014285Y-148147619D01*
X119061904Y-148242857D01*
X119061904Y-148290476D01*
X119014285Y-148385714D01*
X118966666Y-148433333D01*
X118871428Y-148480952D01*
X118680952Y-148480952D01*
X118585714Y-148528571D01*
X118538095Y-148576190D01*
X118490476Y-148671428D01*
X118490476Y-148861904D01*
X118538095Y-148957142D01*
X118585714Y-149004761D01*
X118680952Y-149052380D01*
X118871428Y-149052380D01*
X118966666Y-149004761D01*
X119014285Y-148957142D01*
X119061904Y-148861904D01*
X119061904Y-148671428D01*
X119014285Y-148576190D01*
X118966666Y-148528571D01*
X118871428Y-148480952D01*
D13*
X193078571Y-59692857D02*
X193292857Y-59764285D01*
X193364285Y-59835714D01*
X193435714Y-59978571D01*
X193435714Y-60192857D01*
X193364285Y-60335714D01*
X193292857Y-60407142D01*
X193150000Y-60478571D01*
X192578571Y-60478571D01*
X192578571Y-58978571D01*
X193078571Y-58978571D01*
X193221428Y-59050000D01*
X193292857Y-59121428D01*
X193364285Y-59264285D01*
X193364285Y-59407142D01*
X193292857Y-59550000D01*
X193221428Y-59621428D01*
X193078571Y-59692857D01*
X192578571Y-59692857D01*
X193935714Y-58978571D02*
X194935714Y-58978571D01*
X193935714Y-60478571D01*
X194935714Y-60478571D01*
X196292857Y-60478571D02*
X195435714Y-60478571D01*
X195864285Y-60478571D02*
X195864285Y-58978571D01*
X195721428Y-59192857D01*
X195578571Y-59335714D01*
X195435714Y-59407142D01*
X184500000Y-141778571D02*
X184500000Y-142850000D01*
X184428571Y-143064285D01*
X184285714Y-143207142D01*
X184071428Y-143278571D01*
X183928571Y-143278571D01*
X185142857Y-141921428D02*
X185214285Y-141850000D01*
X185357142Y-141778571D01*
X185714285Y-141778571D01*
X185857142Y-141850000D01*
X185928571Y-141921428D01*
X186000000Y-142064285D01*
X186000000Y-142207142D01*
X185928571Y-142421428D01*
X185071428Y-143278571D01*
X186000000Y-143278571D01*
X198278571Y-66642857D02*
X198278571Y-67500000D01*
X198278571Y-67071428D02*
X196778571Y-67071428D01*
X196992857Y-67214285D01*
X197135714Y-67357142D01*
X197207142Y-67500000D01*
X196921428Y-66071428D02*
X196850000Y-66000000D01*
X196778571Y-65857142D01*
X196778571Y-65500000D01*
X196850000Y-65357142D01*
X196921428Y-65285714D01*
X197064285Y-65214285D01*
X197207142Y-65214285D01*
X197421428Y-65285714D01*
X198278571Y-66142857D01*
X198278571Y-65214285D01*
X196778571Y-64785714D02*
X198278571Y-64285714D01*
X196778571Y-63785714D01*
X198278571Y-62142857D02*
X196778571Y-62142857D01*
X198278571Y-61428571D02*
X196778571Y-61428571D01*
X198278571Y-60571428D01*
X196778571Y-60571428D01*
X200050000Y-84142857D02*
X199978571Y-84285714D01*
X199978571Y-84500000D01*
X200050000Y-84714285D01*
X200192857Y-84857142D01*
X200335714Y-84928571D01*
X200621428Y-85000000D01*
X200835714Y-85000000D01*
X201121428Y-84928571D01*
X201264285Y-84857142D01*
X201407142Y-84714285D01*
X201478571Y-84500000D01*
X201478571Y-84357142D01*
X201407142Y-84142857D01*
X201335714Y-84071428D01*
X200835714Y-84071428D01*
X200835714Y-84357142D01*
X201478571Y-83428571D02*
X199978571Y-83428571D01*
X201478571Y-82571428D01*
X199978571Y-82571428D01*
X201478571Y-81857142D02*
X199978571Y-81857142D01*
X199978571Y-81500000D01*
X200050000Y-81285714D01*
X200192857Y-81142857D01*
X200335714Y-81071428D01*
X200621428Y-81000000D01*
X200835714Y-81000000D01*
X201121428Y-81071428D01*
X201264285Y-81142857D01*
X201407142Y-81285714D01*
X201478571Y-81500000D01*
X201478571Y-81857142D01*
X191378571Y-130300000D02*
X192450000Y-130300000D01*
X192664285Y-130371428D01*
X192807142Y-130514285D01*
X192878571Y-130728571D01*
X192878571Y-130871428D01*
X191378571Y-129728571D02*
X191378571Y-128728571D01*
X192878571Y-129371428D01*
X197178571Y-97100000D02*
X198250000Y-97100000D01*
X198464285Y-97171428D01*
X198607142Y-97314285D01*
X198678571Y-97528571D01*
X198678571Y-97671428D01*
X197821428Y-96171428D02*
X197750000Y-96314285D01*
X197678571Y-96385714D01*
X197535714Y-96457142D01*
X197464285Y-96457142D01*
X197321428Y-96385714D01*
X197250000Y-96314285D01*
X197178571Y-96171428D01*
X197178571Y-95885714D01*
X197250000Y-95742857D01*
X197321428Y-95671428D01*
X197464285Y-95600000D01*
X197535714Y-95600000D01*
X197678571Y-95671428D01*
X197750000Y-95742857D01*
X197821428Y-95885714D01*
X197821428Y-96171428D01*
X197892857Y-96314285D01*
X197964285Y-96385714D01*
X198107142Y-96457142D01*
X198392857Y-96457142D01*
X198535714Y-96385714D01*
X198607142Y-96314285D01*
X198678571Y-96171428D01*
X198678571Y-95885714D01*
X198607142Y-95742857D01*
X198535714Y-95671428D01*
X198392857Y-95600000D01*
X198107142Y-95600000D01*
X197964285Y-95671428D01*
X197892857Y-95742857D01*
X197821428Y-95885714D01*
X196978571Y-107300000D02*
X198050000Y-107300000D01*
X198264285Y-107371428D01*
X198407142Y-107514285D01*
X198478571Y-107728571D01*
X198478571Y-107871428D01*
X198478571Y-106514285D02*
X198478571Y-106228571D01*
X198407142Y-106085714D01*
X198335714Y-106014285D01*
X198121428Y-105871428D01*
X197835714Y-105800000D01*
X197264285Y-105800000D01*
X197121428Y-105871428D01*
X197050000Y-105942857D01*
X196978571Y-106085714D01*
X196978571Y-106371428D01*
X197050000Y-106514285D01*
X197121428Y-106585714D01*
X197264285Y-106657142D01*
X197621428Y-106657142D01*
X197764285Y-106585714D01*
X197835714Y-106514285D01*
X197907142Y-106371428D01*
X197907142Y-106085714D01*
X197835714Y-105942857D01*
X197764285Y-105871428D01*
X197621428Y-105800000D01*
X197378571Y-115214285D02*
X198450000Y-115214285D01*
X198664285Y-115285714D01*
X198807142Y-115428571D01*
X198878571Y-115642857D01*
X198878571Y-115785714D01*
X198878571Y-113714285D02*
X198878571Y-114571428D01*
X198878571Y-114142857D02*
X197378571Y-114142857D01*
X197592857Y-114285714D01*
X197735714Y-114428571D01*
X197807142Y-114571428D01*
X197378571Y-112785714D02*
X197378571Y-112642857D01*
X197450000Y-112500000D01*
X197521428Y-112428571D01*
X197664285Y-112357142D01*
X197950000Y-112285714D01*
X198307142Y-112285714D01*
X198592857Y-112357142D01*
X198735714Y-112428571D01*
X198807142Y-112500000D01*
X198878571Y-112642857D01*
X198878571Y-112785714D01*
X198807142Y-112928571D01*
X198735714Y-113000000D01*
X198592857Y-113071428D01*
X198307142Y-113142857D01*
X197950000Y-113142857D01*
X197664285Y-113071428D01*
X197521428Y-113000000D01*
X197450000Y-112928571D01*
X197378571Y-112785714D01*
X196378571Y-87014285D02*
X197450000Y-87014285D01*
X197664285Y-87085714D01*
X197807142Y-87228571D01*
X197878571Y-87442857D01*
X197878571Y-87585714D01*
X197878571Y-85514285D02*
X197878571Y-86371428D01*
X197878571Y-85942857D02*
X196378571Y-85942857D01*
X196592857Y-86085714D01*
X196735714Y-86228571D01*
X196807142Y-86371428D01*
X197878571Y-84085714D02*
X197878571Y-84942857D01*
X197878571Y-84514285D02*
X196378571Y-84514285D01*
X196592857Y-84657142D01*
X196735714Y-84800000D01*
X196807142Y-84942857D01*
X190752771Y-76111085D02*
X191824200Y-76111085D01*
X192038485Y-76182514D01*
X192181342Y-76325371D01*
X192252771Y-76539657D01*
X192252771Y-76682514D01*
X192252771Y-74611085D02*
X192252771Y-75468228D01*
X192252771Y-75039657D02*
X190752771Y-75039657D01*
X190967057Y-75182514D01*
X191109914Y-75325371D01*
X191181342Y-75468228D01*
X190895628Y-74039657D02*
X190824200Y-73968228D01*
X190752771Y-73825371D01*
X190752771Y-73468228D01*
X190824200Y-73325371D01*
X190895628Y-73253942D01*
X191038485Y-73182514D01*
X191181342Y-73182514D01*
X191395628Y-73253942D01*
X192252771Y-74111085D01*
X192252771Y-73182514D01*
X139185714Y-63378571D02*
X139185714Y-64450000D01*
X139114285Y-64664285D01*
X138971428Y-64807142D01*
X138757142Y-64878571D01*
X138614285Y-64878571D01*
X140685714Y-64878571D02*
X139828571Y-64878571D01*
X140257142Y-64878571D02*
X140257142Y-63378571D01*
X140114285Y-63592857D01*
X139971428Y-63735714D01*
X139828571Y-63807142D01*
X141185714Y-63378571D02*
X142114285Y-63378571D01*
X141614285Y-63950000D01*
X141828571Y-63950000D01*
X141971428Y-64021428D01*
X142042857Y-64092857D01*
X142114285Y-64235714D01*
X142114285Y-64592857D01*
X142042857Y-64735714D01*
X141971428Y-64807142D01*
X141828571Y-64878571D01*
X141400000Y-64878571D01*
X141257142Y-64807142D01*
X141185714Y-64735714D01*
X136707142Y-59778571D02*
X137564285Y-59778571D01*
X137135714Y-61278571D02*
X137135714Y-59778571D01*
X138564285Y-60492857D02*
X138778571Y-60564285D01*
X138850000Y-60635714D01*
X138921428Y-60778571D01*
X138921428Y-60992857D01*
X138850000Y-61135714D01*
X138778571Y-61207142D01*
X138635714Y-61278571D01*
X138064285Y-61278571D01*
X138064285Y-59778571D01*
X138564285Y-59778571D01*
X138707142Y-59850000D01*
X138778571Y-59921428D01*
X138850000Y-60064285D01*
X138850000Y-60207142D01*
X138778571Y-60350000D01*
X138707142Y-60421428D01*
X138564285Y-60492857D01*
X138064285Y-60492857D01*
X139207142Y-61421428D02*
X140350000Y-61421428D01*
X141492857Y-61278571D02*
X140635714Y-61278571D01*
X141064285Y-61278571D02*
X141064285Y-59778571D01*
X140921428Y-59992857D01*
X140778571Y-60135714D01*
X140635714Y-60207142D01*
X141992857Y-59778571D02*
X142992857Y-61278571D01*
X142992857Y-59778571D02*
X141992857Y-61278571D01*
X143421428Y-59778571D02*
X144350000Y-59778571D01*
X143850000Y-60350000D01*
X144064285Y-60350000D01*
X144207142Y-60421428D01*
X144278571Y-60492857D01*
X144350000Y-60635714D01*
X144350000Y-60992857D01*
X144278571Y-61135714D01*
X144207142Y-61207142D01*
X144064285Y-61278571D01*
X143635714Y-61278571D01*
X143492857Y-61207142D01*
X143421428Y-61135714D01*
X184185714Y-138978571D02*
X184185714Y-140050000D01*
X184114285Y-140264285D01*
X183971428Y-140407142D01*
X183757142Y-140478571D01*
X183614285Y-140478571D01*
X185685714Y-140478571D02*
X184828571Y-140478571D01*
X185257142Y-140478571D02*
X185257142Y-138978571D01*
X185114285Y-139192857D01*
X184971428Y-139335714D01*
X184828571Y-139407142D01*
X186971428Y-139478571D02*
X186971428Y-140478571D01*
X186614285Y-138907142D02*
X186257142Y-139978571D01*
X187185714Y-139978571D01*
X183985714Y-144978571D02*
X183985714Y-146050000D01*
X183914285Y-146264285D01*
X183771428Y-146407142D01*
X183557142Y-146478571D01*
X183414285Y-146478571D01*
X185485714Y-146478571D02*
X184628571Y-146478571D01*
X185057142Y-146478571D02*
X185057142Y-144978571D01*
X184914285Y-145192857D01*
X184771428Y-145335714D01*
X184628571Y-145407142D01*
X186842857Y-144978571D02*
X186128571Y-144978571D01*
X186057142Y-145692857D01*
X186128571Y-145621428D01*
X186271428Y-145550000D01*
X186628571Y-145550000D01*
X186771428Y-145621428D01*
X186842857Y-145692857D01*
X186914285Y-145835714D01*
X186914285Y-146192857D01*
X186842857Y-146335714D01*
X186771428Y-146407142D01*
X186628571Y-146478571D01*
X186271428Y-146478571D01*
X186128571Y-146407142D01*
X186057142Y-146335714D01*
X154185714Y-148178571D02*
X154185714Y-149250000D01*
X154114285Y-149464285D01*
X153971428Y-149607142D01*
X153757142Y-149678571D01*
X153614285Y-149678571D01*
X155685714Y-149678571D02*
X154828571Y-149678571D01*
X155257142Y-149678571D02*
X155257142Y-148178571D01*
X155114285Y-148392857D01*
X154971428Y-148535714D01*
X154828571Y-148607142D01*
X156971428Y-148178571D02*
X156685714Y-148178571D01*
X156542857Y-148250000D01*
X156471428Y-148321428D01*
X156328571Y-148535714D01*
X156257142Y-148821428D01*
X156257142Y-149392857D01*
X156328571Y-149535714D01*
X156400000Y-149607142D01*
X156542857Y-149678571D01*
X156828571Y-149678571D01*
X156971428Y-149607142D01*
X157042857Y-149535714D01*
X157114285Y-149392857D01*
X157114285Y-149035714D01*
X157042857Y-148892857D01*
X156971428Y-148821428D01*
X156828571Y-148750000D01*
X156542857Y-148750000D01*
X156400000Y-148821428D01*
X156328571Y-148892857D01*
X156257142Y-149035714D01*
X157985714Y-148178571D02*
X157985714Y-149250000D01*
X157914285Y-149464285D01*
X157771428Y-149607142D01*
X157557142Y-149678571D01*
X157414285Y-149678571D01*
X159485714Y-149678571D02*
X158628571Y-149678571D01*
X159057142Y-149678571D02*
X159057142Y-148178571D01*
X158914285Y-148392857D01*
X158771428Y-148535714D01*
X158628571Y-148607142D01*
X159985714Y-148178571D02*
X160985714Y-148178571D01*
X160342857Y-149678571D01*
X195307142Y-142442857D02*
X195307142Y-141300000D01*
X195878571Y-141871428D02*
X194735714Y-141871428D01*
X194378571Y-139871428D02*
X194378571Y-140585714D01*
X195092857Y-140657142D01*
X195021428Y-140585714D01*
X194950000Y-140442857D01*
X194950000Y-140085714D01*
X195021428Y-139942857D01*
X195092857Y-139871428D01*
X195235714Y-139800000D01*
X195592857Y-139800000D01*
X195735714Y-139871428D01*
X195807142Y-139942857D01*
X195878571Y-140085714D01*
X195878571Y-140442857D01*
X195807142Y-140585714D01*
X195735714Y-140657142D01*
X194378571Y-139371428D02*
X195878571Y-138871428D01*
X194378571Y-138371428D01*
X195878571Y-136728571D02*
X194378571Y-136728571D01*
X195878571Y-136014285D02*
X194378571Y-136014285D01*
X195878571Y-135157142D01*
X194378571Y-135157142D01*
X200650000Y-114942857D02*
X200578571Y-115085714D01*
X200578571Y-115300000D01*
X200650000Y-115514285D01*
X200792857Y-115657142D01*
X200935714Y-115728571D01*
X201221428Y-115800000D01*
X201435714Y-115800000D01*
X201721428Y-115728571D01*
X201864285Y-115657142D01*
X202007142Y-115514285D01*
X202078571Y-115300000D01*
X202078571Y-115157142D01*
X202007142Y-114942857D01*
X201935714Y-114871428D01*
X201435714Y-114871428D01*
X201435714Y-115157142D01*
X202078571Y-114228571D02*
X200578571Y-114228571D01*
X202078571Y-113371428D01*
X200578571Y-113371428D01*
X202078571Y-112657142D02*
X200578571Y-112657142D01*
X200578571Y-112300000D01*
X200650000Y-112085714D01*
X200792857Y-111942857D01*
X200935714Y-111871428D01*
X201221428Y-111800000D01*
X201435714Y-111800000D01*
X201721428Y-111871428D01*
X201864285Y-111942857D01*
X202007142Y-112085714D01*
X202078571Y-112300000D01*
X202078571Y-112657142D01*
D11*
X163689428Y-64724857D02*
X162165428Y-64724857D01*
X163689428Y-63854000D02*
X162818571Y-64507142D01*
X162165428Y-63854000D02*
X163036285Y-64724857D01*
X163689428Y-62402571D02*
X163689428Y-63273428D01*
X163689428Y-62838000D02*
X162165428Y-62838000D01*
X162383142Y-62983142D01*
X162528285Y-63128285D01*
X162600857Y-63273428D01*
X163689428Y-60083428D02*
X162963714Y-60591428D01*
X163689428Y-60954285D02*
X162165428Y-60954285D01*
X162165428Y-60373714D01*
X162238000Y-60228571D01*
X162310571Y-60156000D01*
X162455714Y-60083428D01*
X162673428Y-60083428D01*
X162818571Y-60156000D01*
X162891142Y-60228571D01*
X162963714Y-60373714D01*
X162963714Y-60954285D01*
X162891142Y-59430285D02*
X162891142Y-58922285D01*
X163689428Y-58704571D02*
X163689428Y-59430285D01*
X162165428Y-59430285D01*
X162165428Y-58704571D01*
X163689428Y-57325714D02*
X163689428Y-58051428D01*
X162165428Y-58051428D01*
X163254000Y-56890285D02*
X163254000Y-56164571D01*
X163689428Y-57035428D02*
X162165428Y-56527428D01*
X163689428Y-56019428D01*
X162963714Y-55221142D02*
X163689428Y-55221142D01*
X162165428Y-55729142D02*
X162963714Y-55221142D01*
X162165428Y-54713142D01*
X163834571Y-54568000D02*
X163834571Y-53406857D01*
X163544285Y-52173142D02*
X163616857Y-52245714D01*
X163689428Y-52463428D01*
X163689428Y-52608571D01*
X163616857Y-52826285D01*
X163471714Y-52971428D01*
X163326571Y-53044000D01*
X163036285Y-53116571D01*
X162818571Y-53116571D01*
X162528285Y-53044000D01*
X162383142Y-52971428D01*
X162238000Y-52826285D01*
X162165428Y-52608571D01*
X162165428Y-52463428D01*
X162238000Y-52245714D01*
X162310571Y-52173142D01*
X113275142Y-61089428D02*
X113275142Y-59565428D01*
X114146000Y-61089428D02*
X113492857Y-60218571D01*
X114146000Y-59565428D02*
X113275142Y-60436285D01*
X114654000Y-59565428D02*
X115597428Y-59565428D01*
X115089428Y-60146000D01*
X115307142Y-60146000D01*
X115452285Y-60218571D01*
X115524857Y-60291142D01*
X115597428Y-60436285D01*
X115597428Y-60799142D01*
X115524857Y-60944285D01*
X115452285Y-61016857D01*
X115307142Y-61089428D01*
X114871714Y-61089428D01*
X114726571Y-61016857D01*
X114654000Y-60944285D01*
X107716571Y-64489428D02*
X107208571Y-63763714D01*
X106845714Y-64489428D02*
X106845714Y-62965428D01*
X107426285Y-62965428D01*
X107571428Y-63038000D01*
X107644000Y-63110571D01*
X107716571Y-63255714D01*
X107716571Y-63473428D01*
X107644000Y-63618571D01*
X107571428Y-63691142D01*
X107426285Y-63763714D01*
X106845714Y-63763714D01*
X108369714Y-63691142D02*
X108877714Y-63691142D01*
X109095428Y-64489428D02*
X108369714Y-64489428D01*
X108369714Y-62965428D01*
X109095428Y-62965428D01*
X110474285Y-64489428D02*
X109748571Y-64489428D01*
X109748571Y-62965428D01*
X110909714Y-64054000D02*
X111635428Y-64054000D01*
X110764571Y-64489428D02*
X111272571Y-62965428D01*
X111780571Y-64489428D01*
X112578857Y-63763714D02*
X112578857Y-64489428D01*
X112070857Y-62965428D02*
X112578857Y-63763714D01*
X113086857Y-62965428D01*
X113232000Y-64634571D02*
X114393142Y-64634571D01*
X115626857Y-64344285D02*
X115554285Y-64416857D01*
X115336571Y-64489428D01*
X115191428Y-64489428D01*
X114973714Y-64416857D01*
X114828571Y-64271714D01*
X114756000Y-64126571D01*
X114683428Y-63836285D01*
X114683428Y-63618571D01*
X114756000Y-63328285D01*
X114828571Y-63183142D01*
X114973714Y-63038000D01*
X115191428Y-62965428D01*
X115336571Y-62965428D01*
X115554285Y-63038000D01*
X115626857Y-63110571D01*
D12*
X153185714Y-71852380D02*
X153185714Y-70852380D01*
X153566666Y-70852380D01*
X153661904Y-70900000D01*
X153709523Y-70947619D01*
X153757142Y-71042857D01*
X153757142Y-71185714D01*
X153709523Y-71280952D01*
X153661904Y-71328571D01*
X153566666Y-71376190D01*
X153185714Y-71376190D01*
X154709523Y-71852380D02*
X154138095Y-71852380D01*
X154423809Y-71852380D02*
X154423809Y-70852380D01*
X154328571Y-70995238D01*
X154233333Y-71090476D01*
X154138095Y-71138095D01*
X155566666Y-70852380D02*
X155376190Y-70852380D01*
X155280952Y-70900000D01*
X155233333Y-70947619D01*
X155138095Y-71090476D01*
X155090476Y-71280952D01*
X155090476Y-71661904D01*
X155138095Y-71757142D01*
X155185714Y-71804761D01*
X155280952Y-71852380D01*
X155471428Y-71852380D01*
X155566666Y-71804761D01*
X155614285Y-71757142D01*
X155661904Y-71661904D01*
X155661904Y-71423809D01*
X155614285Y-71328571D01*
X155566666Y-71280952D01*
X155471428Y-71233333D01*
X155280952Y-71233333D01*
X155185714Y-71280952D01*
X155138095Y-71328571D01*
X155090476Y-71423809D01*
D11*
X180546000Y-84889428D02*
X180038000Y-84163714D01*
X179675142Y-84889428D02*
X179675142Y-83365428D01*
X180255714Y-83365428D01*
X180400857Y-83438000D01*
X180473428Y-83510571D01*
X180546000Y-83655714D01*
X180546000Y-83873428D01*
X180473428Y-84018571D01*
X180400857Y-84091142D01*
X180255714Y-84163714D01*
X179675142Y-84163714D01*
X181126571Y-83510571D02*
X181199142Y-83438000D01*
X181344285Y-83365428D01*
X181707142Y-83365428D01*
X181852285Y-83438000D01*
X181924857Y-83510571D01*
X181997428Y-83655714D01*
X181997428Y-83800857D01*
X181924857Y-84018571D01*
X181054000Y-84889428D01*
X181997428Y-84889428D01*
X179747714Y-87889428D02*
X178876857Y-87889428D01*
X179312285Y-87889428D02*
X179312285Y-86365428D01*
X179167142Y-86583142D01*
X179022000Y-86728285D01*
X178876857Y-86800857D01*
X180691142Y-86365428D02*
X180836285Y-86365428D01*
X180981428Y-86438000D01*
X181054000Y-86510571D01*
X181126571Y-86655714D01*
X181199142Y-86946000D01*
X181199142Y-87308857D01*
X181126571Y-87599142D01*
X181054000Y-87744285D01*
X180981428Y-87816857D01*
X180836285Y-87889428D01*
X180691142Y-87889428D01*
X180546000Y-87816857D01*
X180473428Y-87744285D01*
X180400857Y-87599142D01*
X180328285Y-87308857D01*
X180328285Y-86946000D01*
X180400857Y-86655714D01*
X180473428Y-86510571D01*
X180546000Y-86438000D01*
X180691142Y-86365428D01*
X181852285Y-87889428D02*
X181852285Y-86365428D01*
X182723142Y-87889428D02*
X182070000Y-87018571D01*
X182723142Y-86365428D02*
X181852285Y-87236285D01*
X167871000Y-85964428D02*
X167363000Y-85238714D01*
X167000142Y-85964428D02*
X167000142Y-84440428D01*
X167580714Y-84440428D01*
X167725857Y-84513000D01*
X167798428Y-84585571D01*
X167871000Y-84730714D01*
X167871000Y-84948428D01*
X167798428Y-85093571D01*
X167725857Y-85166142D01*
X167580714Y-85238714D01*
X167000142Y-85238714D01*
X169177285Y-84948428D02*
X169177285Y-85964428D01*
X168814428Y-84367857D02*
X168451571Y-85456428D01*
X169395000Y-85456428D01*
X167022714Y-88514428D02*
X166151857Y-88514428D01*
X166587285Y-88514428D02*
X166587285Y-86990428D01*
X166442142Y-87208142D01*
X166297000Y-87353285D01*
X166151857Y-87425857D01*
X167966142Y-86990428D02*
X168111285Y-86990428D01*
X168256428Y-87063000D01*
X168329000Y-87135571D01*
X168401571Y-87280714D01*
X168474142Y-87571000D01*
X168474142Y-87933857D01*
X168401571Y-88224142D01*
X168329000Y-88369285D01*
X168256428Y-88441857D01*
X168111285Y-88514428D01*
X167966142Y-88514428D01*
X167821000Y-88441857D01*
X167748428Y-88369285D01*
X167675857Y-88224142D01*
X167603285Y-87933857D01*
X167603285Y-87571000D01*
X167675857Y-87280714D01*
X167748428Y-87135571D01*
X167821000Y-87063000D01*
X167966142Y-86990428D01*
X169127285Y-88514428D02*
X169127285Y-86990428D01*
X169998142Y-88514428D02*
X169345000Y-87643571D01*
X169998142Y-86990428D02*
X169127285Y-87861285D01*
X123696000Y-87139428D02*
X123188000Y-86413714D01*
X122825142Y-87139428D02*
X122825142Y-85615428D01*
X123405714Y-85615428D01*
X123550857Y-85688000D01*
X123623428Y-85760571D01*
X123696000Y-85905714D01*
X123696000Y-86123428D01*
X123623428Y-86268571D01*
X123550857Y-86341142D01*
X123405714Y-86413714D01*
X122825142Y-86413714D01*
X125074857Y-85615428D02*
X124349142Y-85615428D01*
X124276571Y-86341142D01*
X124349142Y-86268571D01*
X124494285Y-86196000D01*
X124857142Y-86196000D01*
X125002285Y-86268571D01*
X125074857Y-86341142D01*
X125147428Y-86486285D01*
X125147428Y-86849142D01*
X125074857Y-86994285D01*
X125002285Y-87066857D01*
X124857142Y-87139428D01*
X124494285Y-87139428D01*
X124349142Y-87066857D01*
X124276571Y-86994285D01*
X122247714Y-84489428D02*
X121376857Y-84489428D01*
X121812285Y-84489428D02*
X121812285Y-82965428D01*
X121667142Y-83183142D01*
X121522000Y-83328285D01*
X121376857Y-83400857D01*
X123191142Y-82965428D02*
X123336285Y-82965428D01*
X123481428Y-83038000D01*
X123554000Y-83110571D01*
X123626571Y-83255714D01*
X123699142Y-83546000D01*
X123699142Y-83908857D01*
X123626571Y-84199142D01*
X123554000Y-84344285D01*
X123481428Y-84416857D01*
X123336285Y-84489428D01*
X123191142Y-84489428D01*
X123046000Y-84416857D01*
X122973428Y-84344285D01*
X122900857Y-84199142D01*
X122828285Y-83908857D01*
X122828285Y-83546000D01*
X122900857Y-83255714D01*
X122973428Y-83110571D01*
X123046000Y-83038000D01*
X123191142Y-82965428D01*
X124352285Y-84489428D02*
X124352285Y-82965428D01*
X125223142Y-84489428D02*
X124570000Y-83618571D01*
X125223142Y-82965428D02*
X124352285Y-83836285D01*
D18*
X168177523Y-147443619D02*
X168177523Y-148169333D01*
X168129142Y-148314476D01*
X168032380Y-148411238D01*
X167887238Y-148459619D01*
X167790476Y-148459619D01*
X168612952Y-147540380D02*
X168661333Y-147492000D01*
X168758095Y-147443619D01*
X169000000Y-147443619D01*
X169096761Y-147492000D01*
X169145142Y-147540380D01*
X169193523Y-147637142D01*
X169193523Y-147733904D01*
X169145142Y-147879047D01*
X168564571Y-148459619D01*
X169193523Y-148459619D01*
X169822476Y-147443619D02*
X169919238Y-147443619D01*
X170016000Y-147492000D01*
X170064380Y-147540380D01*
X170112761Y-147637142D01*
X170161142Y-147830666D01*
X170161142Y-148072571D01*
X170112761Y-148266095D01*
X170064380Y-148362857D01*
X170016000Y-148411238D01*
X169919238Y-148459619D01*
X169822476Y-148459619D01*
X169725714Y-148411238D01*
X169677333Y-148362857D01*
X169628952Y-148266095D01*
X169580571Y-148072571D01*
X169580571Y-147830666D01*
X169628952Y-147637142D01*
X169677333Y-147540380D01*
X169725714Y-147492000D01*
X169822476Y-147443619D01*
D13*
X185150000Y-129478571D02*
X184650000Y-128764285D01*
X184292857Y-129478571D02*
X184292857Y-127978571D01*
X184864285Y-127978571D01*
X185007142Y-128050000D01*
X185078571Y-128121428D01*
X185150000Y-128264285D01*
X185150000Y-128478571D01*
X185078571Y-128621428D01*
X185007142Y-128692857D01*
X184864285Y-128764285D01*
X184292857Y-128764285D01*
X186578571Y-129478571D02*
X185721428Y-129478571D01*
X186150000Y-129478571D02*
X186150000Y-127978571D01*
X186007142Y-128192857D01*
X185864285Y-128335714D01*
X185721428Y-128407142D01*
X185150000Y-132878571D02*
X184650000Y-132164285D01*
X184292857Y-132878571D02*
X184292857Y-131378571D01*
X184864285Y-131378571D01*
X185007142Y-131450000D01*
X185078571Y-131521428D01*
X185150000Y-131664285D01*
X185150000Y-131878571D01*
X185078571Y-132021428D01*
X185007142Y-132092857D01*
X184864285Y-132164285D01*
X184292857Y-132164285D01*
X185650000Y-131378571D02*
X186578571Y-131378571D01*
X186078571Y-131950000D01*
X186292857Y-131950000D01*
X186435714Y-132021428D01*
X186507142Y-132092857D01*
X186578571Y-132235714D01*
X186578571Y-132592857D01*
X186507142Y-132735714D01*
X186435714Y-132807142D01*
X186292857Y-132878571D01*
X185864285Y-132878571D01*
X185721428Y-132807142D01*
X185650000Y-132735714D01*
M02*
